<svg width="32" height="32" viewBox="0 0 32 32" fill="none" xmlns="http://www.w3.org/2000/svg">
<g clip-path="url(#clip0_432_4923)">
<path d="M0 12.8C0 8.31958 0 6.07937 0.871948 4.36808C1.63893 2.86278 2.86278 1.63893 4.36808 0.871948C6.07937 0 8.31958 0 12.8 0H19.2C23.6804 0 25.9206 0 27.6319 0.871948C29.1372 1.63893 30.3611 2.86278 31.1281 4.36808C32 6.07937 32 8.31958 32 12.8V19.2C32 23.6804 32 25.9206 31.1281 27.6319C30.3611 29.1372 29.1372 30.3611 27.6319 31.1281C25.9206 32 23.6804 32 19.2 32H12.8C8.31958 32 6.07937 32 4.36808 31.1281C2.86278 30.3611 1.63893 29.1372 0.871948 27.6319C0 25.9206 0 23.6804 0 19.2V12.8Z" fill="#6366F1"/>
<g opacity="0.25" style="mix-blend-mode:multiply">
<circle cx="26" cy="37" r="27" fill="#6366F1"/>
</g>
<g opacity="0.25" style="mix-blend-mode:multiply">
<circle cx="26" cy="47" r="27" fill="#6366F1"/>
</g>
<mask id="mask0_432_4923" style="mask-type:alpha" maskUnits="userSpaceOnUse" x="4" y="4" width="24" height="24">
<rect x="4" y="4" width="24" height="24" fill="#D9D9D9"/>
</mask>
<g mask="url(#mask0_432_4923)">
<path d="M13.5489 24.9131C12.8815 24.2457 12.5479 23.4288 12.5479 22.4623C12.5479 21.6342 12.803 20.9102 13.3134 20.2903C13.8235 19.6703 14.469 19.2726 15.2499 19.0971V16.7508H11.3076C10.8104 16.7508 10.3849 16.5738 10.0309 16.2198C9.67685 15.8658 9.49985 15.4402 9.49985 14.9431V12.9528H7.95185C7.69568 12.9528 7.48102 12.8662 7.30785 12.6928C7.13452 12.5197 7.04785 12.305 7.04785 12.0488V7.45658C7.04785 7.19641 7.13452 6.98008 7.30785 6.80758C7.48102 6.63508 7.69568 6.54883 7.95185 6.54883H12.5441C12.8043 6.54883 13.0206 6.6355 13.1931 6.80883C13.3656 6.982 13.4519 7.19666 13.4519 7.45283V12.0451C13.4519 12.3052 13.3652 12.5216 13.1919 12.6941C13.0187 12.8666 12.804 12.9528 12.5479 12.9528H10.9999V14.9431C10.9999 15.0329 11.0287 15.1067 11.0864 15.1643C11.144 15.222 11.2178 15.2508 11.3076 15.2508H20.6921C20.7819 15.2508 20.8557 15.222 20.9134 15.1643C20.971 15.1067 20.9999 15.0329 20.9999 14.9431V12.8663C20.219 12.6907 19.5735 12.2929 19.0634 11.6731C18.553 11.0531 18.2979 10.329 18.2979 9.50083C18.2979 8.53433 18.6316 7.71741 19.2991 7.05008C19.9664 6.38258 20.7834 6.04883 21.7499 6.04883C22.7165 6.04883 23.5335 6.38258 24.2009 7.05008C24.8682 7.71741 25.2019 8.53433 25.2019 9.50083C25.2019 10.329 24.9467 11.0531 24.4364 11.6731C23.926 12.2929 23.2805 12.6907 22.4999 12.8663V14.9431C22.4999 15.4402 22.3229 15.8658 21.9689 16.2198C21.6149 16.5738 21.1893 16.7508 20.6921 16.7508H16.7499V19.0971C17.5307 19.2726 18.1762 19.6703 18.6864 20.2903C19.1967 20.9102 19.4519 21.6342 19.4519 22.4623C19.4519 23.4288 19.1181 24.2457 18.4506 24.9131C17.7833 25.5806 16.9663 25.9143 15.9996 25.9143C15.0331 25.9143 14.2162 25.5806 13.5489 24.9131Z" fill="white"/>
</g>
</g>
<defs>
<clipPath id="clip0_432_4923">
<path d="M0 12.8C0 8.31958 0 6.07937 0.871948 4.36808C1.63893 2.86278 2.86278 1.63893 4.36808 0.871948C6.07937 0 8.31958 0 12.8 0H19.2C23.6804 0 25.9206 0 27.6319 0.871948C29.1372 1.63893 30.3611 2.86278 31.1281 4.36808C32 6.07937 32 8.31958 32 12.8V19.2C32 23.6804 32 25.9206 31.1281 27.6319C30.3611 29.1372 29.1372 30.3611 27.6319 31.1281C25.9206 32 23.6804 32 19.2 32H12.8C8.31958 32 6.07937 32 4.36808 31.1281C2.86278 30.3611 1.63893 29.1372 0.871948 27.6319C0 25.9206 0 23.6804 0 19.2V12.8Z" fill="white"/>
</clipPath>
</defs>
</svg>
