<svg width="32" height="32" viewBox="0 0 32 32" fill="none" xmlns="http://www.w3.org/2000/svg">
<g clip-path="url(#clip0_432_4820)">
<path d="M0 12.8C0 8.31958 0 6.07937 0.871948 4.36808C1.63893 2.86278 2.86278 1.63893 4.36808 0.871948C6.07937 0 8.31958 0 12.8 0H19.2C23.6804 0 25.9206 0 27.6319 0.871948C29.1372 1.63893 30.3611 2.86278 31.1281 4.36808C32 6.07937 32 8.31958 32 12.8V19.2C32 23.6804 32 25.9206 31.1281 27.6319C30.3611 29.1372 29.1372 30.3611 27.6319 31.1281C25.9206 32 23.6804 32 19.2 32H12.8C8.31958 32 6.07937 32 4.36808 31.1281C2.86278 30.3611 1.63893 29.1372 0.871948 27.6319C0 25.9206 0 23.6804 0 19.2V12.8Z" fill="#22C55E"/>
<g opacity="0.25" style="mix-blend-mode:multiply">
<circle cx="26" cy="37" r="27" fill="#22C55E"/>
</g>
<g opacity="0.25" style="mix-blend-mode:multiply">
<circle cx="26" cy="47" r="27" fill="#22C55E"/>
</g>
<mask id="mask0_432_4820" style="mask-type:alpha" maskUnits="userSpaceOnUse" x="4" y="4" width="24" height="24">
<rect x="4" y="4" width="24" height="24" fill="#D9D9D9"/>
</mask>
<g mask="url(#mask0_432_4820)">
<path d="M12.6213 13.475L11.9655 14.1307C11.8475 14.2487 11.7894 14.3869 11.7913 14.5452C11.7933 14.7036 11.8564 14.8449 11.9808 14.9693C12.1051 15.0936 12.2448 15.1557 12.4 15.1557C12.5552 15.1557 12.6949 15.0936 12.8193 14.9693L13.6463 14.1328C13.8269 13.9519 13.9173 13.741 13.9173 13.5C13.9173 13.259 13.8269 13.0481 13.6463 12.8672L12.7845 12.0057C12.6768 11.8981 12.5403 11.8443 12.375 11.8443C12.2097 11.8443 12.0732 11.8981 11.9655 12.0057C11.8475 12.1237 11.7885 12.2619 11.7885 12.4202C11.7885 12.5786 11.8475 12.7167 11.9655 12.8345L12.6213 13.475ZM23.698 12.302C23.3352 11.9392 23.1538 11.5052 23.1538 11C23.1538 10.432 23.3211 9.87717 23.6558 9.3355C23.9904 8.79383 24.3097 8.29417 24.6135 7.8365C24.657 7.766 24.7131 7.71408 24.7818 7.68075C24.8503 7.64742 24.923 7.63075 25 7.63075C25.077 7.63075 25.1482 7.64742 25.2135 7.68075C25.2788 7.71408 25.3333 7.766 25.377 7.8365C25.6808 8.29417 26.0017 8.79383 26.3395 9.3355C26.6773 9.87717 26.8463 10.432 26.8463 11C26.8463 11.5052 26.6648 11.9392 26.302 12.302C25.9392 12.6648 25.5052 12.8462 25 12.8462C24.4948 12.8462 24.0608 12.6648 23.698 12.302ZM19.4038 13.475L20.0443 12.8345C20.1623 12.7167 20.2196 12.5786 20.2163 12.4202C20.2131 12.2619 20.1525 12.1237 20.0345 12.0057C19.9167 11.8877 19.7786 11.8288 19.6203 11.8288C19.4619 11.8288 19.3238 11.8877 19.2058 12.0057L18.3538 12.8672C18.1731 13.0481 18.0828 13.259 18.0828 13.5C18.0828 13.741 18.1731 13.9519 18.3538 14.1328L19.2058 14.9845C19.3238 15.1025 19.4645 15.1606 19.628 15.1587C19.7913 15.1567 19.9352 15.0936 20.0595 14.9693C20.184 14.8449 20.2463 14.7026 20.2463 14.5423C20.2463 14.3821 20.184 14.2398 20.0595 14.1155L19.4038 13.475ZM16 25.5C14.677 25.5 13.4376 25.2503 12.2818 24.751C11.1259 24.2517 10.1188 23.5728 9.2605 22.7145C8.40217 21.8562 7.7275 20.8507 7.2365 19.698C6.7455 18.5455 6.5 17.3128 6.5 16C6.5 14.6872 6.7455 13.4545 7.2365 12.302C7.7275 11.1493 8.40217 10.1438 9.2605 9.2855C10.1188 8.42717 11.1259 7.74833 12.2818 7.249C13.4376 6.74967 14.677 6.5 16 6.5C17.0308 6.5 18.01 6.65483 18.9375 6.9645C19.865 7.27417 20.7192 7.702 21.5 8.248C21.7013 8.3955 21.8321 8.58917 21.8923 8.829C21.9526 9.06867 21.9321 9.30583 21.8308 9.5405C21.7359 9.766 21.6571 9.99992 21.5943 10.2423C21.5314 10.4846 21.5 10.7372 21.5 11C21.5 11.8858 21.7856 12.6483 22.3568 13.2875C22.9279 13.9267 23.6417 14.3116 24.498 14.4423C24.7428 14.4821 24.9586 14.5763 25.1453 14.725C25.3318 14.8737 25.4417 15.0704 25.475 15.3152C25.4917 15.4242 25.5 15.5384 25.5 15.6578V16C25.5 17.3128 25.2503 18.5471 24.751 19.7028C24.2517 20.8586 23.5744 21.8641 22.7193 22.7193C21.8641 23.5744 20.8586 24.2517 19.7028 24.751C18.5471 25.2503 17.3128 25.5 16 25.5ZM12.2308 20.6923C12.3218 20.6923 12.4122 20.6669 12.502 20.6163C12.5917 20.5656 12.6634 20.5031 12.7173 20.4288C13.0839 19.9031 13.5471 19.4823 14.1068 19.1663C14.6664 18.8503 15.2975 18.6923 16 18.6923C16.7025 18.6923 17.3336 18.8503 17.8933 19.1663C18.4529 19.4823 18.9161 19.9031 19.2828 20.4288C19.3366 20.5031 19.4074 20.5656 19.4953 20.6163C19.5831 20.6669 19.6693 20.6923 19.7538 20.6923C20.0026 20.6923 20.1834 20.5862 20.2963 20.374C20.4089 20.1618 20.3878 19.941 20.2328 19.7115C19.7801 19.023 19.1765 18.4823 18.422 18.0895C17.6675 17.6965 16.8602 17.5 16 17.5C15.5538 17.5 15.1128 17.5554 14.677 17.6663C14.241 17.7773 13.8301 17.9468 13.4443 18.175L10.2788 16.3463C10.2788 16.0924 10.2218 15.8504 10.1078 15.6202C9.99358 15.3901 9.82625 15.2116 9.60575 15.0848C9.27758 14.9039 8.93692 14.8613 8.58375 14.9568C8.23058 15.0523 7.95842 15.259 7.76725 15.577C7.58658 15.9052 7.544 16.2474 7.6395 16.6038C7.735 16.9603 7.94175 17.234 8.25975 17.425C8.48025 17.552 8.71742 17.6074 8.97125 17.5913C9.22508 17.5753 9.46225 17.5038 9.68275 17.377L12.402 18.9423C12.275 19.0693 12.1599 19.1994 12.0568 19.3328C11.9536 19.4661 11.852 19.6026 11.752 19.7423C11.6072 19.9679 11.5928 20.1827 11.7088 20.3865C11.8248 20.5903 11.9988 20.6923 12.2308 20.6923Z" fill="white"/>
</g>
</g>
<defs>
<clipPath id="clip0_432_4820">
<path d="M0 12.8C0 8.31958 0 6.07937 0.871948 4.36808C1.63893 2.86278 2.86278 1.63893 4.36808 0.871948C6.07937 0 8.31958 0 12.8 0H19.2C23.6804 0 25.9206 0 27.6319 0.871948C29.1372 1.63893 30.3611 2.86278 31.1281 4.36808C32 6.07937 32 8.31958 32 12.8V19.2C32 23.6804 32 25.9206 31.1281 27.6319C30.3611 29.1372 29.1372 30.3611 27.6319 31.1281C25.9206 32 23.6804 32 19.2 32H12.8C8.31958 32 6.07937 32 4.36808 31.1281C2.86278 30.3611 1.63893 29.1372 0.871948 27.6319C0 25.9206 0 23.6804 0 19.2V12.8Z" fill="white"/>
</clipPath>
</defs>
</svg>
