<svg width="40" height="40" viewBox="0 0 40 40" fill="none" xmlns="http://www.w3.org/2000/svg">
<g clip-path="url(#clip0_368_15047)">
<path d="M0 16C0 10.3995 0 7.59921 1.08993 5.46009C2.04867 3.57847 3.57847 2.04867 5.46009 1.08993C7.59921 0 10.3995 0 16 0H24C29.6005 0 32.4008 0 34.5399 1.08993C36.4215 2.04867 37.9513 3.57847 38.9101 5.46009C40 7.59921 40 10.3995 40 16V24C40 29.6005 40 32.4008 38.9101 34.5399C37.9513 36.4215 36.4215 37.9513 34.5399 38.9101C32.4008 40 29.6005 40 24 40H16C10.3995 40 7.59921 40 5.46009 38.9101C3.57847 37.9513 2.04867 36.4215 1.08993 34.5399C0 32.4008 0 29.6005 0 24V16Z" fill="#F3E8FF"/>
<circle cx="32.5" cy="46.25" r="33.75" fill="#F3E8FF"/>
<circle cx="32.5" cy="58.752" r="33.75" fill="#F3E8FF"/>
<mask id="mask0_368_15047" style="mask-type:alpha" maskUnits="userSpaceOnUse" x="8" y="8" width="24" height="24">
<rect x="8" y="8" width="24" height="24" fill="#D9D9D9"/>
</mask>
<g mask="url(#mask0_368_15047)">
<path d="M14.8997 12.143C15.1011 12.143 15.2792 12.2206 15.4342 12.3757L17.0092 13.9662C17.1581 14.1149 17.2341 14.2889 17.2372 14.4882C17.2404 14.6876 17.1644 14.8648 17.0092 15.02C16.8542 15.1751 16.6761 15.2527 16.4747 15.2527C16.2734 15.2527 16.0952 15.1751 15.9402 15.02L14.3497 13.445C14.2011 13.2963 14.1277 13.1197 14.1295 12.9152C14.1315 12.7107 14.2101 12.5309 14.3652 12.3757C14.5202 12.2206 14.6984 12.143 14.8997 12.143ZM21.5342 9.75847C21.6779 9.90197 21.7497 10.0801 21.7497 10.293V12.543C21.7497 12.7558 21.6779 12.9341 21.5342 13.0777C21.3907 13.2212 21.2126 13.293 20.9997 13.293C20.7869 13.293 20.6087 13.2212 20.4652 13.0777C20.3216 12.9341 20.2497 12.7558 20.2497 12.543V10.293C20.2497 10.0801 20.3216 9.90197 20.4652 9.75847C20.6087 9.6148 20.7869 9.54297 20.9997 9.54297C21.2126 9.54297 21.3907 9.6148 21.5342 9.75847ZM25.515 22.7585C25.7163 22.7585 25.8946 22.8361 26.0497 22.9912L27.6247 24.5815C27.7734 24.7301 27.8493 24.9041 27.8525 25.1035C27.8558 25.303 27.7799 25.4802 27.6247 25.6352C27.4696 25.7904 27.2913 25.868 27.09 25.868C26.8888 25.868 26.7107 25.7904 26.5555 25.6352L24.9652 24.0602C24.8164 23.9116 24.743 23.735 24.745 23.5305C24.7468 23.326 24.8253 23.1462 24.9805 22.9912C25.1357 22.8361 25.3138 22.7585 25.515 22.7585ZM28.0497 12.718C28.0497 12.9193 27.9722 13.0976 27.817 13.2527L26.2267 14.843C26.0779 14.9916 25.9038 15.0651 25.7045 15.0632C25.5052 15.0612 25.3279 14.9827 25.1727 14.8277C25.0177 14.6726 24.9402 14.4943 24.9402 14.293C24.9402 14.0918 25.0177 13.9136 25.1727 13.7585L26.7477 12.1835C26.8966 12.0348 27.0732 11.9588 27.2777 11.9555C27.4821 11.9523 27.6618 12.0283 27.817 12.1835C27.9722 12.3386 28.0497 12.5168 28.0497 12.718ZM30.242 19.5352C30.0985 19.6789 29.9203 19.7507 29.7075 19.7507H27.4575C27.2447 19.7507 27.0664 19.6789 26.9227 19.5352C26.7792 19.3917 26.7075 19.2136 26.7075 19.0007C26.7075 18.7879 26.7792 18.6097 26.9227 18.4662C27.0664 18.3226 27.2447 18.2507 27.4575 18.2507H29.7075C29.9203 18.2507 30.0985 18.3226 30.242 18.4662C30.3857 18.6097 30.4575 18.7879 30.4575 19.0007C30.4575 19.2136 30.3857 19.3917 30.242 19.5352ZM13.144 29.1045L10.8862 26.847C10.7056 26.6661 10.6152 26.4552 10.6152 26.2142C10.6152 25.9732 10.7056 25.7623 10.8862 25.5815L19.6825 16.77C20.1697 16.2828 20.7594 16.0392 21.4517 16.0392C22.1439 16.0392 22.7336 16.2828 23.2207 16.77C23.7081 17.2571 23.9517 17.8469 23.9517 18.5392C23.9517 19.2316 23.7081 19.8213 23.2207 20.3085L14.4092 29.1045C14.2286 29.2853 14.0177 29.3757 13.7767 29.3757C13.5357 29.3757 13.3248 29.2853 13.144 29.1045ZM20.0517 21.3642L22.1517 19.2392C22.3517 19.0392 22.4517 18.8059 22.4517 18.5392C22.4517 18.2726 22.3517 18.0392 22.1517 17.8392C21.9581 17.6456 21.7247 17.5487 21.4517 17.5487C21.1786 17.5487 20.9452 17.6456 20.7517 17.8392L18.6267 19.9642L20.0517 21.3642Z" fill="#A855F7"/>
</g>
</g>
<defs>
<clipPath id="clip0_368_15047">
<path d="M0 16C0 10.3995 0 7.59921 1.08993 5.46009C2.04867 3.57847 3.57847 2.04867 5.46009 1.08993C7.59921 0 10.3995 0 16 0H24C29.6005 0 32.4008 0 34.5399 1.08993C36.4215 2.04867 37.9513 3.57847 38.9101 5.46009C40 7.59921 40 10.3995 40 16V24C40 29.6005 40 32.4008 38.9101 34.5399C37.9513 36.4215 36.4215 37.9513 34.5399 38.9101C32.4008 40 29.6005 40 24 40H16C10.3995 40 7.59921 40 5.46009 38.9101C3.57847 37.9513 2.04867 36.4215 1.08993 34.5399C0 32.4008 0 29.6005 0 24V16Z" fill="white"/>
</clipPath>
</defs>
</svg>
