<svg width="24" height="24" viewBox="0 0 24 24" fill="none" xmlns="http://www.w3.org/2000/svg">
<mask id="mask0_368_13314" style="mask-type:alpha" maskUnits="userSpaceOnUse" x="0" y="0" width="24" height="24">
<rect width="24" height="24" fill="#D9D9D9"/>
</mask>
<g mask="url(#mask0_368_13314)">
<path d="M18.7889 22.1819C18.5646 22.1819 18.3601 22.1283 18.1754 22.0212C17.9907 21.9142 17.8446 21.7671 17.7369 21.5799C15.7522 21.2261 14.0099 20.3341 12.5099 18.9039C11.0101 17.4737 9.95816 15.6927 9.35416 13.5607C7.80549 14.2338 6.54332 15.2246 5.56766 16.5329C4.59199 17.8412 4.00607 19.3121 3.80991 20.9454C3.78307 21.1646 3.69782 21.3533 3.55416 21.5117C3.41066 21.67 3.22924 21.7492 3.00991 21.7492C2.79074 21.7492 2.61099 21.6658 2.47066 21.4992C2.33032 21.3325 2.27357 21.1363 2.30041 20.9107C2.48374 18.9133 3.17224 17.1277 4.36591 15.5539C5.55941 13.9802 7.11066 12.8127 9.01966 12.0512C8.66966 10.2242 8.61966 8.54782 8.86966 7.02216C9.11966 5.49666 9.66641 4.25891 10.5099 3.30891C10.4972 3.28324 10.4861 3.25757 10.4764 3.23191C10.4667 3.20624 10.4619 3.17741 10.4619 3.14541C10.4824 2.80941 10.6119 2.52474 10.8504 2.29141C11.0889 2.05807 11.3761 1.94141 11.7119 1.94141C12.0581 1.94141 12.3529 2.06324 12.5964 2.30691C12.8401 2.55041 12.9619 2.84524 12.9619 3.19141C12.9619 3.53757 12.8401 3.83249 12.5964 4.07616C12.3529 4.31966 12.0581 4.44141 11.7119 4.44141H11.6167C11.5867 4.44141 11.5498 4.43307 11.5062 4.41641C11.0753 4.96141 10.7548 5.60374 10.5447 6.34341C10.3343 7.08324 10.2311 7.94032 10.2349 8.91466C10.5106 8.47232 10.8612 8.09349 11.2869 7.77816C11.7126 7.46266 12.2049 7.20941 12.7639 7.01841C13.2574 6.85307 13.7965 6.73674 14.3812 6.66941C14.9658 6.60207 15.594 6.58382 16.2657 6.61466C16.3798 6.48132 16.5122 6.37907 16.6629 6.30791C16.8136 6.23674 16.9773 6.20116 17.1542 6.20116C17.5003 6.20116 17.7952 6.32291 18.0389 6.56641C18.2824 6.81007 18.4042 7.10499 18.4042 7.45116C18.4042 7.79732 18.2824 8.09216 18.0389 8.33566C17.7952 8.57932 17.5003 8.70116 17.1542 8.70116C16.9402 8.70116 16.7382 8.65016 16.5484 8.54816C16.3587 8.44632 16.2101 8.30174 16.1024 8.11441C15.4946 8.09391 14.9269 8.11574 14.3994 8.17991C13.8719 8.24407 13.4017 8.35557 12.9889 8.51441C12.3004 8.77607 11.7751 9.15691 11.4129 9.65691C11.0507 10.1569 10.8453 10.7832 10.7967 11.5357C11.2888 11.4267 11.7455 11.3501 12.1667 11.3059C12.5878 11.2617 13.2491 11.2397 14.1504 11.2397C14.2646 11.0858 14.4047 10.9656 14.5707 10.8789C14.7367 10.7924 14.9183 10.7492 15.1157 10.7492C15.4618 10.7492 15.7567 10.871 16.0004 11.1147C16.2439 11.3582 16.3657 11.653 16.3657 11.9992C16.3657 12.3453 16.2439 12.6402 16.0004 12.8837C15.7567 13.1273 15.4618 13.2492 15.1157 13.2492C14.9118 13.2492 14.7253 13.2059 14.5562 13.1194C14.387 13.0327 14.2485 12.9061 14.1407 12.7394C13.2767 12.7394 12.6379 12.7616 12.2244 12.8059C11.8109 12.8501 11.3734 12.9299 10.9119 13.0454C11.1157 13.7594 11.5632 14.3001 12.2542 14.6674C12.9452 15.0347 13.876 15.2287 15.0467 15.2492C15.485 15.2697 15.9577 15.2582 16.4649 15.2147C16.9719 15.171 17.4863 15.1056 18.0082 15.0184C18.1158 14.8107 18.2687 14.6467 18.4667 14.5262C18.6648 14.4057 18.8812 14.3454 19.1157 14.3454C19.4618 14.3454 19.7567 14.4672 20.0004 14.7107C20.2439 14.9543 20.3657 15.2492 20.3657 15.5954C20.3657 15.9416 20.2439 16.2364 20.0004 16.4799C19.7567 16.7236 19.4618 16.8454 19.1157 16.8454C18.9555 16.8454 18.8077 16.8156 18.6724 16.7559C18.5372 16.6962 18.4126 16.61 18.2984 16.4972C17.7639 16.5843 17.2482 16.6523 16.7514 16.7012C16.2546 16.7498 15.7869 16.7742 15.3484 16.7742C14.7177 16.7742 14.1392 16.7235 13.6129 16.6222C13.0866 16.5208 12.6125 16.3657 12.1907 16.1569C12.8497 17.2107 13.675 18.0809 14.6667 18.7674C15.6583 19.4539 16.7311 19.9017 17.8849 20.1107C17.9991 19.971 18.1341 19.8646 18.2899 19.7914C18.4456 19.7184 18.6119 19.6819 18.7889 19.6819C19.1351 19.6819 19.4299 19.8037 19.6734 20.0472C19.9171 20.2908 20.0389 20.5857 20.0389 20.9319C20.0389 21.2781 19.9171 21.5729 19.6734 21.8164C19.4299 22.0601 19.1351 22.1819 18.7889 22.1819Z" fill="#F97316"/>
</g>
</svg>
