<svg width="32" height="32" viewBox="0 0 32 32" fill="none" xmlns="http://www.w3.org/2000/svg">
<g clip-path="url(#clip0_365_8660)">
<path d="M0 12.8C0 8.31958 0 6.07937 0.871948 4.36808C1.63893 2.86278 2.86278 1.63893 4.36808 0.871948C6.07937 0 8.31958 0 12.8 0H19.2C23.6804 0 25.9206 0 27.6319 0.871948C29.1372 1.63893 30.3611 2.86278 31.1281 4.36808C32 6.07937 32 8.31958 32 12.8V19.2C32 23.6804 32 25.9206 31.1281 27.6319C30.3611 29.1372 29.1372 30.3611 27.6319 31.1281C25.9206 32 23.6804 32 19.2 32H12.8C8.31958 32 6.07937 32 4.36808 31.1281C2.86278 30.3611 1.63893 29.1372 0.871948 27.6319C0 25.9206 0 23.6804 0 19.2V12.8Z" fill="#F97316"/>
<g opacity="0.25" style="mix-blend-mode:multiply">
<circle cx="26" cy="37" r="27" fill="#F97316"/>
</g>
<g opacity="0.25" style="mix-blend-mode:multiply">
<circle cx="26" cy="47" r="27" fill="#F97316"/>
</g>
<mask id="mask0_365_8660" style="mask-type:alpha" maskUnits="userSpaceOnUse" x="4" y="4" width="24" height="24">
<rect x="4" y="4" width="24" height="24" fill="#D9D9D9"/>
</mask>
<g mask="url(#mask0_365_8660)">
<path d="M22.7889 26.1819C22.5646 26.1819 22.3601 26.1283 22.1754 26.0212C21.9907 25.9142 21.8446 25.7671 21.7369 25.5799C19.7522 25.2261 18.0099 24.3341 16.5099 22.9039C15.0101 21.4737 13.9582 19.6927 13.3542 17.5607C11.8055 18.2338 10.5433 19.2246 9.56766 20.5329C8.59199 21.8412 8.00607 23.3121 7.80991 24.9454C7.78307 25.1646 7.69782 25.3533 7.55416 25.5117C7.41066 25.67 7.22924 25.7492 7.00991 25.7492C6.79074 25.7492 6.61099 25.6658 6.47066 25.4992C6.33032 25.3325 6.27357 25.1363 6.30041 24.9107C6.48374 22.9133 7.17224 21.1277 8.36591 19.5539C9.55941 17.9802 11.1107 16.8127 13.0197 16.0512C12.6697 14.2242 12.6197 12.5478 12.8697 11.0222C13.1197 9.49666 13.6664 8.25891 14.5099 7.30891C14.4972 7.28324 14.4861 7.25757 14.4764 7.23191C14.4667 7.20624 14.4619 7.17741 14.4619 7.14541C14.4824 6.80941 14.6119 6.52474 14.8504 6.29141C15.0889 6.05807 15.3761 5.94141 15.7119 5.94141C16.0581 5.94141 16.3529 6.06324 16.5964 6.30691C16.8401 6.55041 16.9619 6.84524 16.9619 7.19141C16.9619 7.53757 16.8401 7.83249 16.5964 8.07616C16.3529 8.31966 16.0581 8.44141 15.7119 8.44141H15.6167C15.5867 8.44141 15.5498 8.43307 15.5062 8.41641C15.0753 8.96141 14.7548 9.60374 14.5447 10.3434C14.3343 11.0832 14.2311 11.9403 14.2349 12.9147C14.5106 12.4723 14.8612 12.0935 15.2869 11.7782C15.7126 11.4627 16.2049 11.2094 16.7639 11.0184C17.2574 10.8531 17.7965 10.7367 18.3812 10.6694C18.9658 10.6021 19.594 10.5838 20.2657 10.6147C20.3798 10.4813 20.5122 10.3791 20.6629 10.3079C20.8136 10.2367 20.9773 10.2012 21.1542 10.2012C21.5003 10.2012 21.7952 10.3229 22.0389 10.5664C22.2824 10.8101 22.4042 11.105 22.4042 11.4512C22.4042 11.7973 22.2824 12.0922 22.0389 12.3357C21.7952 12.5793 21.5003 12.7012 21.1542 12.7012C20.9402 12.7012 20.7382 12.6502 20.5484 12.5482C20.3587 12.4463 20.2101 12.3017 20.1024 12.1144C19.4946 12.0939 18.9269 12.1157 18.3994 12.1799C17.8719 12.2441 17.4017 12.3556 16.9889 12.5144C16.3004 12.7761 15.7751 13.1569 15.4129 13.6569C15.0507 14.1569 14.8453 14.7832 14.7967 15.5357C15.2888 15.4267 15.7455 15.3501 16.1667 15.3059C16.5878 15.2617 17.2491 15.2397 18.1504 15.2397C18.2646 15.0858 18.4047 14.9656 18.5707 14.8789C18.7367 14.7924 18.9183 14.7492 19.1157 14.7492C19.4618 14.7492 19.7567 14.871 20.0004 15.1147C20.2439 15.3582 20.3657 15.653 20.3657 15.9992C20.3657 16.3453 20.2439 16.6402 20.0004 16.8837C19.7567 17.1273 19.4618 17.2492 19.1157 17.2492C18.9118 17.2492 18.7253 17.2059 18.5562 17.1194C18.387 17.0327 18.2485 16.9061 18.1407 16.7394C17.2767 16.7394 16.6379 16.7616 16.2244 16.8059C15.8109 16.8501 15.3734 16.9299 14.9119 17.0454C15.1157 17.7594 15.5632 18.3001 16.2542 18.6674C16.9452 19.0347 17.876 19.2287 19.0467 19.2492C19.485 19.2697 19.9577 19.2582 20.4649 19.2147C20.9719 19.171 21.4863 19.1056 22.0082 19.0184C22.1158 18.8107 22.2687 18.6467 22.4667 18.5262C22.6648 18.4057 22.8812 18.3454 23.1157 18.3454C23.4618 18.3454 23.7567 18.4672 24.0004 18.7107C24.2439 18.9543 24.3657 19.2492 24.3657 19.5954C24.3657 19.9416 24.2439 20.2364 24.0004 20.4799C23.7567 20.7236 23.4618 20.8454 23.1157 20.8454C22.9555 20.8454 22.8077 20.8156 22.6724 20.7559C22.5372 20.6962 22.4126 20.61 22.2984 20.4972C21.7639 20.5843 21.2482 20.6523 20.7514 20.7012C20.2546 20.7498 19.7869 20.7742 19.3484 20.7742C18.7177 20.7742 18.1392 20.7235 17.6129 20.6222C17.0866 20.5208 16.6125 20.3657 16.1907 20.1569C16.8497 21.2107 17.675 22.0809 18.6667 22.7674C19.6583 23.4539 20.7311 23.9017 21.8849 24.1107C21.9991 23.971 22.1341 23.8646 22.2899 23.7914C22.4456 23.7184 22.6119 23.6819 22.7889 23.6819C23.1351 23.6819 23.4299 23.8037 23.6734 24.0472C23.9171 24.2908 24.0389 24.5857 24.0389 24.9319C24.0389 25.2781 23.9171 25.5729 23.6734 25.8164C23.4299 26.0601 23.1351 26.1819 22.7889 26.1819Z" fill="white"/>
</g>
</g>
<defs>
<clipPath id="clip0_365_8660">
<path d="M0 12.8C0 8.31958 0 6.07937 0.871948 4.36808C1.63893 2.86278 2.86278 1.63893 4.36808 0.871948C6.07937 0 8.31958 0 12.8 0H19.2C23.6804 0 25.9206 0 27.6319 0.871948C29.1372 1.63893 30.3611 2.86278 31.1281 4.36808C32 6.07937 32 8.31958 32 12.8V19.2C32 23.6804 32 25.9206 31.1281 27.6319C30.3611 29.1372 29.1372 30.3611 27.6319 31.1281C25.9206 32 23.6804 32 19.2 32H12.8C8.31958 32 6.07937 32 4.36808 31.1281C2.86278 30.3611 1.63893 29.1372 0.871948 27.6319C0 25.9206 0 23.6804 0 19.2V12.8Z" fill="white"/>
</clipPath>
</defs>
</svg>
