<svg width="32" height="32" viewBox="0 0 32 32" fill="none" xmlns="http://www.w3.org/2000/svg">
<g clip-path="url(#clip0_365_8706)">
<path d="M0 12.8C0 8.31958 0 6.07937 0.871948 4.36808C1.63893 2.86278 2.86278 1.63893 4.36808 0.871948C6.07937 0 8.31958 0 12.8 0H19.2C23.6804 0 25.9206 0 27.6319 0.871948C29.1372 1.63893 30.3611 2.86278 31.1281 4.36808C32 6.07937 32 8.31958 32 12.8V19.2C32 23.6804 32 25.9206 31.1281 27.6319C30.3611 29.1372 29.1372 30.3611 27.6319 31.1281C25.9206 32 23.6804 32 19.2 32H12.8C8.31958 32 6.07937 32 4.36808 31.1281C2.86278 30.3611 1.63893 29.1372 0.871948 27.6319C0 25.9206 0 23.6804 0 19.2V12.8Z" fill="#737373"/>
<g opacity="0.25" style="mix-blend-mode:multiply">
<circle cx="26" cy="47" r="27" fill="#737373"/>
</g>
<g opacity="0.25" style="mix-blend-mode:multiply">
<circle cx="26" cy="37" r="27" fill="#737373"/>
</g>
<mask id="mask0_365_8706" style="mask-type:alpha" maskUnits="userSpaceOnUse" x="4" y="4" width="24" height="24">
<rect x="4" y="4" width="24" height="24" fill="#D9D9D9"/>
</mask>
<g mask="url(#mask0_365_8706)">
<path d="M14.8927 25.5C14.5517 25.5 14.2572 25.3868 14.0092 25.1605C13.7611 24.9343 13.6101 24.6558 13.5562 24.325L13.312 22.4538C13.0441 22.3641 12.7695 22.2385 12.488 22.077C12.2066 21.9153 11.9551 21.7422 11.7332 21.5577L10.0005 22.2943C9.68632 22.4328 9.37065 22.4462 9.05348 22.3345C8.73615 22.223 8.48965 22.0205 8.31398 21.727L7.18698 19.773C7.01132 19.4795 6.96073 19.1689 7.03523 18.8413C7.10957 18.5138 7.28007 18.2436 7.54673 18.0308L9.04473 16.9058C9.02173 16.7571 9.0054 16.6078 8.99573 16.4578C8.98607 16.3078 8.98123 16.1583 8.98123 16.0095C8.98123 15.8673 8.98607 15.7228 8.99573 15.576C9.0054 15.4292 9.02173 15.2686 9.04473 15.0943L7.54673 13.9693C7.28007 13.7564 7.11115 13.4846 7.03998 13.1538C6.96882 12.8231 7.02107 12.5109 7.19673 12.2173L8.31398 10.2923C8.48965 10.0051 8.73615 9.80417 9.05348 9.6895C9.37065 9.57467 9.68632 9.5865 10.0005 9.725L11.7235 10.452C11.9646 10.261 12.2221 10.0863 12.4957 9.928C12.7694 9.76967 13.0383 9.64242 13.3025 9.54625L13.5562 7.675C13.6101 7.34417 13.7611 7.06567 14.0092 6.8395C14.2572 6.61317 14.5517 6.5 14.8927 6.5H17.1082C17.4492 6.5 17.7437 6.61317 17.9917 6.8395C18.2399 7.06567 18.3909 7.34417 18.4447 7.675L18.689 9.55575C18.989 9.66475 19.2604 9.792 19.5032 9.9375C19.7462 10.083 19.9915 10.2545 20.239 10.452L22.0102 9.725C22.3242 9.5865 22.6399 9.57467 22.9572 9.6895C23.2746 9.80417 23.521 10.0051 23.6965 10.2923L24.814 12.227C24.9896 12.5205 25.0402 12.8311 24.9657 13.1587C24.8914 13.4862 24.7209 13.7564 24.4542 13.9693L22.9177 15.123C22.9536 15.2845 22.9731 15.4355 22.9765 15.576C22.9796 15.7163 22.9812 15.8577 22.9812 16C22.9812 16.1358 22.978 16.274 22.9715 16.4145C22.9651 16.5548 22.9421 16.7154 22.9025 16.8963L24.41 18.0308C24.6766 18.2436 24.8488 18.5138 24.9265 18.8413C25.004 19.1689 24.9549 19.4795 24.7792 19.773L23.6465 21.7172C23.471 22.0109 23.223 22.2135 22.9025 22.325C22.582 22.4365 22.2646 22.423 21.9505 22.2845L20.239 21.548C19.9915 21.7455 19.7389 21.9202 19.4812 22.072C19.2236 22.224 18.9595 22.3481 18.689 22.4443L18.4447 24.325C18.3909 24.6558 18.2399 24.9343 17.9917 25.1605C17.7437 25.3868 17.4492 25.5 17.1082 25.5H14.8927ZM16.012 19C16.844 19 17.552 18.708 18.136 18.124C18.72 17.54 19.012 16.832 19.012 16C19.012 15.168 18.72 14.46 18.136 13.876C17.552 13.292 16.844 13 16.012 13C15.1696 13 14.4591 13.292 13.8802 13.876C13.3014 14.46 13.012 15.168 13.012 16C13.012 16.832 13.3014 17.54 13.8802 18.124C14.4591 18.708 15.1696 19 16.012 19Z" fill="white"/>
</g>
</g>
<defs>
<clipPath id="clip0_365_8706">
<path d="M0 12.8C0 8.31958 0 6.07937 0.871948 4.36808C1.63893 2.86278 2.86278 1.63893 4.36808 0.871948C6.07937 0 8.31958 0 12.8 0H19.2C23.6804 0 25.9206 0 27.6319 0.871948C29.1372 1.63893 30.3611 2.86278 31.1281 4.36808C32 6.07937 32 8.31958 32 12.8V19.2C32 23.6804 32 25.9206 31.1281 27.6319C30.3611 29.1372 29.1372 30.3611 27.6319 31.1281C25.9206 32 23.6804 32 19.2 32H12.8C8.31958 32 6.07937 32 4.36808 31.1281C2.86278 30.3611 1.63893 29.1372 0.871948 27.6319C0 25.9206 0 23.6804 0 19.2V12.8Z" fill="white"/>
</clipPath>
</defs>
</svg>
