<svg width="40" height="40" viewBox="0 0 40 40" fill="none" xmlns="http://www.w3.org/2000/svg">
<g clip-path="url(#clip0_368_15029)">
<path d="M0 16C0 10.3995 0 7.59921 1.08993 5.46009C2.04867 3.57847 3.57847 2.04867 5.46009 1.08993C7.59921 0 10.3995 0 16 0H24C29.6005 0 32.4008 0 34.5399 1.08993C36.4215 2.04867 37.9513 3.57847 38.9101 5.46009C40 7.59921 40 10.3995 40 16V24C40 29.6005 40 32.4008 38.9101 34.5399C37.9513 36.4215 36.4215 37.9513 34.5399 38.9101C32.4008 40 29.6005 40 24 40H16C10.3995 40 7.59921 40 5.46009 38.9101C3.57847 37.9513 2.04867 36.4215 1.08993 34.5399C0 32.4008 0 29.6005 0 24V16Z" fill="#DCFCE7"/>
<circle cx="32.5" cy="46.25" r="33.75" fill="#DCFCE7"/>
<circle cx="32.5" cy="58.752" r="33.75" fill="#DCFCE7"/>
<mask id="mask0_368_15029" style="mask-type:alpha" maskUnits="userSpaceOnUse" x="8" y="8" width="24" height="24">
<rect x="8" y="8" width="24" height="24" fill="#D9D9D9"/>
</mask>
<g mask="url(#mask0_368_15029)">
<path d="M14.5 27.5006C13.118 27.5006 11.9392 27.0205 10.9635 26.0601C9.98783 25.1 9.5 23.9289 9.5 22.5469C9.5 21.3237 9.89167 20.2359 10.675 19.2834C11.4583 18.3307 12.4577 17.7672 13.673 17.5929C13.973 16.2237 14.6342 15.0808 15.6567 14.1641C16.6792 13.2475 17.877 12.7084 19.25 12.5469V20.7469L17.9462 19.4584C17.8077 19.3199 17.6362 19.249 17.4317 19.2459C17.2272 19.2427 17.0474 19.3186 16.8923 19.4736C16.7474 19.6186 16.675 19.7943 16.675 20.0006C16.675 20.207 16.7474 20.3826 16.8923 20.5276L19.3673 23.0026C19.5481 23.1833 19.759 23.2736 20 23.2736C20.241 23.2736 20.4519 23.1833 20.6328 23.0026L23.1077 20.5276C23.2461 20.3891 23.3194 20.2176 23.3278 20.0131C23.3361 19.8086 23.2627 19.6288 23.1077 19.4736C22.9627 19.3288 22.7897 19.2538 22.5885 19.2486C22.3872 19.2436 22.2089 19.3135 22.0538 19.4584L20.75 20.7469V12.5469C22.3833 12.7545 23.75 13.4645 24.85 14.6766C25.95 15.8888 26.5 17.3301 26.5 19.0006V19.5006H26.8078C27.8616 19.5826 28.7404 20.0064 29.4443 20.7719C30.1481 21.5372 30.5 22.4468 30.5 23.5006C30.5 24.616 30.1122 25.5615 29.3365 26.3371C28.5608 27.1128 27.6153 27.5006 26.5 27.5006H14.5Z" fill="#22C55E"/>
</g>
</g>
<defs>
<clipPath id="clip0_368_15029">
<path d="M0 16C0 10.3995 0 7.59921 1.08993 5.46009C2.04867 3.57847 3.57847 2.04867 5.46009 1.08993C7.59921 0 10.3995 0 16 0H24C29.6005 0 32.4008 0 34.5399 1.08993C36.4215 2.04867 37.9513 3.57847 38.9101 5.46009C40 7.59921 40 10.3995 40 16V24C40 29.6005 40 32.4008 38.9101 34.5399C37.9513 36.4215 36.4215 37.9513 34.5399 38.9101C32.4008 40 29.6005 40 24 40H16C10.3995 40 7.59921 40 5.46009 38.9101C3.57847 37.9513 2.04867 36.4215 1.08993 34.5399C0 32.4008 0 29.6005 0 24V16Z" fill="white"/>
</clipPath>
</defs>
</svg>
