<svg width="32" height="32" viewBox="0 0 32 32" fill="none" xmlns="http://www.w3.org/2000/svg">
<g clip-path="url(#clip0_365_8654)">
<path d="M0 12.8C0 8.31958 0 6.07937 0.871948 4.36808C1.63893 2.86278 2.86278 1.63893 4.36808 0.871948C6.07937 0 8.31958 0 12.8 0H19.2C23.6804 0 25.9206 0 27.6319 0.871948C29.1372 1.63893 30.3611 2.86278 31.1281 4.36808C32 6.07937 32 8.31958 32 12.8V19.2C32 23.6804 32 25.9206 31.1281 27.6319C30.3611 29.1372 29.1372 30.3611 27.6319 31.1281C25.9206 32 23.6804 32 19.2 32H12.8C8.31958 32 6.07937 32 4.36808 31.1281C2.86278 30.3611 1.63893 29.1372 0.871948 27.6319C0 25.9206 0 23.6804 0 19.2V12.8Z" fill="#F43F5E"/>
<g opacity="0.25" style="mix-blend-mode:multiply">
<circle cx="26" cy="47" r="27" fill="#F43F5E"/>
</g>
<g opacity="0.25" style="mix-blend-mode:multiply">
<circle cx="26" cy="37" r="27" fill="#F43F5E"/>
</g>
<mask id="mask0_365_8654" style="mask-type:alpha" maskUnits="userSpaceOnUse" x="4" y="4" width="24" height="24">
<rect x="4" y="4" width="24" height="24" fill="#D9D9D9"/>
</mask>
<g mask="url(#mask0_365_8654)">
<path d="M13 22.3652H19C19.2128 22.3652 19.391 22.2935 19.5345 22.15C19.6782 22.0063 19.75 21.8281 19.75 21.6152C19.75 21.4026 19.6782 21.2244 19.5345 21.0807C19.391 20.9371 19.2128 20.8652 19 20.8652H13C12.7872 20.8652 12.609 20.9371 12.4655 21.0807C12.3218 21.2244 12.25 21.4026 12.25 21.6152C12.25 21.8281 12.3218 22.0063 12.4655 22.15C12.609 22.2935 12.7872 22.3652 13 22.3652ZM13 19.5577H19C19.2128 19.5577 19.391 19.4859 19.5345 19.3422C19.6782 19.1987 19.75 19.0206 19.75 18.8077C19.75 18.5949 19.6782 18.4167 19.5345 18.273C19.391 18.1295 19.2128 18.0577 19 18.0577H13C12.7872 18.0577 12.609 18.1295 12.4655 18.273C12.3218 18.4167 12.25 18.5949 12.25 18.8077C12.25 19.0206 12.3218 19.1987 12.4655 19.3422C12.609 19.4859 12.7872 19.5577 13 19.5577ZM16 10.5885C15.768 10.3 15.5103 10.0689 15.227 9.89525C14.9437 9.72158 14.6013 9.63475 14.2 9.63475C13.6642 9.63475 13.2052 9.82575 12.823 10.2078C12.441 10.5898 12.25 11.0488 12.25 11.5848C12.25 12.4359 12.6327 13.2157 13.398 13.924C14.1635 14.6323 14.8283 15.2436 15.3923 15.7578C15.5564 15.9218 15.759 16.0037 16 16.0037C16.241 16.0037 16.4436 15.9218 16.6077 15.7578C17.1717 15.2501 17.8365 14.6404 18.602 13.9288C19.3673 13.2173 19.75 12.4359 19.75 11.5848C19.75 11.0488 19.559 10.5898 19.177 10.2078C18.7948 9.82575 18.3358 9.63475 17.8 9.63475C17.3987 9.63475 17.0563 9.72158 16.773 9.89525C16.4897 10.0689 16.232 10.3 16 10.5885ZM21.6923 25.5H10.3077C9.80258 25.5 9.375 25.325 9.025 24.975C8.675 24.625 8.5 24.1974 8.5 23.6923V8.30775C8.5 7.80258 8.675 7.375 9.025 7.025C9.375 6.675 9.80258 6.5 10.3077 6.5H21.6923C22.1974 6.5 22.625 6.675 22.975 7.025C23.325 7.375 23.5 7.80258 23.5 8.30775V23.6923C23.5 24.1974 23.325 24.625 22.975 24.975C22.625 25.325 22.1974 25.5 21.6923 25.5Z" fill="white"/>
</g>
</g>
<defs>
<clipPath id="clip0_365_8654">
<path d="M0 12.8C0 8.31958 0 6.07937 0.871948 4.36808C1.63893 2.86278 2.86278 1.63893 4.36808 0.871948C6.07937 0 8.31958 0 12.8 0H19.2C23.6804 0 25.9206 0 27.6319 0.871948C29.1372 1.63893 30.3611 2.86278 31.1281 4.36808C32 6.07937 32 8.31958 32 12.8V19.2C32 23.6804 32 25.9206 31.1281 27.6319C30.3611 29.1372 29.1372 30.3611 27.6319 31.1281C25.9206 32 23.6804 32 19.2 32H12.8C8.31958 32 6.07937 32 4.36808 31.1281C2.86278 30.3611 1.63893 29.1372 0.871948 27.6319C0 25.9206 0 23.6804 0 19.2V12.8Z" fill="white"/>
</clipPath>
</defs>
</svg>
