<svg width="32" height="32" viewBox="0 0 32 32" fill="none" xmlns="http://www.w3.org/2000/svg">
<g clip-path="url(#clip0_365_8712)">
<path d="M0 12.8C0 8.31958 0 6.07937 0.871948 4.36808C1.63893 2.86278 2.86278 1.63893 4.36808 0.871948C6.07937 0 8.31958 0 12.8 0H19.2C23.6804 0 25.9206 0 27.6319 0.871948C29.1372 1.63893 30.3611 2.86278 31.1281 4.36808C32 6.07937 32 8.31958 32 12.8V19.2C32 23.6804 32 25.9206 31.1281 27.6319C30.3611 29.1372 29.1372 30.3611 27.6319 31.1281C25.9206 32 23.6804 32 19.2 32H12.8C8.31958 32 6.07937 32 4.36808 31.1281C2.86278 30.3611 1.63893 29.1372 0.871948 27.6319C0 25.9206 0 23.6804 0 19.2V12.8Z" fill="#6366F1"/>
<g opacity="0.25" style="mix-blend-mode:multiply">
<circle cx="26" cy="47.5" r="27" fill="#6366F1"/>
</g>
<g opacity="0.25" style="mix-blend-mode:multiply">
<circle cx="26" cy="37.5" r="27" fill="#6366F1"/>
</g>
<mask id="mask0_365_8712" style="mask-type:alpha" maskUnits="userSpaceOnUse" x="4" y="4" width="24" height="24">
<rect x="4" y="4" width="24" height="24" fill="#D9D9D9"/>
</mask>
<g mask="url(#mask0_365_8712)">
<path d="M10.3077 25.5C9.81058 25.5 9.385 25.323 9.031 24.969C8.677 24.615 8.5 24.1894 8.5 23.6923V14.3077C8.5 13.8106 8.677 13.385 9.031 13.031C9.385 12.677 9.81058 12.5 10.3077 12.5H11.5V10.5C11.5 9.25133 11.9378 8.18917 12.8135 7.3135C13.6892 6.43783 14.7513 6 16 6C17.2487 6 18.3108 6.43783 19.1865 7.3135C20.0622 8.18917 20.5 9.25133 20.5 10.5V12.5H21.6923C22.1894 12.5 22.615 12.677 22.969 13.031C23.323 13.385 23.5 13.8106 23.5 14.3077V23.6923C23.5 24.1894 23.323 24.615 22.969 24.969C22.615 25.323 22.1894 25.5 21.6923 25.5H10.3077ZM17.2395 20.2395C17.5798 19.899 17.75 19.4858 17.75 19C17.75 18.5142 17.5798 18.101 17.2395 17.7605C16.899 17.4202 16.4858 17.25 16 17.25C15.5142 17.25 15.101 17.4202 14.7605 17.7605C14.4202 18.101 14.25 18.5142 14.25 19C14.25 19.4858 14.4202 19.899 14.7605 20.2395C15.101 20.5798 15.5142 20.75 16 20.75C16.4858 20.75 16.899 20.5798 17.2395 20.2395ZM13 12.5H19V10.5C19 9.66667 18.7083 8.95833 18.125 8.375C17.5417 7.79167 16.8333 7.5 16 7.5C15.1667 7.5 14.4583 7.79167 13.875 8.375C13.2917 8.95833 13 9.66667 13 10.5V12.5Z" fill="white"/>
</g>
</g>
<defs>
<clipPath id="clip0_365_8712">
<path d="M0 12.8C0 8.31958 0 6.07937 0.871948 4.36808C1.63893 2.86278 2.86278 1.63893 4.36808 0.871948C6.07937 0 8.31958 0 12.8 0H19.2C23.6804 0 25.9206 0 27.6319 0.871948C29.1372 1.63893 30.3611 2.86278 31.1281 4.36808C32 6.07937 32 8.31958 32 12.8V19.2C32 23.6804 32 25.9206 31.1281 27.6319C30.3611 29.1372 29.1372 30.3611 27.6319 31.1281C25.9206 32 23.6804 32 19.2 32H12.8C8.31958 32 6.07937 32 4.36808 31.1281C2.86278 30.3611 1.63893 29.1372 0.871948 27.6319C0 25.9206 0 23.6804 0 19.2V12.8Z" fill="white"/>
</clipPath>
</defs>
</svg>
