<svg width="32" height="32" viewBox="0 0 32 32" fill="none" xmlns="http://www.w3.org/2000/svg">
<g clip-path="url(#clip0_365_8694)">
<path d="M0 12.8C0 8.31958 0 6.07937 0.871948 4.36808C1.63893 2.86278 2.86278 1.63893 4.36808 0.871948C6.07937 0 8.31958 0 12.8 0H19.2C23.6804 0 25.9206 0 27.6319 0.871948C29.1372 1.63893 30.3611 2.86278 31.1281 4.36808C32 6.07937 32 8.31958 32 12.8V19.2C32 23.6804 32 25.9206 31.1281 27.6319C30.3611 29.1372 29.1372 30.3611 27.6319 31.1281C25.9206 32 23.6804 32 19.2 32H12.8C8.31958 32 6.07937 32 4.36808 31.1281C2.86278 30.3611 1.63893 29.1372 0.871948 27.6319C0 25.9206 0 23.6804 0 19.2V12.8Z" fill="#A855F7"/>
<g opacity="0.25" style="mix-blend-mode:multiply">
<circle cx="26" cy="37.5" r="27" fill="#A855F7"/>
</g>
<g opacity="0.25" style="mix-blend-mode:multiply">
<circle cx="26" cy="47.5" r="27" fill="#A855F7"/>
</g>
<mask id="mask0_365_8694" style="mask-type:alpha" maskUnits="userSpaceOnUse" x="4" y="4" width="24" height="24">
<rect x="4" y="4" width="24" height="24" fill="#D9D9D9"/>
</mask>
<g mask="url(#mask0_365_8694)">
<path d="M11.3077 26.5C10.8091 26.5 10.3831 26.3234 10.0298 25.9703C9.67658 25.6169 9.5 25.1909 9.5 24.6923V7.30775C9.5 6.80258 9.675 6.375 10.025 6.025C10.375 5.675 10.8026 5.5 11.3077 5.5H20.7308C21.2294 5.5 21.6553 5.67658 22.0085 6.02975C22.3618 6.38308 22.5385 6.80908 22.5385 7.30775V12.404C22.5385 12.6488 22.4522 12.8574 22.2797 13.0298C22.1072 13.2023 21.8986 13.2885 21.6538 13.2885H19.3558C18.9211 13.2885 18.539 13.4238 18.2095 13.6943C17.8802 13.9648 17.6699 14.3122 17.5788 14.7365L17.2365 16.5115C16.6237 17.0962 16.149 17.7731 15.8125 18.5423C15.476 19.3116 15.3078 20.1277 15.3078 20.9905C15.3078 21.8532 15.4751 22.673 15.8098 23.45C16.1443 24.2268 16.6231 24.9127 17.2462 25.5077C17.2834 25.6654 17.319 25.8308 17.353 26.0038C17.3868 26.1769 17.4223 26.3423 17.4595 26.5H11.3077ZM16.65 9.9C16.8192 9.73083 16.9038 9.52058 16.9038 9.26925C16.9038 9.01792 16.8192 8.80767 16.65 8.6385C16.4808 8.46933 16.2706 8.38475 16.0192 8.38475C15.7679 8.38475 15.5577 8.46933 15.3885 8.6385C15.2193 8.80767 15.1348 9.01792 15.1348 9.26925C15.1348 9.52058 15.2193 9.73083 15.3885 9.9C15.5577 10.0692 15.7679 10.1538 16.0192 10.1538C16.2706 10.1538 16.4808 10.0692 16.65 9.9ZM20.4288 26.5C20.2148 26.5 20.0241 26.4349 19.8568 26.3048C19.6894 26.1746 19.584 26.0025 19.5405 25.7885L19.2423 24.296C18.7001 23.914 18.2742 23.4343 17.9645 22.8568C17.6548 22.2791 17.5 21.657 17.5 20.9905C17.5 20.3238 17.6548 19.7017 17.9645 19.124C18.2742 18.5465 18.7001 18.0668 19.2423 17.6848L19.5405 16.1923C19.584 15.9783 19.6894 15.8062 19.8568 15.676C20.0241 15.5458 20.2148 15.4808 20.4288 15.4808H22.5712C22.7852 15.4808 22.9759 15.5458 23.1432 15.676C23.3106 15.8062 23.416 15.9783 23.4595 16.1923L23.7578 17.6848C24.2999 18.0668 24.7258 18.5465 25.0355 19.124C25.3452 19.7017 25.5 20.3238 25.5 20.9905C25.5 21.657 25.3452 22.2791 25.0355 22.8568C24.7258 23.4343 24.2999 23.914 23.7578 24.296L23.4595 25.7885C23.416 26.0025 23.3106 26.1746 23.1432 26.3048C22.9759 26.4349 22.7852 26.5 22.5712 26.5H20.4288ZM23.275 22.7655C23.7583 22.2822 24 21.6905 24 20.9905C24 20.2905 23.7583 19.6988 23.275 19.2155C22.7917 18.7322 22.2 18.4905 21.5 18.4905C20.8 18.4905 20.2083 18.7322 19.725 19.2155C19.2417 19.6988 19 20.2905 19 20.9905C19 21.6905 19.2417 22.2822 19.725 22.7655C20.2083 23.2488 20.8 23.4905 21.5 23.4905C22.2 23.4905 22.7917 23.2488 23.275 22.7655Z" fill="white"/>
</g>
</g>
<defs>
<clipPath id="clip0_365_8694">
<path d="M0 12.8C0 8.31958 0 6.07937 0.871948 4.36808C1.63893 2.86278 2.86278 1.63893 4.36808 0.871948C6.07937 0 8.31958 0 12.8 0H19.2C23.6804 0 25.9206 0 27.6319 0.871948C29.1372 1.63893 30.3611 2.86278 31.1281 4.36808C32 6.07937 32 8.31958 32 12.8V19.2C32 23.6804 32 25.9206 31.1281 27.6319C30.3611 29.1372 29.1372 30.3611 27.6319 31.1281C25.9206 32 23.6804 32 19.2 32H12.8C8.31958 32 6.07937 32 4.36808 31.1281C2.86278 30.3611 1.63893 29.1372 0.871948 27.6319C0 25.9206 0 23.6804 0 19.2V12.8Z" fill="white"/>
</clipPath>
</defs>
</svg>
