<svg width="24" height="24" viewBox="0 0 24 24" fill="none" xmlns="http://www.w3.org/2000/svg">
<mask id="mask0_368_13323" style="mask-type:alpha" maskUnits="userSpaceOnUse" x="0" y="0" width="24" height="24">
<rect width="24" height="24" fill="#D9D9D9"/>
</mask>
<g mask="url(#mask0_368_13323)">
<path d="M7.30775 22.5C6.80908 22.5 6.38308 22.3234 6.02975 21.9703C5.67658 21.6169 5.5 21.1909 5.5 20.6923V3.30775C5.5 2.80258 5.675 2.375 6.025 2.025C6.375 1.675 6.80258 1.5 7.30775 1.5H16.7308C17.2294 1.5 17.6553 1.67658 18.0085 2.02975C18.3618 2.38308 18.5385 2.80908 18.5385 3.30775V8.404C18.5385 8.64883 18.4522 8.85742 18.2797 9.02975C18.1072 9.20225 17.8986 9.2885 17.6538 9.2885H15.3558C14.9211 9.2885 14.539 9.42375 14.2095 9.69425C13.8802 9.96475 13.6699 10.3122 13.5788 10.7365L13.2365 12.5115C12.6237 13.0962 12.149 13.7731 11.8125 14.5423C11.476 15.3116 11.3078 16.1277 11.3078 16.9905C11.3078 17.8532 11.4751 18.673 11.8098 19.45C12.1443 20.2268 12.6231 20.9127 13.2462 21.5077C13.2834 21.6654 13.319 21.8308 13.353 22.0038C13.3868 22.1769 13.4223 22.3423 13.4595 22.5H7.30775ZM12.65 5.9C12.8192 5.73083 12.9038 5.52058 12.9038 5.26925C12.9038 5.01792 12.8192 4.80767 12.65 4.6385C12.4808 4.46933 12.2706 4.38475 12.0192 4.38475C11.7679 4.38475 11.5577 4.46933 11.3885 4.6385C11.2193 4.80767 11.1348 5.01792 11.1348 5.26925C11.1348 5.52058 11.2193 5.73083 11.3885 5.9C11.5577 6.06917 11.7679 6.15375 12.0192 6.15375C12.2706 6.15375 12.4808 6.06917 12.65 5.9ZM16.4288 22.5C16.2148 22.5 16.0241 22.4349 15.8568 22.3048C15.6894 22.1746 15.584 22.0025 15.5405 21.7885L15.2423 20.296C14.7001 19.914 14.2742 19.4343 13.9645 18.8568C13.6548 18.2791 13.5 17.657 13.5 16.9905C13.5 16.3238 13.6548 15.7017 13.9645 15.124C14.2742 14.5465 14.7001 14.0668 15.2423 13.6848L15.5405 12.1923C15.584 11.9783 15.6894 11.8062 15.8568 11.676C16.0241 11.5458 16.2148 11.4808 16.4288 11.4808H18.5712C18.7852 11.4808 18.9759 11.5458 19.1432 11.676C19.3106 11.8062 19.416 11.9783 19.4595 12.1923L19.7578 13.6848C20.2999 14.0668 20.7258 14.5465 21.0355 15.124C21.3452 15.7017 21.5 16.3238 21.5 16.9905C21.5 17.657 21.3452 18.2791 21.0355 18.8568C20.7258 19.4343 20.2999 19.914 19.7578 20.296L19.4595 21.7885C19.416 22.0025 19.3106 22.1746 19.1432 22.3048C18.9759 22.4349 18.7852 22.5 18.5712 22.5H16.4288ZM19.275 18.7655C19.7583 18.2822 20 17.6905 20 16.9905C20 16.2905 19.7583 15.6988 19.275 15.2155C18.7917 14.7322 18.2 14.4905 17.5 14.4905C16.8 14.4905 16.2083 14.7322 15.725 15.2155C15.2417 15.6988 15 16.2905 15 16.9905C15 17.6905 15.2417 18.2822 15.725 18.7655C16.2083 19.2488 16.8 19.4905 17.5 19.4905C18.2 19.4905 18.7917 19.2488 19.275 18.7655Z" fill="#A855F7"/>
</g>
</svg>
