<svg width="16" height="16" viewBox="0 0 16 16" fill="none" xmlns="http://www.w3.org/2000/svg">
<mask id="mask0_348_18782" style="mask-type:alpha" maskUnits="userSpaceOnUse" x="0" y="0" width="16" height="16">
<rect width="16" height="16" fill="#D9D9D9"/>
</mask>
<g mask="url(#mask0_348_18782)">
<path d="M2.93616 13.6673C2.76539 13.6673 2.62227 13.6095 2.50683 13.494C2.39127 13.3785 2.3335 13.2354 2.3335 13.0646V11.9097C2.3335 11.7471 2.36472 11.5922 2.42716 11.4448C2.4895 11.2975 2.57539 11.1691 2.68483 11.0597L11.1272 2.62115C11.2279 2.5296 11.3392 2.45887 11.461 2.40898C11.5829 2.35898 11.7107 2.33398 11.8443 2.33398C11.978 2.33398 12.1074 2.35771 12.2327 2.40515C12.358 2.4526 12.4689 2.52804 12.5655 2.63148L13.3797 3.45582C13.4831 3.55237 13.5568 3.66348 13.6008 3.78915C13.6448 3.91482 13.6668 4.04048 13.6668 4.16615C13.6668 4.30026 13.6439 4.42821 13.5982 4.54998C13.5524 4.67187 13.4796 4.78321 13.3797 4.88398L4.94116 13.316C4.83172 13.4254 4.70333 13.5113 4.556 13.5737C4.40866 13.6361 4.25372 13.6673 4.09116 13.6673H2.93616ZM11.7015 5.13015L12.6668 4.17115L11.8297 3.33398L10.8707 4.29932L11.7015 5.13015Z" fill="#A3A3A3"/>
</g>
</svg>
