<svg width="24" height="24" viewBox="0 0 24 24" fill="none" xmlns="http://www.w3.org/2000/svg">
<mask id="mask0_368_13317" style="mask-type:alpha" maskUnits="userSpaceOnUse" x="0" y="0" width="24" height="24">
<rect width="24" height="24" fill="#D9D9D9"/>
</mask>
<g mask="url(#mask0_368_13317)">
<path d="M9.54885 20.9131C8.88152 20.2457 8.54785 19.4288 8.54785 18.4623C8.54785 17.6342 8.80302 16.9102 9.31335 16.2903C9.82352 15.6703 10.469 15.2726 11.2499 15.0971V12.7508H7.3076C6.81043 12.7508 6.38485 12.5738 6.03085 12.2198C5.67685 11.8658 5.49985 11.4402 5.49985 10.9431V8.95283H3.95185C3.69568 8.95283 3.48102 8.86616 3.30785 8.69283C3.13452 8.51966 3.04785 8.30499 3.04785 8.04883V3.45658C3.04785 3.19641 3.13452 2.98008 3.30785 2.80758C3.48102 2.63508 3.69568 2.54883 3.95185 2.54883H8.5441C8.80427 2.54883 9.0206 2.6355 9.1931 2.80883C9.3656 2.982 9.45185 3.19666 9.45185 3.45283V8.04508C9.45185 8.30525 9.36518 8.52158 9.19185 8.69408C9.01868 8.86658 8.80402 8.95283 8.54785 8.95283H6.99985V10.9431C6.99985 11.0329 7.02868 11.1067 7.08635 11.1643C7.14402 11.222 7.21777 11.2508 7.3076 11.2508H16.6921C16.7819 11.2508 16.8557 11.222 16.9134 11.1643C16.971 11.1067 16.9999 11.0329 16.9999 10.9431V8.86633C16.219 8.69066 15.5735 8.29291 15.0634 7.67308C14.553 7.05308 14.2979 6.329 14.2979 5.50083C14.2979 4.53433 14.6316 3.71741 15.2991 3.05008C15.9664 2.38258 16.7834 2.04883 17.7499 2.04883C18.7165 2.04883 19.5335 2.38258 20.2009 3.05008C20.8682 3.71741 21.2019 4.53433 21.2019 5.50083C21.2019 6.329 20.9467 7.05308 20.4364 7.67308C19.926 8.29291 19.2805 8.69066 18.4999 8.86633V10.9431C18.4999 11.4402 18.3229 11.8658 17.9689 12.2198C17.6149 12.5738 17.1893 12.7508 16.6921 12.7508H12.7499V15.0971C13.5307 15.2726 14.1762 15.6703 14.6864 16.2903C15.1967 16.9102 15.4519 17.6342 15.4519 18.4623C15.4519 19.4288 15.1181 20.2457 14.4506 20.9131C13.7833 21.5806 12.9663 21.9143 11.9996 21.9143C11.0331 21.9143 10.2162 21.5806 9.54885 20.9131Z" fill="#6366F1"/>
</g>
</svg>
