<svg width="20" height="20" viewBox="0 0 20 20" fill="none" xmlns="http://www.w3.org/2000/svg">
<mask id="mask0_348_18992" style="mask-type:alpha" maskUnits="userSpaceOnUse" x="0" y="0" width="20" height="20">
<rect width="20" height="20" fill="#D9D9D9"/>
</mask>
<g mask="url(#mask0_348_18992)">
<path d="M3.54134 16.25C3.13648 16.25 2.79217 16.1082 2.50842 15.8246C2.22481 15.5408 2.08301 15.1965 2.08301 14.7917V5.25646C2.08301 4.8516 2.23287 4.49931 2.53259 4.19958C2.83231 3.89986 3.18461 3.75 3.58947 3.75H7.54134C7.74217 3.75 7.9353 3.78903 8.12072 3.86708C8.30599 3.945 8.46704 4.05236 8.60384 4.18917L9.83134 5.41667H17.2193C17.3966 5.41667 17.5451 5.47653 17.6647 5.59625C17.7844 5.71583 17.8443 5.86431 17.8443 6.04167C17.8443 6.21903 17.7844 6.3675 17.6647 6.48708C17.5451 6.60681 17.3966 6.66667 17.2193 6.66667H9.32009L7.65342 5H3.58947C3.51461 5 3.45315 5.02403 3.40509 5.07208C3.35704 5.12014 3.33301 5.1816 3.33301 5.25646V15C3.33301 14.9251 3.34773 14.8971 3.37717 14.9158C3.40648 14.9346 3.44516 14.9573 3.49322 14.984L5.11509 9.56896C5.21551 9.24521 5.4003 8.98507 5.66947 8.78854C5.93877 8.59187 6.23794 8.49354 6.56697 8.49354H17.2849C17.7956 8.49354 18.2008 8.69653 18.5005 9.1025C18.8001 9.50847 18.8788 9.95132 18.7368 10.431L17.3009 15.2148C17.2058 15.5277 17.0277 15.7785 16.7666 15.9671C16.5053 16.1557 16.2155 16.25 15.8972 16.25H3.54134ZM4.80259 15H15.8651C15.9238 15 15.9759 14.984 16.0213 14.9519C16.0668 14.9198 16.0975 14.8744 16.1134 14.8156L17.5334 10.0721C17.5601 9.98667 17.5467 9.91056 17.4932 9.84375C17.4399 9.77694 17.3704 9.74354 17.2849 9.74354H6.56697C6.50822 9.74354 6.45613 9.75958 6.41072 9.79167C6.3653 9.82375 6.33461 9.86917 6.31863 9.92792L4.80259 15ZM4.80259 15L6.31863 9.92792C6.33461 9.86917 6.34794 9.82375 6.35863 9.79167L6.37467 9.74354L6.34655 9.84375C6.32794 9.91056 6.30523 9.98667 6.27842 10.0721L4.85863 14.8156C4.84266 14.8744 4.82933 14.9198 4.81863 14.9519L4.80259 15Z" fill="#A3A3A3"/>
</g>
</svg>
