<svg width="32" height="32" viewBox="0 0 32 32" fill="none" xmlns="http://www.w3.org/2000/svg">
<g clip-path="url(#clip0_365_8718)">
<path d="M0 12.8C0 8.31958 0 6.07937 0.871948 4.36808C1.63893 2.86278 2.86278 1.63893 4.36808 0.871948C6.07937 0 8.31958 0 12.8 0H19.2C23.6804 0 25.9206 0 27.6319 0.871948C29.1372 1.63893 30.3611 2.86278 31.1281 4.36808C32 6.07937 32 8.31958 32 12.8V19.2C32 23.6804 32 25.9206 31.1281 27.6319C30.3611 29.1372 29.1372 30.3611 27.6319 31.1281C25.9206 32 23.6804 32 19.2 32H12.8C8.31958 32 6.07937 32 4.36808 31.1281C2.86278 30.3611 1.63893 29.1372 0.871948 27.6319C0 25.9206 0 23.6804 0 19.2V12.8Z" fill="url(#paint0_linear_365_8718)"/>
<g opacity="0.25" style="mix-blend-mode:multiply">
<circle cx="26" cy="37" r="27" fill="url(#paint1_linear_365_8718)"/>
</g>
<g opacity="0.25" style="mix-blend-mode:multiply">
<circle cx="26" cy="47" r="27" fill="url(#paint2_linear_365_8718)"/>
</g>
<mask id="mask0_365_8718" style="mask-type:alpha" maskUnits="userSpaceOnUse" x="4" y="4" width="24" height="24">
<rect x="4" y="4" width="24" height="24" fill="#D9D9D9"/>
</mask>
<g mask="url(#mask0_365_8718)">
<path d="M10.0385 21.5L8.0365 23.5018C7.752 23.7864 7.42475 23.8504 7.05475 23.6938C6.68492 23.5369 6.5 23.2569 6.5 22.8538V8.30775C6.5 7.80258 6.675 7.375 7.025 7.025C7.375 6.675 7.80258 6.5 8.30775 6.5H23.6923C24.1974 6.5 24.625 6.675 24.975 7.025C25.325 7.375 25.5 7.80258 25.5 8.30775V19.6923C25.5 20.1974 25.325 20.625 24.975 20.975C24.625 21.325 24.1974 21.5 23.6923 21.5H10.0385ZM15.25 14.75V17C15.25 17.2125 15.3219 17.3906 15.4658 17.5343C15.6096 17.6781 15.7878 17.75 16.0003 17.75C16.2129 17.75 16.391 17.6781 16.5345 17.5343C16.6782 17.3906 16.75 17.2125 16.75 17V14.75H19C19.2125 14.75 19.3906 14.6781 19.5343 14.5343C19.6781 14.3904 19.75 14.2122 19.75 13.9997C19.75 13.7871 19.6781 13.609 19.5343 13.4655C19.3906 13.3218 19.2125 13.25 19 13.25H16.75V11C16.75 10.7875 16.6781 10.6094 16.5343 10.4658C16.3904 10.3219 16.2123 10.25 15.9998 10.25C15.7871 10.25 15.609 10.3219 15.4655 10.4658C15.3218 10.6094 15.25 10.7875 15.25 11V13.25H13C12.7875 13.25 12.6094 13.3219 12.4658 13.4658C12.3219 13.6096 12.25 13.7878 12.25 14.0003C12.25 14.2129 12.3219 14.391 12.4658 14.5345C12.6094 14.6782 12.7875 14.75 13 14.75H15.25Z" fill="white"/>
</g>
</g>
<defs>
<linearGradient id="paint0_linear_365_8718" x1="18.0056" y1="31.6189" x2="17.3983" y2="16.4531" gradientUnits="userSpaceOnUse">
<stop stop-color="#FFD7E6"/>
<stop offset="0.26" stop-color="#FFD3E3"/>
<stop offset="0.5" stop-color="#FFC7DC"/>
<stop offset="0.74" stop-color="#FFB4D1"/>
<stop offset="0.97" stop-color="#FF9AC0"/>
<stop offset="1" stop-color="#FF96BE"/>
</linearGradient>
<linearGradient id="paint1_linear_365_8718" x1="29.3844" y1="63.3569" x2="28.3596" y2="37.7647" gradientUnits="userSpaceOnUse">
<stop stop-color="#FFD7E6"/>
<stop offset="0.26" stop-color="#FFD3E3"/>
<stop offset="0.5" stop-color="#FFC7DC"/>
<stop offset="0.74" stop-color="#FFB4D1"/>
<stop offset="0.97" stop-color="#FF9AC0"/>
<stop offset="1" stop-color="#FF96BE"/>
</linearGradient>
<linearGradient id="paint2_linear_365_8718" x1="29.3844" y1="73.3569" x2="28.3596" y2="47.7647" gradientUnits="userSpaceOnUse">
<stop stop-color="#FFD7E6"/>
<stop offset="0.26" stop-color="#FFD3E3"/>
<stop offset="0.5" stop-color="#FFC7DC"/>
<stop offset="0.74" stop-color="#FFB4D1"/>
<stop offset="0.97" stop-color="#FF9AC0"/>
<stop offset="1" stop-color="#FF96BE"/>
</linearGradient>
<clipPath id="clip0_365_8718">
<path d="M0 12.8C0 8.31958 0 6.07937 0.871948 4.36808C1.63893 2.86278 2.86278 1.63893 4.36808 0.871948C6.07937 0 8.31958 0 12.8 0H19.2C23.6804 0 25.9206 0 27.6319 0.871948C29.1372 1.63893 30.3611 2.86278 31.1281 4.36808C32 6.07937 32 8.31958 32 12.8V19.2C32 23.6804 32 25.9206 31.1281 27.6319C30.3611 29.1372 29.1372 30.3611 27.6319 31.1281C25.9206 32 23.6804 32 19.2 32H12.8C8.31958 32 6.07937 32 4.36808 31.1281C2.86278 30.3611 1.63893 29.1372 0.871948 27.6319C0 25.9206 0 23.6804 0 19.2V12.8Z" fill="white"/>
</clipPath>
</defs>
</svg>
