<svg width="32" height="32" viewBox="0 0 32 32" fill="none" xmlns="http://www.w3.org/2000/svg">
<g clip-path="url(#clip0_365_8672)">
<path d="M0 12.8C0 8.31958 0 6.07937 0.871948 4.36808C1.63893 2.86278 2.86278 1.63893 4.36808 0.871948C6.07937 0 8.31958 0 12.8 0H19.2C23.6804 0 25.9206 0 27.6319 0.871948C29.1372 1.63893 30.3611 2.86278 31.1281 4.36808C32 6.07937 32 8.31958 32 12.8V19.2C32 23.6804 32 25.9206 31.1281 27.6319C30.3611 29.1372 29.1372 30.3611 27.6319 31.1281C25.9206 32 23.6804 32 19.2 32H12.8C8.31958 32 6.07937 32 4.36808 31.1281C2.86278 30.3611 1.63893 29.1372 0.871948 27.6319C0 25.9206 0 23.6804 0 19.2V12.8Z" fill="#14B8A6"/>
<g opacity="0.25" style="mix-blend-mode:multiply">
<circle cx="26" cy="37" r="27" fill="#14B8A6"/>
</g>
<g opacity="0.25" style="mix-blend-mode:multiply">
<circle cx="26" cy="47" r="27" fill="#14B8A6"/>
</g>
<mask id="mask0_365_8672" style="mask-type:alpha" maskUnits="userSpaceOnUse" x="4" y="4" width="24" height="24">
<rect x="4" y="4" width="24" height="24" fill="#D9D9D9"/>
</mask>
<g mask="url(#mask0_365_8672)">
<path d="M12.375 15.0354C12.375 15.8789 12.7917 16.6856 13.625 17.4554C14.4583 18.2253 15.1513 18.8679 15.7038 19.3834C15.7974 19.4603 15.8988 19.4987 16.0078 19.4987C16.1168 19.4987 16.2171 19.4608 16.3088 19.3852C16.8593 18.8852 17.5496 18.241 18.3798 17.4527C19.2099 16.6642 19.625 15.8584 19.625 15.0354C19.625 14.4931 19.4283 14.0261 19.0348 13.6344C18.6411 13.2428 18.1718 13.0469 17.627 13.0469C17.3025 13.0469 16.9949 13.1109 16.7043 13.2389C16.4136 13.3669 16.1788 13.5439 16 13.7699C15.8192 13.5439 15.5857 13.3669 15.2995 13.2389C15.0133 13.1109 14.7045 13.0469 14.373 13.0469C13.8308 13.0469 13.3623 13.2428 12.9673 13.6344C12.5724 14.0261 12.375 14.4931 12.375 15.0354ZM15.6942 25.3467C15.5942 25.33 15.4974 25.305 15.4037 25.2717C13.2949 24.5217 11.6171 23.1919 10.3702 21.2824C9.12342 19.3728 8.5 17.3122 8.5 15.1007V10.5969C8.5 10.2171 8.60925 9.87517 8.82775 9.57117C9.04608 9.26734 9.3285 9.04709 9.675 8.91042L15.3672 6.78542C15.5814 6.70842 15.7923 6.66992 16 6.66992C16.2077 6.66992 16.4186 6.70842 16.6328 6.78542L22.325 8.91042C22.6715 9.04709 22.9539 9.26734 23.1723 9.57117C23.3908 9.87517 23.5 10.2171 23.5 10.5969V15.1007C23.5 17.3122 22.8766 19.3728 21.6298 21.2824C20.3829 23.1919 18.7051 24.5217 16.5963 25.2717C16.5026 25.305 16.4058 25.33 16.3058 25.3467C16.2058 25.3633 16.1038 25.3717 16 25.3717C15.8962 25.3717 15.7942 25.3633 15.6942 25.3467Z" fill="white"/>
</g>
</g>
<defs>
<clipPath id="clip0_365_8672">
<path d="M0 12.8C0 8.31958 0 6.07937 0.871948 4.36808C1.63893 2.86278 2.86278 1.63893 4.36808 0.871948C6.07937 0 8.31958 0 12.8 0H19.2C23.6804 0 25.9206 0 27.6319 0.871948C29.1372 1.63893 30.3611 2.86278 31.1281 4.36808C32 6.07937 32 8.31958 32 12.8V19.2C32 23.6804 32 25.9206 31.1281 27.6319C30.3611 29.1372 29.1372 30.3611 27.6319 31.1281C25.9206 32 23.6804 32 19.2 32H12.8C8.31958 32 6.07937 32 4.36808 31.1281C2.86278 30.3611 1.63893 29.1372 0.871948 27.6319C0 25.9206 0 23.6804 0 19.2V12.8Z" fill="white"/>
</clipPath>
</defs>
</svg>
