<svg width="32" height="32" viewBox="0 0 32 32" fill="none" xmlns="http://www.w3.org/2000/svg">
<g clip-path="url(#clip0_365_8724)">
<path d="M0 12.8C0 8.31958 0 6.07937 0.871948 4.36808C1.63893 2.86278 2.86278 1.63893 4.36808 0.871948C6.07937 0 8.31958 0 12.8 0H19.2C23.6804 0 25.9206 0 27.6319 0.871948C29.1372 1.63893 30.3611 2.86278 31.1281 4.36808C32 6.07937 32 8.31958 32 12.8V19.2C32 23.6804 32 25.9206 31.1281 27.6319C30.3611 29.1372 29.1372 30.3611 27.6319 31.1281C25.9206 32 23.6804 32 19.2 32H12.8C8.31958 32 6.07937 32 4.36808 31.1281C2.86278 30.3611 1.63893 29.1372 0.871948 27.6319C0 25.9206 0 23.6804 0 19.2V12.8Z" fill="#06B6D4"/>
<g opacity="0.25" style="mix-blend-mode:multiply">
<circle cx="26" cy="47" r="27" fill="#06B6D4"/>
</g>
<g opacity="0.25" style="mix-blend-mode:multiply">
<circle cx="26" cy="37" r="27" fill="#06B6D4"/>
</g>
<mask id="mask0_365_8724" style="mask-type:alpha" maskUnits="userSpaceOnUse" x="4" y="4" width="24" height="24">
<rect x="4" y="4" width="24" height="24" fill="#D9D9D9"/>
</mask>
<g mask="url(#mask0_365_8724)">
<path d="M12.9423 16.6538H19.0577C19.2702 16.6538 19.4483 16.5818 19.592 16.438C19.7358 16.2943 19.8077 16.1162 19.8077 15.9035C19.8077 15.6908 19.7358 15.5128 19.592 15.3693C19.4483 15.2256 19.2702 15.1538 19.0577 15.1538H12.9423C12.7298 15.1538 12.5517 15.2257 12.408 15.3695C12.2642 15.5133 12.1923 15.6916 12.1923 15.9043C12.1923 16.1168 12.2642 16.2948 12.408 16.4385C12.5517 16.582 12.7298 16.6538 12.9423 16.6538ZM12.9423 19.5385H19.0577C19.2702 19.5385 19.4483 19.4666 19.592 19.3228C19.7358 19.1789 19.8077 19.0007 19.8077 18.788C19.8077 18.5755 19.7358 18.3974 19.592 18.2537C19.4483 18.1102 19.2702 18.0385 19.0577 18.0385H12.9423C12.7298 18.0385 12.5517 18.1104 12.408 18.2543C12.2642 18.3981 12.1923 18.5762 12.1923 18.7887C12.1923 19.0014 12.2642 19.1795 12.408 19.323C12.5517 19.4667 12.7298 19.5385 12.9423 19.5385ZM12.9423 22.423H16.0578C16.2703 22.423 16.4483 22.3511 16.592 22.2072C16.7358 22.0634 16.8077 21.8853 16.8077 21.6728C16.8077 21.4601 16.7358 21.282 16.592 21.1385C16.4483 20.9948 16.2703 20.923 16.0578 20.923H12.9423C12.7298 20.923 12.5517 20.9949 12.408 21.1388C12.2642 21.2826 12.1923 21.4608 12.1923 21.6735C12.1923 21.886 12.2642 22.0641 12.408 22.2078C12.5517 22.3513 12.7298 22.423 12.9423 22.423ZM10.3077 25.5C9.80258 25.5 9.375 25.325 9.025 24.975C8.675 24.625 8.5 24.1974 8.5 23.6923V8.30775C8.5 7.80258 8.675 7.375 9.025 7.025C9.375 6.675 9.80258 6.5 10.3077 6.5H17.502C17.7458 6.5 17.9782 6.54683 18.1992 6.6405C18.4202 6.734 18.6128 6.86283 18.777 7.027L22.973 11.223C23.1372 11.3872 23.266 11.5798 23.3595 11.8008C23.4532 12.0218 23.5 12.2542 23.5 12.498V23.6923C23.5 24.1974 23.325 24.625 22.975 24.975C22.625 25.325 22.1974 25.5 21.6923 25.5H10.3077ZM17.5 11.6C17.5 11.855 17.5862 12.0688 17.7587 12.2413C17.9312 12.4138 18.145 12.5 18.4 12.5H22L17.5 8V11.6Z" fill="white"/>
</g>
</g>
<defs>
<clipPath id="clip0_365_8724">
<path d="M0 12.8C0 8.31958 0 6.07937 0.871948 4.36808C1.63893 2.86278 2.86278 1.63893 4.36808 0.871948C6.07937 0 8.31958 0 12.8 0H19.2C23.6804 0 25.9206 0 27.6319 0.871948C29.1372 1.63893 30.3611 2.86278 31.1281 4.36808C32 6.07937 32 8.31958 32 12.8V19.2C32 23.6804 32 25.9206 31.1281 27.6319C30.3611 29.1372 29.1372 30.3611 27.6319 31.1281C25.9206 32 23.6804 32 19.2 32H12.8C8.31958 32 6.07937 32 4.36808 31.1281C2.86278 30.3611 1.63893 29.1372 0.871948 27.6319C0 25.9206 0 23.6804 0 19.2V12.8Z" fill="white"/>
</clipPath>
</defs>
</svg>
