<svg width="60" height="60" viewBox="0 0 60 60" fill="none" xmlns="http://www.w3.org/2000/svg">
<g clip-path="url(#clip0_368_14266)">
<path d="M0 24C0 15.5992 0 11.3988 1.6349 8.19014C3.073 5.36771 5.36771 3.073 8.19014 1.6349C11.3988 0 15.5992 0 24 0H36C44.4008 0 48.6012 0 51.8099 1.6349C54.6323 3.073 56.927 5.36771 58.3651 8.19014C60 11.3988 60 15.5992 60 24V36C60 44.4008 60 48.6012 58.3651 51.8099C56.927 54.6323 54.6323 56.927 51.8099 58.3651C48.6012 60 44.4008 60 36 60H24C15.5992 60 11.3988 60 8.19014 58.3651C5.36771 56.927 3.073 54.6323 1.6349 51.8099C0 48.6012 0 44.4008 0 36V24Z" fill="#FEE2E2"/>
<circle cx="48.75" cy="69.375" r="50.625" fill="#FEE2E2"/>
<circle cx="48.75" cy="88.125" r="50.625" fill="#FEE2E2"/>
<mask id="mask0_368_14266" style="mask-type:alpha" maskUnits="userSpaceOnUse" x="7" y="7" width="46" height="46">
<rect x="7.5" y="7.5" width="45" height="45" fill="#D9D9D9"/>
</mask>
<g mask="url(#mask0_368_14266)">
<path d="M23.5299 42.9509C23.1633 42.678 22.8946 42.331 22.7236 41.9098L18.6277 31.4065H11.7549C11.3564 31.4065 11.0225 31.2716 10.7532 31.002C10.4835 30.7323 10.3486 30.3982 10.3486 29.9998C10.3486 29.601 10.4835 29.2671 10.7532 28.998C11.0225 28.7287 11.3564 28.594 11.7549 28.594H19.4171C19.7752 28.594 20.0907 28.6943 20.3635 28.8949C20.6363 29.0959 20.8449 29.3598 20.9893 29.6866L24.7716 39.4184L33.1805 18.0724C33.3508 17.6512 33.6186 17.3043 33.9839 17.0318C34.3496 16.7593 34.7638 16.623 35.2266 16.623C35.6894 16.623 36.1039 16.7593 36.4702 17.0318C36.8368 17.3043 37.1055 17.6512 37.2764 18.0724L41.4085 28.594H48.2813C48.6797 28.594 49.0136 28.7288 49.283 28.9985C49.5527 29.2682 49.6875 29.6023 49.6875 30.0007C49.6875 30.3995 49.5527 30.7334 49.283 31.0024C49.0136 31.2718 48.6797 31.4065 48.2813 31.4065H40.6008C40.2386 31.4065 39.9252 31.3062 39.6605 31.1055C39.3955 30.9046 39.191 30.6407 39.0469 30.3138L35.2285 20.5638L26.8196 41.9098C26.6493 42.331 26.3814 42.678 26.0161 42.9509C25.6505 43.2234 25.2363 43.3596 24.7735 43.3596C24.3107 43.3596 23.8961 43.2234 23.5299 42.9509Z" fill="#EF4444"/>
</g>
</g>
<defs>
<clipPath id="clip0_368_14266">
<path d="M0 24C0 15.5992 0 11.3988 1.6349 8.19014C3.073 5.36771 5.36771 3.073 8.19014 1.6349C11.3988 0 15.5992 0 24 0H36C44.4008 0 48.6012 0 51.8099 1.6349C54.6323 3.073 56.927 5.36771 58.3651 8.19014C60 11.3988 60 15.5992 60 24V36C60 44.4008 60 48.6012 58.3651 51.8099C56.927 54.6323 54.6323 56.927 51.8099 58.3651C48.6012 60 44.4008 60 36 60H24C15.5992 60 11.3988 60 8.19014 58.3651C5.36771 56.927 3.073 54.6323 1.6349 51.8099C0 48.6012 0 44.4008 0 36V24Z" fill="white"/>
</clipPath>
</defs>
</svg>
