<svg width="32" height="32" viewBox="0 0 32 32" fill="none" xmlns="http://www.w3.org/2000/svg">
<mask id="mask0_365_8736" style="mask-type:alpha" maskUnits="userSpaceOnUse" x="0" y="0" width="32" height="32">
<rect width="32" height="32" fill="#D9D9D9"/>
</mask>
<g mask="url(#mask0_365_8736)">
<path d="M7.07733 27.3327C6.40377 27.3327 5.83366 27.0993 5.36699 26.6327C4.90033 26.166 4.66699 25.5959 4.66699 24.9223V7.07635C4.66699 6.40279 4.90033 5.83268 5.36699 5.36602C5.83366 4.89935 6.40377 4.66602 7.07733 4.66602H15.0133C15.2969 4.66602 15.5344 4.76179 15.726 4.95335C15.9173 5.14468 16.013 5.38224 16.013 5.66602C16.013 5.94979 15.9173 6.18735 15.726 6.37868C15.5344 6.57024 15.2969 6.66602 15.0133 6.66602H7.07733C6.97466 6.66602 6.88066 6.70879 6.79533 6.79435C6.70977 6.87968 6.66699 6.97368 6.66699 7.07635V24.9223C6.66699 25.025 6.70977 25.119 6.79533 25.2043C6.88066 25.2899 6.97466 25.3327 7.07733 25.3327H15.0133C15.2969 25.3327 15.5344 25.4285 15.726 25.62C15.9173 25.8113 16.013 26.0489 16.013 26.3327C16.013 26.6165 15.9173 26.854 15.726 27.0453C15.5344 27.2369 15.2969 27.3327 15.0133 27.3327H7.07733ZM23.49 16.9993H13.1287C12.8449 16.9993 12.6072 16.9036 12.4157 16.712C12.2243 16.5207 12.1287 16.2831 12.1287 15.9993C12.1287 15.7156 12.2243 15.478 12.4157 15.2867C12.6072 15.0951 12.8449 14.9993 13.1287 14.9993H23.49L20.926 12.4353C20.7413 12.2507 20.6469 12.0255 20.6427 11.7597C20.6384 11.4939 20.7329 11.2576 20.926 11.0507C21.1191 10.8438 21.3533 10.7369 21.6287 10.73C21.9038 10.7233 22.1448 10.8233 22.3517 11.03L26.4773 15.1557C26.7182 15.3968 26.8387 15.678 26.8387 15.9993C26.8387 16.3207 26.7182 16.6019 26.4773 16.843L22.3517 20.9687C22.1534 21.1669 21.918 21.2647 21.6453 21.262C21.3727 21.2596 21.1329 21.1549 20.926 20.948C20.7329 20.7411 20.6398 20.5036 20.6467 20.2353C20.6533 19.9669 20.7533 19.7361 20.9467 19.543L23.49 16.9993Z" fill="#EF4444"/>
</g>
</svg>
