<svg width="32" height="32" viewBox="0 0 32 32" fill="none" xmlns="http://www.w3.org/2000/svg">
<g clip-path="url(#clip0_365_8700)">
<path d="M0 12.8C0 8.31958 0 6.07937 0.871948 4.36808C1.63893 2.86278 2.86278 1.63893 4.36808 0.871948C6.07937 0 8.31958 0 12.8 0H19.2C23.6804 0 25.9206 0 27.6319 0.871948C29.1372 1.63893 30.3611 2.86278 31.1281 4.36808C32 6.07937 32 8.31958 32 12.8V19.2C32 23.6804 32 25.9206 31.1281 27.6319C30.3611 29.1372 29.1372 30.3611 27.6319 31.1281C25.9206 32 23.6804 32 19.2 32H12.8C8.31958 32 6.07937 32 4.36808 31.1281C2.86278 30.3611 1.63893 29.1372 0.871948 27.6319C0 25.9206 0 23.6804 0 19.2V12.8Z" fill="#F97316"/>
<g opacity="0.25" style="mix-blend-mode:multiply">
<circle cx="26" cy="47" r="27" fill="#F97316"/>
</g>
<g opacity="0.25" style="mix-blend-mode:multiply">
<circle cx="26" cy="37" r="27" fill="#F97316"/>
</g>
<mask id="mask0_365_8700" style="mask-type:alpha" maskUnits="userSpaceOnUse" x="4" y="4" width="24" height="24">
<rect x="4" y="4" width="24" height="24" fill="#D9D9D9"/>
</mask>
<g mask="url(#mask0_365_8700)">
<path d="M9.25 22.8845C9.0375 22.8845 8.85942 22.8127 8.71575 22.669C8.57192 22.5252 8.5 22.3469 8.5 22.1343C8.5 21.9218 8.57192 21.7437 8.71575 21.6C8.85942 21.4565 9.0375 21.3848 9.25 21.3848H10.3077V13.923C10.3077 12.5782 10.7228 11.3891 11.553 10.3557C12.383 9.32242 13.4487 8.6615 14.75 8.373V7.75C14.75 7.40283 14.8714 7.10767 15.1143 6.8645C15.3571 6.6215 15.6519 6.5 15.9988 6.5C16.3458 6.5 16.641 6.6215 16.8845 6.8645C17.1282 7.10767 17.25 7.40283 17.25 7.75V8.373C18.5513 8.6615 19.617 9.32242 20.447 10.3557C21.2772 11.3891 21.6923 12.5782 21.6923 13.923V21.3848H22.75C22.9625 21.3848 23.1406 21.4566 23.2843 21.6003C23.4281 21.7441 23.5 21.9223 23.5 22.135C23.5 22.3475 23.4281 22.5256 23.2843 22.6693C23.1406 22.8128 22.9625 22.8845 22.75 22.8845H9.25ZM15.9983 25.6923C15.5008 25.6923 15.0754 25.5153 14.7223 25.1613C14.3689 24.8073 14.1923 24.3817 14.1923 23.8845H17.8077C17.8077 24.3833 17.6306 24.8093 17.2762 25.1625C16.9219 25.5157 16.4959 25.6923 15.9983 25.6923Z" fill="white"/>
</g>
</g>
<defs>
<clipPath id="clip0_365_8700">
<path d="M0 12.8C0 8.31958 0 6.07937 0.871948 4.36808C1.63893 2.86278 2.86278 1.63893 4.36808 0.871948C6.07937 0 8.31958 0 12.8 0H19.2C23.6804 0 25.9206 0 27.6319 0.871948C29.1372 1.63893 30.3611 2.86278 31.1281 4.36808C32 6.07937 32 8.31958 32 12.8V19.2C32 23.6804 32 25.9206 31.1281 27.6319C30.3611 29.1372 29.1372 30.3611 27.6319 31.1281C25.9206 32 23.6804 32 19.2 32H12.8C8.31958 32 6.07937 32 4.36808 31.1281C2.86278 30.3611 1.63893 29.1372 0.871948 27.6319C0 25.9206 0 23.6804 0 19.2V12.8Z" fill="white"/>
</clipPath>
</defs>
</svg>
