<svg width="24" height="24" viewBox="0 0 24 24" fill="none" xmlns="http://www.w3.org/2000/svg">
<mask id="mask0_348_18839" style="mask-type:alpha" maskUnits="userSpaceOnUse" x="0" y="0" width="24" height="24">
<rect width="24" height="24" fill="#D9D9D9"/>
</mask>
<g mask="url(#mask0_348_18839)">
<path d="M13.1 21.4995H10.5L10.8562 21.2655C11.0936 21.1097 11.3518 20.9351 11.6308 20.7418C11.9098 20.5484 12.1679 20.3739 12.4052 20.218L12.7615 19.984H13.4538C14.8488 19.9225 16.1379 19.5303 17.3212 18.8073C18.5046 18.0841 19.4392 17.1065 20.125 15.8745C18.6917 15.7409 17.3333 15.3774 16.05 14.784C14.7667 14.1907 13.6167 13.3844 12.6 12.365C11.5897 11.3484 10.7829 10.1984 10.1798 8.91503C9.57658 7.6317 9.21667 6.27653 9.1 4.84953C7.81667 5.5662 6.8125 6.5537 6.0875 7.81203C5.3625 9.07036 5 10.4329 5 11.8995C5 12.0162 5.00483 12.1479 5.0145 12.2948C5.024 12.4416 5.03842 12.5701 5.05775 12.6803L4.83475 12.7745C4.68592 12.8374 4.5195 12.9044 4.3355 12.9755C4.15167 13.0467 3.98533 13.1153 3.8365 13.1813L3.6135 13.2803C3.57383 13.0584 3.545 12.8299 3.527 12.5948C3.509 12.3594 3.5 12.1277 3.5 11.8995C3.5 10.0175 4.04358 8.24353 5.13075 6.57753C6.21792 4.91153 7.6615 3.75928 9.4615 3.12078C9.62567 3.06428 9.77633 3.04628 9.9135 3.06678C10.0507 3.08745 10.1795 3.14136 10.3 3.22853C10.4205 3.3157 10.5115 3.42203 10.573 3.54753C10.6345 3.6732 10.6633 3.81811 10.6595 3.98228C10.6493 5.37328 10.9016 6.69895 11.4163 7.95928C11.9311 9.21945 12.6821 10.3432 13.6693 11.3305C14.6731 12.3342 15.7917 13.0825 17.025 13.5755C18.2583 14.0685 19.5705 14.315 20.9615 14.315C21.1257 14.3112 21.2773 14.3468 21.4163 14.4218C21.5554 14.4968 21.6602 14.5945 21.7307 14.715C21.8012 14.8355 21.8483 14.9659 21.872 15.1063C21.8958 15.2466 21.8712 15.3989 21.798 15.563C21.0493 17.3899 19.9157 18.836 18.397 19.9015C16.8785 20.9669 15.1128 21.4995 13.1 21.4995ZM6 19.9995H10.5C10.9167 19.9995 11.2708 19.8537 11.5625 19.562C11.8542 19.2704 12 18.9162 12 18.4995C12 18.0829 11.8583 17.7287 11.575 17.437C11.2917 17.1454 10.95 16.9995 10.55 16.9995H9.25L8.75 15.7995C8.51667 15.2495 8.15 14.812 7.65 14.487C7.15 14.162 6.6 13.9995 6 13.9995C5.16667 13.9995 4.45833 14.287 3.875 14.862C3.29167 15.437 3 16.1495 3 16.9995C3 17.8329 3.29167 18.5412 3.875 19.1245C4.45833 19.7079 5.16667 19.9995 6 19.9995ZM6 21.4995C4.75133 21.4867 3.68917 21.044 2.8135 20.1715C1.93783 19.2992 1.5 18.2409 1.5 16.9968C1.5 15.7524 1.93783 14.6919 2.8135 13.815C3.68917 12.938 4.75167 12.4995 6.001 12.4995C6.90417 12.4995 7.727 12.7444 8.4695 13.234C9.21183 13.7235 9.763 14.3825 10.123 15.211L10.248 15.4995H10.5558C11.3711 15.52 12.0657 15.8208 12.6395 16.4018C13.2132 16.9828 13.5 17.682 13.5 18.4995C13.5 19.3315 13.208 20.0395 12.624 20.6235C12.04 21.2075 11.332 21.4995 10.5 21.4995H6Z" fill="#A855F7"/>
</g>
</svg>
