<svg width="32" height="32" viewBox="0 0 32 32" fill="none" xmlns="http://www.w3.org/2000/svg">
<g clip-path="url(#clip0_365_8648)">
<path d="M0 12.8C0 8.31958 0 6.07937 0.871948 4.36808C1.63893 2.86278 2.86278 1.63893 4.36808 0.871948C6.07937 0 8.31958 0 12.8 0H19.2C23.6804 0 25.9206 0 27.6319 0.871948C29.1372 1.63893 30.3611 2.86278 31.1281 4.36808C32 6.07937 32 8.31958 32 12.8V19.2C32 23.6804 32 25.9206 31.1281 27.6319C30.3611 29.1372 29.1372 30.3611 27.6319 31.1281C25.9206 32 23.6804 32 19.2 32H12.8C8.31958 32 6.07937 32 4.36808 31.1281C2.86278 30.3611 1.63893 29.1372 0.871948 27.6319C0 25.9206 0 23.6804 0 19.2V12.8Z" fill="#3B82F6"/>
<g opacity="0.25" style="mix-blend-mode:multiply">
<circle cx="26" cy="47" r="27" fill="#3B82F6"/>
</g>
<g opacity="0.25" style="mix-blend-mode:multiply">
<circle cx="26" cy="37" r="27" fill="#3B82F6"/>
</g>
<mask id="mask0_365_8648" style="mask-type:alpha" maskUnits="userSpaceOnUse" x="4" y="4" width="24" height="24">
<rect x="4" y="4" width="24" height="24" fill="#D9D9D9"/>
</mask>
<g mask="url(#mask0_365_8648)">
<path d="M10.023 21.2923C10.873 20.6616 11.799 20.1635 12.801 19.798C13.8028 19.4327 14.8692 19.25 16 19.25C17.1308 19.25 18.1972 19.4327 19.199 19.798C20.201 20.1635 21.127 20.6616 21.977 21.2923C22.5987 20.6089 23.0913 19.8179 23.4548 18.9192C23.8183 18.0206 24 17.0475 24 16C24 13.7833 23.2208 11.8958 21.6625 10.3375C20.1042 8.77917 18.2167 8 16 8C13.7833 8 11.8958 8.77917 10.3375 10.3375C8.77917 11.8958 8 13.7833 8 16C8 17.0475 8.18175 18.0206 8.54525 18.9192C8.90875 19.8179 9.40133 20.6089 10.023 21.2923ZM13.6905 15.8095C13.0635 15.1827 12.75 14.4128 12.75 13.5C12.75 12.5872 13.0635 11.8173 13.6905 11.1905C14.3173 10.5635 15.0872 10.25 16 10.25C16.9128 10.25 17.6827 10.5635 18.3095 11.1905C18.9365 11.8173 19.25 12.5872 19.25 13.5C19.25 14.4128 18.9365 15.1827 18.3095 15.8095C17.6827 16.4365 16.9128 16.75 16 16.75C15.0872 16.75 14.3173 16.4365 13.6905 15.8095ZM16 25.5C14.6808 25.5 13.4433 25.2519 12.2875 24.7558C11.1317 24.2596 10.1263 23.5839 9.27125 22.7288C8.41608 21.8738 7.74042 20.8683 7.24425 19.7125C6.74808 18.5567 6.5 17.3192 6.5 16C6.5 14.6808 6.74808 13.4433 7.24425 12.2875C7.74042 11.1317 8.41608 10.1262 9.27125 9.27125C10.1263 8.41608 11.1317 7.74042 12.2875 7.24425C13.4433 6.74808 14.6808 6.5 16 6.5C17.3192 6.5 18.5567 6.74808 19.7125 7.24425C20.8683 7.74042 21.8738 8.41608 22.7288 9.27125C23.5839 10.1262 24.2596 11.1317 24.7558 12.2875C25.2519 13.4433 25.5 14.6808 25.5 16C25.5 17.3192 25.2519 18.5567 24.7558 19.7125C24.2596 20.8683 23.5839 21.8738 22.7288 22.7288C21.8738 23.5839 20.8683 24.2596 19.7125 24.7558C18.5567 25.2519 17.3192 25.5 16 25.5Z" fill="white"/>
</g>
</g>
<defs>
<clipPath id="clip0_365_8648">
<path d="M0 12.8C0 8.31958 0 6.07937 0.871948 4.36808C1.63893 2.86278 2.86278 1.63893 4.36808 0.871948C6.07937 0 8.31958 0 12.8 0H19.2C23.6804 0 25.9206 0 27.6319 0.871948C29.1372 1.63893 30.3611 2.86278 31.1281 4.36808C32 6.07937 32 8.31958 32 12.8V19.2C32 23.6804 32 25.9206 31.1281 27.6319C30.3611 29.1372 29.1372 30.3611 27.6319 31.1281C25.9206 32 23.6804 32 19.2 32H12.8C8.31958 32 6.07937 32 4.36808 31.1281C2.86278 30.3611 1.63893 29.1372 0.871948 27.6319C0 25.9206 0 23.6804 0 19.2V12.8Z" fill="white"/>
</clipPath>
</defs>
</svg>
