<svg width="16" height="16" viewBox="0 0 16 16" fill="none" xmlns="http://www.w3.org/2000/svg">
<mask id="mask0_351_27887" style="mask-type:alpha" maskUnits="userSpaceOnUse" x="0" y="0" width="16" height="16">
<rect width="16" height="16" fill="#D9D9D9"/>
</mask>
<g mask="url(#mask0_351_27887)">
<path d="M5.99967 8.33398H6.66634V7.00065H7.33301C7.5219 7.00065 7.68023 6.93676 7.80801 6.80898C7.93579 6.68121 7.99967 6.52287 7.99967 6.33398V5.66732C7.99967 5.47843 7.93579 5.3201 7.80801 5.19232C7.68023 5.06454 7.5219 5.00065 7.33301 5.00065H5.99967V8.33398ZM6.66634 6.33398V5.66732H7.33301V6.33398H6.66634ZM8.66634 8.33398H9.99967C10.1886 8.33398 10.3469 8.2701 10.4747 8.14232C10.6025 8.01454 10.6663 7.85621 10.6663 7.66732V5.66732C10.6663 5.47843 10.6025 5.3201 10.4747 5.19232C10.3469 5.06454 10.1886 5.00065 9.99967 5.00065H8.66634V8.33398ZM9.33301 7.66732V5.66732H9.99967V7.66732H9.33301ZM11.333 8.33398H11.9997V7.00065H12.6663V6.33398H11.9997V5.66732H12.6663V5.00065H11.333V8.33398ZM5.33301 12.0007C4.96634 12.0007 4.65245 11.8701 4.39134 11.609C4.13023 11.3479 3.99967 11.034 3.99967 10.6673V2.66732C3.99967 2.30065 4.13023 1.98676 4.39134 1.72565C4.65245 1.46454 4.96634 1.33398 5.33301 1.33398H13.333C13.6997 1.33398 14.0136 1.46454 14.2747 1.72565C14.5358 1.98676 14.6663 2.30065 14.6663 2.66732V10.6673C14.6663 11.034 14.5358 11.3479 14.2747 11.609C14.0136 11.8701 13.6997 12.0007 13.333 12.0007H5.33301ZM2.66634 14.6673C2.29967 14.6673 1.98579 14.5368 1.72467 14.2757C1.46356 14.0145 1.33301 13.7007 1.33301 13.334V4.00065H2.66634V13.334H11.9997V14.6673H2.66634Z" fill="#EF4444"/>
</g>
</svg>
