<svg width="32" height="32" viewBox="0 0 32 32" fill="none" xmlns="http://www.w3.org/2000/svg">
<g clip-path="url(#clip0_365_8730)">
<path d="M0 12.8C0 8.31958 0 6.07937 0.871948 4.36808C1.63893 2.86278 2.86278 1.63893 4.36808 0.871948C6.07937 0 8.31958 0 12.8 0H19.2C23.6804 0 25.9206 0 27.6319 0.871948C29.1372 1.63893 30.3611 2.86278 31.1281 4.36808C32 6.07937 32 8.31958 32 12.8V19.2C32 23.6804 32 25.9206 31.1281 27.6319C30.3611 29.1372 29.1372 30.3611 27.6319 31.1281C25.9206 32 23.6804 32 19.2 32H12.8C8.31958 32 6.07937 32 4.36808 31.1281C2.86278 30.3611 1.63893 29.1372 0.871948 27.6319C0 25.9206 0 23.6804 0 19.2V12.8Z" fill="url(#paint0_linear_365_8730)"/>
<g opacity="0.25" style="mix-blend-mode:multiply">
<circle cx="26" cy="37" r="27" fill="url(#paint1_linear_365_8730)"/>
</g>
<g opacity="0.25" style="mix-blend-mode:multiply">
<circle cx="26" cy="47" r="27" fill="url(#paint2_linear_365_8730)"/>
</g>
<mask id="mask0_365_8730" style="mask-type:alpha" maskUnits="userSpaceOnUse" x="4" y="4" width="24" height="24">
<rect x="4" y="4" width="24" height="24" fill="#D9D9D9"/>
</mask>
<g mask="url(#mask0_365_8730)">
<path d="M16 21.1923C16.8962 21.1923 17.7237 20.9798 18.4827 20.5548C19.2417 20.1298 19.8584 19.5525 20.3328 18.823C20.4263 18.6423 20.4227 18.46 20.322 18.276C20.2215 18.092 20.0642 18 19.85 18H12.15C11.9358 18 11.7785 18.092 11.678 18.276C11.5773 18.46 11.5738 18.6423 11.6673 18.823C12.1416 19.5525 12.7624 20.1298 13.5298 20.5548C14.2971 20.9798 15.1205 21.1923 16 21.1923ZM12.9 13.7193L13.55 14.3693C13.668 14.4873 13.8062 14.5478 13.9645 14.551C14.1228 14.5542 14.2642 14.4936 14.3885 14.3693C14.5128 14.2449 14.5724 14.1052 14.5673 13.95C14.5621 13.7948 14.5025 13.6551 14.3885 13.5307L13.5328 12.6598C13.3519 12.4789 13.1384 12.3885 12.8923 12.3885C12.6461 12.3885 12.4327 12.4789 12.252 12.6598L11.3808 13.5307C11.2628 13.6487 11.2022 13.7869 11.199 13.9453C11.1958 14.1036 11.2564 14.2449 11.3808 14.3693C11.4949 14.4833 11.6321 14.5428 11.7923 14.548C11.9526 14.5532 12.0949 14.4987 12.2192 14.3845L12.9 13.7193ZM19.1 13.7193L19.7807 14.3845C19.8987 14.4923 20.0369 14.5478 20.1953 14.551C20.3536 14.5542 20.4949 14.4936 20.6193 14.3693C20.7436 14.2449 20.8057 14.1052 20.8057 13.95C20.8057 13.7948 20.7436 13.6551 20.6193 13.5307L19.748 12.6598C19.5673 12.4789 19.3539 12.3885 19.1077 12.3885C18.8616 12.3885 18.6481 12.4789 18.4672 12.6598L17.5962 13.5307C17.4886 13.6487 17.4331 13.7869 17.4298 13.9453C17.4266 14.1036 17.4872 14.2449 17.6115 14.3693C17.7358 14.4936 17.8756 14.5557 18.0307 14.5557C18.1859 14.5557 18.3257 14.4936 18.45 14.3693L19.1 13.7193ZM12.2973 24.751C11.1414 24.2517 10.1359 23.5744 9.28075 22.7193C8.42558 21.8641 7.74833 20.8586 7.249 19.7028C6.74967 18.5471 6.5 17.3128 6.5 16C6.5 14.6872 6.74967 13.4529 7.249 12.2973C7.74833 11.1414 8.42558 10.1359 9.28075 9.28075C10.1359 8.42558 11.1414 7.74833 12.2973 7.249C13.4529 6.74967 14.6872 6.5 16 6.5C17.3128 6.5 18.5471 6.74967 19.7028 7.249C20.8586 7.74833 21.8641 8.42558 22.7193 9.28075C23.5744 10.1359 24.2517 11.1414 24.751 12.2973C25.2503 13.4529 25.5 14.6872 25.5 16C25.5 17.3128 25.2503 18.5471 24.751 19.7028C24.2517 20.8586 23.5744 21.8641 22.7193 22.7193C21.8641 23.5744 20.8586 24.2517 19.7028 24.751C18.5471 25.2503 17.3128 25.5 16 25.5C14.6872 25.5 13.4529 25.2503 12.2973 24.751Z" fill="white"/>
</g>
</g>
<defs>
<linearGradient id="paint0_linear_365_8730" x1="18.0056" y1="31.6189" x2="17.3983" y2="16.4531" gradientUnits="userSpaceOnUse">
<stop stop-color="#FFD7E6"/>
<stop offset="0.26" stop-color="#FFD3E3"/>
<stop offset="0.5" stop-color="#FFC7DC"/>
<stop offset="0.74" stop-color="#FFB4D1"/>
<stop offset="0.97" stop-color="#FF9AC0"/>
<stop offset="1" stop-color="#FF96BE"/>
</linearGradient>
<linearGradient id="paint1_linear_365_8730" x1="29.3844" y1="63.3569" x2="28.3596" y2="37.7647" gradientUnits="userSpaceOnUse">
<stop stop-color="#FFD7E6"/>
<stop offset="0.26" stop-color="#FFD3E3"/>
<stop offset="0.5" stop-color="#FFC7DC"/>
<stop offset="0.74" stop-color="#FFB4D1"/>
<stop offset="0.97" stop-color="#FF9AC0"/>
<stop offset="1" stop-color="#FF96BE"/>
</linearGradient>
<linearGradient id="paint2_linear_365_8730" x1="29.3844" y1="73.3569" x2="28.3596" y2="47.7647" gradientUnits="userSpaceOnUse">
<stop stop-color="#FFD7E6"/>
<stop offset="0.26" stop-color="#FFD3E3"/>
<stop offset="0.5" stop-color="#FFC7DC"/>
<stop offset="0.74" stop-color="#FFB4D1"/>
<stop offset="0.97" stop-color="#FF9AC0"/>
<stop offset="1" stop-color="#FF96BE"/>
</linearGradient>
<clipPath id="clip0_365_8730">
<path d="M0 12.8C0 8.31958 0 6.07937 0.871948 4.36808C1.63893 2.86278 2.86278 1.63893 4.36808 0.871948C6.07937 0 8.31958 0 12.8 0H19.2C23.6804 0 25.9206 0 27.6319 0.871948C29.1372 1.63893 30.3611 2.86278 31.1281 4.36808C32 6.07937 32 8.31958 32 12.8V19.2C32 23.6804 32 25.9206 31.1281 27.6319C30.3611 29.1372 29.1372 30.3611 27.6319 31.1281C25.9206 32 23.6804 32 19.2 32H12.8C8.31958 32 6.07937 32 4.36808 31.1281C2.86278 30.3611 1.63893 29.1372 0.871948 27.6319C0 25.9206 0 23.6804 0 19.2V12.8Z" fill="white"/>
</clipPath>
</defs>
</svg>
