<svg width="48" height="48" viewBox="0 0 48 48" fill="none" xmlns="http://www.w3.org/2000/svg">
<mask id="mask0_365_8642" style="mask-type:alpha" maskUnits="userSpaceOnUse" x="0" y="0" width="48" height="48">
<rect width="48" height="48" fill="#D9D9D9"/>
</mask>
<g mask="url(#mask0_365_8642)">
</g>
<mask id="mask1_365_8642" style="mask-type:alpha" maskUnits="userSpaceOnUse" x="4" y="6" width="40" height="34">
<path d="M39.0207 29.9007C39.4297 29.9007 39.7829 30.0493 40.0802 30.3467L43.2497 33.5467C43.547 33.8443 43.6957 34.1957 43.6957 34.6007C43.6957 35.0057 43.547 35.357 43.2497 35.6547C42.9524 35.952 42.601 36.1007 42.1957 36.1007C41.7907 36.1007 41.4395 35.952 41.1422 35.6547L37.9422 32.4852C37.6445 32.1878 37.499 31.8315 37.5057 31.4162C37.512 31.0008 37.6639 30.6443 37.9612 30.3467C38.2585 30.0493 38.6117 29.9007 39.0207 29.9007ZM40.0997 7.80066C40.0997 8.21599 39.951 8.57232 39.6537 8.86966L36.4842 12.0392C36.1869 12.3365 35.8337 12.4852 35.4247 12.4852C35.0157 12.4852 34.6625 12.3365 34.3652 12.0392C34.0679 11.7418 33.9192 11.3855 33.9192 10.9702C33.9192 10.5545 34.0679 10.198 34.3652 9.90066L37.5457 6.73166C37.8434 6.43399 38.1947 6.28516 38.5997 6.28516C39.0047 6.28516 39.356 6.43399 39.6537 6.73166C39.951 7.02899 40.0997 7.38532 40.0997 7.80066ZM9.41521 6.30466C9.83054 6.30466 10.1869 6.45332 10.4842 6.75066L13.6537 9.93166C13.951 10.229 14.0997 10.5802 14.0997 10.9852C14.0997 11.3905 13.951 11.7418 13.6537 12.0392C13.356 12.3365 12.9995 12.4852 12.5842 12.4852C12.1689 12.4852 11.8125 12.3365 11.5152 12.0392L8.34571 8.86966C8.04838 8.57232 7.89971 8.21916 7.89971 7.81016C7.89971 7.40116 8.04838 7.04799 8.34571 6.75066C8.64338 6.45332 8.99988 6.30466 9.41521 6.30466ZM10.4842 31.4257C10.4842 31.8347 10.3355 32.1878 10.0382 32.4852L6.86871 35.6547C6.57138 35.952 6.21821 36.1007 5.80921 36.1007C5.40021 36.1007 5.04704 35.952 4.74971 35.6547C4.45238 35.357 4.30371 35.0005 4.30371 34.5852C4.30371 34.1698 4.45238 33.8135 4.74971 33.5162L7.93071 30.3467C8.22804 30.0493 8.57921 29.9038 8.98421 29.9102C9.38954 29.9168 9.74088 30.0688 10.0382 30.3662C10.3355 30.6635 10.4842 31.0167 10.4842 31.4257ZM23.9997 33.9352L15.3342 39.1467C15.0445 39.316 14.7542 39.3872 14.4632 39.3602C14.1722 39.3332 13.9087 39.2352 13.6727 39.0662C13.437 38.8968 13.255 38.6757 13.1267 38.4027C12.9984 38.1297 12.9779 37.8277 13.0652 37.4967L15.3612 27.7007L7.70371 21.0812C7.44738 20.8582 7.28704 20.5998 7.22271 20.3062C7.15871 20.0128 7.18054 19.7277 7.28821 19.4507C7.39588 19.1737 7.55104 18.9473 7.75371 18.7717C7.95604 18.596 8.23288 18.4813 8.58421 18.4277L18.6692 17.5582L22.5922 8.29315C22.7202 7.98282 22.9144 7.75332 23.1747 7.60466C23.435 7.45599 23.71 7.38166 23.9997 7.38166C24.2894 7.38166 24.5644 7.45599 24.8247 7.60466C25.085 7.75332 25.2792 7.98282 25.4072 8.29315L29.3497 17.5582L39.4342 18.4277C39.7855 18.4813 40.0625 18.596 40.2652 18.7717C40.4675 18.9473 40.6225 19.1737 40.7302 19.4507C40.8382 19.7277 40.86 20.0128 40.7957 20.3062C40.7317 20.5998 40.5715 20.8582 40.3152 21.0812L32.6572 27.7007L34.9537 37.5162C35.0407 37.8468 35.0202 38.1455 34.8922 38.4122C34.7639 38.6788 34.5817 38.8968 34.3457 39.0662C34.11 39.2352 33.8467 39.3332 33.5557 39.3602C33.2647 39.3872 32.9742 39.316 32.6842 39.1467L23.9997 33.9352Z" fill="#FBBF24"/>
</mask>
<g mask="url(#mask1_365_8642)">
<path d="M39.0207 29.9007C39.4297 29.9007 39.7829 30.0493 40.0802 30.3467L43.2497 33.5467C43.547 33.8443 43.6957 34.1957 43.6957 34.6007C43.6957 35.0057 43.547 35.357 43.2497 35.6547C42.9524 35.952 42.601 36.1007 42.1957 36.1007C41.7907 36.1007 41.4395 35.952 41.1422 35.6547L37.9422 32.4852C37.6445 32.1878 37.499 31.8315 37.5057 31.4162C37.512 31.0008 37.6639 30.6443 37.9612 30.3467C38.2585 30.0493 38.6117 29.9007 39.0207 29.9007ZM40.0997 7.80066C40.0997 8.21599 39.951 8.57232 39.6537 8.86966L36.4842 12.0392C36.1869 12.3365 35.8337 12.4852 35.4247 12.4852C35.0157 12.4852 34.6625 12.3365 34.3652 12.0392C34.0679 11.7418 33.9192 11.3855 33.9192 10.9702C33.9192 10.5545 34.0679 10.198 34.3652 9.90066L37.5457 6.73166C37.8434 6.43399 38.1947 6.28516 38.5997 6.28516C39.0047 6.28516 39.356 6.43399 39.6537 6.73166C39.951 7.02899 40.0997 7.38532 40.0997 7.80066ZM9.41521 6.30466C9.83054 6.30466 10.1869 6.45332 10.4842 6.75066L13.6537 9.93166C13.951 10.229 14.0997 10.5802 14.0997 10.9852C14.0997 11.3905 13.951 11.7418 13.6537 12.0392C13.356 12.3365 12.9995 12.4852 12.5842 12.4852C12.1689 12.4852 11.8125 12.3365 11.5152 12.0392L8.34571 8.86966C8.04838 8.57232 7.89971 8.21916 7.89971 7.81016C7.89971 7.40116 8.04838 7.04799 8.34571 6.75066C8.64338 6.45332 8.99988 6.30466 9.41521 6.30466ZM10.4842 31.4257C10.4842 31.8347 10.3355 32.1878 10.0382 32.4852L6.86871 35.6547C6.57138 35.952 6.21821 36.1007 5.80921 36.1007C5.40021 36.1007 5.04704 35.952 4.74971 35.6547C4.45238 35.357 4.30371 35.0005 4.30371 34.5852C4.30371 34.1698 4.45238 33.8135 4.74971 33.5162L7.93071 30.3467C8.22804 30.0493 8.57921 29.9038 8.98421 29.9102C9.38954 29.9168 9.74088 30.0688 10.0382 30.3662C10.3355 30.6635 10.4842 31.0167 10.4842 31.4257ZM23.9997 33.9352L15.3342 39.1467C15.0445 39.316 14.7542 39.3872 14.4632 39.3602C14.1722 39.3332 13.9087 39.2352 13.6727 39.0662C13.437 38.8968 13.255 38.6757 13.1267 38.4027C12.9984 38.1297 12.9779 37.8277 13.0652 37.4967L15.3612 27.7007L7.70371 21.0812C7.44738 20.8582 7.28704 20.5998 7.22271 20.3062C7.15871 20.0128 7.18054 19.7277 7.28821 19.4507C7.39588 19.1737 7.55104 18.9473 7.75371 18.7717C7.95604 18.596 8.23288 18.4813 8.58421 18.4277L18.6692 17.5582L22.5922 8.29315C22.7202 7.98282 22.9144 7.75332 23.1747 7.60466C23.435 7.45599 23.71 7.38166 23.9997 7.38166C24.2894 7.38166 24.5644 7.45599 24.8247 7.60466C25.085 7.75332 25.2792 7.98282 25.4072 8.29315L29.3497 17.5582L39.4342 18.4277C39.7855 18.4813 40.0625 18.596 40.2652 18.7717C40.4675 18.9473 40.6225 19.1737 40.7302 19.4507C40.8382 19.7277 40.86 20.0128 40.7957 20.3062C40.7317 20.5998 40.5715 20.8582 40.3152 21.0812L32.6572 27.7007L34.9537 37.5162C35.0407 37.8468 35.0202 38.1455 34.8922 38.4122C34.7639 38.6788 34.5817 38.8968 34.3457 39.0662C34.11 39.2352 33.8467 39.3332 33.5557 39.3602C33.2647 39.3872 32.9742 39.316 32.6842 39.1467L23.9997 33.9352Z" fill="#FBBF24"/>
<g opacity="0.4" style="mix-blend-mode:multiply">
<circle cx="39" cy="56.25" r="40.5" fill="#FBBF24"/>
</g>
<g opacity="0.5" style="mix-blend-mode:multiply">
<circle cx="39" cy="71.25" r="40.5" fill="#FBBF24"/>
</g>
</g>
</svg>
