<svg width="16" height="16" viewBox="0 0 16 16" fill="none" xmlns="http://www.w3.org/2000/svg">
<mask id="mask0_369_15149" style="mask-type:alpha" maskUnits="userSpaceOnUse" x="0" y="0" width="16" height="16">
<rect width="16" height="16" fill="#D9D9D9"/>
</mask>
<g mask="url(#mask0_369_15149)">
<path d="M8.00033 13.3327C6.51144 13.3327 5.25033 12.816 4.21699 11.7827C3.18366 10.7493 2.66699 9.48824 2.66699 7.99935C2.66699 6.51046 3.18366 5.24935 4.21699 4.21602C5.25033 3.18268 6.51144 2.66602 8.00033 2.66602C8.76699 2.66602 9.50033 2.82435 10.2003 3.14102C10.9003 3.45768 11.5003 3.91046 12.0003 4.49935V2.66602H13.3337V7.33268H8.66699V5.99935H11.467C11.1114 5.37713 10.6253 4.88824 10.0087 4.53268C9.39199 4.17713 8.72255 3.99935 8.00033 3.99935C6.88921 3.99935 5.94477 4.38824 5.16699 5.16602C4.38921 5.94379 4.00033 6.88824 4.00033 7.99935C4.00033 9.11046 4.38921 10.0549 5.16699 10.8327C5.94477 11.6105 6.88921 11.9993 8.00033 11.9993C8.85588 11.9993 9.6281 11.7549 10.317 11.266C11.0059 10.7771 11.4892 10.1327 11.767 9.33268H13.167C12.8559 10.5105 12.2225 11.4716 11.267 12.216C10.3114 12.9605 9.22255 13.3327 8.00033 13.3327Z" fill="#15803D"/>
</g>
</svg>
