<svg width="24" height="24" viewBox="0 0 24 24" fill="none" xmlns="http://www.w3.org/2000/svg">
<path d="M12 0.75C18.2132 0.75 23.25 5.7868 23.25 12C23.25 18.2132 18.2132 23.25 12 23.25C5.7868 23.25 0.75 18.2132 0.75 12C0.75 5.7868 5.7868 0.75 12 0.75Z" fill="#3B82F6" fill-opacity="0.1"/>
<path d="M12 0.75C18.2132 0.75 23.25 5.7868 23.25 12C23.25 18.2132 18.2132 23.25 12 23.25C5.7868 23.25 0.75 18.2132 0.75 12C0.75 5.7868 5.7868 0.75 12 0.75Z" stroke="#3B82F6" stroke-width="1.5" stroke-linecap="round"/>
<mask id="mask0_348_18853" style="mask-type:alpha" maskUnits="userSpaceOnUse" x="4" y="4" width="16" height="16">
<rect x="4" y="4" width="16" height="16" fill="#D9D9D9"/>
</mask>
<g mask="url(#mask0_348_18853)">
<path d="M10.3668 13.9644L15.9451 8.38604C16.097 8.23415 16.2751 8.1582 16.4795 8.1582C16.6838 8.1582 16.862 8.23415 17.014 8.38604C17.1658 8.53804 17.2418 8.71831 17.2418 8.92687C17.2418 9.13543 17.1658 9.3157 17.014 9.4677L10.9013 15.593C10.7493 15.7449 10.5711 15.8209 10.3668 15.8209C10.1625 15.8209 9.98429 15.7449 9.83229 15.593L6.97362 12.7344C6.82174 12.5824 6.7479 12.4021 6.75212 12.1935C6.75635 11.985 6.8344 11.8047 6.98629 11.6527C7.13829 11.5008 7.31857 11.4249 7.52712 11.4249C7.73568 11.4249 7.91596 11.5008 8.06796 11.6527L10.3668 13.9644Z" fill="#3B82F6"/>
</g>
</svg>
