<svg width="40" height="40" viewBox="0 0 40 40" fill="none" xmlns="http://www.w3.org/2000/svg">
<g clip-path="url(#clip0_368_15041)">
<path d="M0 16C0 10.3995 0 7.59921 1.08993 5.46009C2.04867 3.57847 3.57847 2.04867 5.46009 1.08993C7.59921 0 10.3995 0 16 0H24C29.6005 0 32.4008 0 34.5399 1.08993C36.4215 2.04867 37.9513 3.57847 38.9101 5.46009C40 7.59921 40 10.3995 40 16V24C40 29.6005 40 32.4008 38.9101 34.5399C37.9513 36.4215 36.4215 37.9513 34.5399 38.9101C32.4008 40 29.6005 40 24 40H16C10.3995 40 7.59921 40 5.46009 38.9101C3.57847 37.9513 2.04867 36.4215 1.08993 34.5399C0 32.4008 0 29.6005 0 24V16Z" fill="#FEF3C7"/>
<circle cx="32.5" cy="46.25" r="33.75" fill="#FEF3C7"/>
<circle cx="32.5" cy="58.752" r="33.75" fill="#FEF3C7"/>
<mask id="mask0_368_15041" style="mask-type:alpha" maskUnits="userSpaceOnUse" x="8" y="8" width="24" height="24">
<rect x="8" y="8" width="24" height="24" fill="#D9D9D9"/>
</mask>
<g mask="url(#mask0_368_15041)">
<path d="M23.1202 23.0433C22.6042 22.5273 22.3462 21.9007 22.3462 21.1635C22.3462 20.4263 22.6042 19.7998 23.1202 19.2838C23.6362 18.7678 24.2628 18.5098 25 18.5098C25.7372 18.5098 26.3638 18.7678 26.8798 19.2838C27.3958 19.7998 27.6538 20.4263 27.6538 21.1635C27.6538 21.9007 27.3958 22.5273 26.8798 23.0433C26.3638 23.5593 25.7372 23.8173 25 23.8173C24.2628 23.8173 23.6362 23.5593 23.1202 23.0433ZM16.9615 27.7153V28.5H13.3123C12.8106 28.5 12.3831 28.323 12.0298 27.969C11.6766 27.615 11.5 27.1894 11.5 26.6923V13.3077C11.5 12.8106 11.677 12.385 12.031 12.031C12.385 11.677 12.8106 11.5 13.3077 11.5H26.6923C27.1894 11.5 27.615 11.677 27.969 12.031C28.323 12.385 28.5 12.8106 28.5 13.3077V17.6538C28.0282 17.1576 27.5041 16.7788 26.9277 16.5173C26.3516 16.2558 25.709 16.125 25 16.125C24.9552 16.125 24.9135 16.1266 24.875 16.1298C24.8365 16.1331 24.7948 16.1379 24.75 16.1443V16.1155C24.75 15.903 24.6781 15.7248 24.5343 15.581C24.3906 15.4373 24.2125 15.3655 24 15.3655H16C15.7875 15.3655 15.6094 15.4374 15.4658 15.5813C15.3219 15.7249 15.25 15.9031 15.25 16.1158C15.25 16.3283 15.3219 16.5063 15.4658 16.65C15.6094 16.7935 15.7875 16.8652 16 16.8652H22.4615C21.9872 17.1319 21.5702 17.4672 21.2105 17.8712C20.851 18.2751 20.5635 18.7347 20.348 19.25H16C15.7875 19.25 15.6094 19.3219 15.4658 19.4658C15.3219 19.6096 15.25 19.7878 15.25 20.0003C15.25 20.2129 15.3219 20.391 15.4658 20.5345C15.6094 20.6782 15.7875 20.75 16 20.75H20.0095C19.9775 21.132 19.9878 21.5105 20.0405 21.8855C20.093 22.2605 20.1859 22.6288 20.3193 22.9905C20.2616 23.016 20.2055 23.04 20.151 23.0625C20.0965 23.085 20.0436 23.1091 19.9923 23.1348H16C15.7875 23.1348 15.6094 23.2066 15.4658 23.3503C15.3219 23.4941 15.25 23.6723 15.25 23.885C15.25 24.0975 15.3219 24.2756 15.4658 24.4193C15.6094 24.5628 15.7875 24.6345 16 24.6345H18.373C17.9295 25.0178 17.5833 25.4803 17.3345 26.022C17.0858 26.5637 16.9615 27.1281 16.9615 27.7153ZM20.25 30.2693C19.994 30.2693 19.7793 30.1826 19.606 30.0093C19.4328 29.8361 19.3463 29.6214 19.3463 29.3652V27.7153C19.3463 27.4258 19.4153 27.1535 19.5533 26.8985C19.6913 26.6435 19.8844 26.4402 20.1328 26.2885C20.6276 25.991 21.0503 25.783 21.401 25.6645C21.7517 25.5458 22.2135 25.4389 22.7865 25.3438C22.9725 25.3121 23.1558 25.3159 23.3365 25.3552C23.5173 25.3946 23.668 25.4852 23.7885 25.627L25 27.125L26.1865 25.627C26.307 25.4732 26.4577 25.3796 26.6385 25.3462C26.8192 25.3129 27.0033 25.3121 27.1908 25.3438C27.7688 25.4389 28.2308 25.5455 28.577 25.6635C28.9233 25.7813 29.3483 25.9897 29.852 26.2885C30.1007 26.4397 30.2948 26.6422 30.4345 26.8962C30.5743 27.1501 30.6474 27.4199 30.6538 27.7057V29.3652C30.6538 29.6214 30.5672 29.8361 30.394 30.0093C30.2207 30.1826 30.006 30.2693 29.75 30.2693H20.25Z" fill="#F59E0B"/>
</g>
</g>
<defs>
<clipPath id="clip0_368_15041">
<path d="M0 16C0 10.3995 0 7.59921 1.08993 5.46009C2.04867 3.57847 3.57847 2.04867 5.46009 1.08993C7.59921 0 10.3995 0 16 0H24C29.6005 0 32.4008 0 34.5399 1.08993C36.4215 2.04867 37.9513 3.57847 38.9101 5.46009C40 7.59921 40 10.3995 40 16V24C40 29.6005 40 32.4008 38.9101 34.5399C37.9513 36.4215 36.4215 37.9513 34.5399 38.9101C32.4008 40 29.6005 40 24 40H16C10.3995 40 7.59921 40 5.46009 38.9101C3.57847 37.9513 2.04867 36.4215 1.08993 34.5399C0 32.4008 0 29.6005 0 24V16Z" fill="white"/>
</clipPath>
</defs>
</svg>
