<svg width="24" height="24" viewBox="0 0 24 24" fill="none" xmlns="http://www.w3.org/2000/svg">
<mask id="mask0_368_13320" style="mask-type:alpha" maskUnits="userSpaceOnUse" x="0" y="0" width="24" height="24">
<rect width="24" height="24" fill="#D9D9D9"/>
</mask>
<g mask="url(#mask0_368_13320)">
<path d="M8.375 11.0354C8.375 11.8789 8.79167 12.6856 9.625 13.4554C10.4583 14.2253 11.1513 14.8679 11.7038 15.3834C11.7974 15.4603 11.8988 15.4987 12.0078 15.4987C12.1168 15.4987 12.2171 15.4608 12.3088 15.3852C12.8593 14.8852 13.5496 14.241 14.3798 13.4527C15.2099 12.6642 15.625 11.8584 15.625 11.0354C15.625 10.4931 15.4283 10.0261 15.0348 9.63442C14.6411 9.24275 14.1718 9.04692 13.627 9.04692C13.3025 9.04692 12.9949 9.11092 12.7043 9.23892C12.4136 9.36692 12.1788 9.54392 12 9.76992C11.8192 9.54392 11.5857 9.36692 11.2995 9.23892C11.0133 9.11092 10.7045 9.04692 10.373 9.04692C9.83083 9.04692 9.36225 9.24275 8.96725 9.63442C8.57242 10.0261 8.375 10.4931 8.375 11.0354ZM11.6942 21.3467C11.5942 21.33 11.4974 21.305 11.4037 21.2717C9.29492 20.5217 7.61708 19.1919 6.37025 17.2824C5.12342 15.3728 4.5 13.3122 4.5 11.1007V6.59692C4.5 6.21709 4.60925 5.87517 4.82775 5.57117C5.04608 5.26734 5.3285 5.04709 5.675 4.91042L11.3672 2.78542C11.5814 2.70842 11.7923 2.66992 12 2.66992C12.2077 2.66992 12.4186 2.70842 12.6328 2.78542L18.325 4.91042C18.6715 5.04709 18.9539 5.26734 19.1723 5.57117C19.3908 5.87517 19.5 6.21709 19.5 6.59692V11.1007C19.5 13.3122 18.8766 15.3728 17.6298 17.2824C16.3829 19.1919 14.7051 20.5217 12.5963 21.2717C12.5026 21.305 12.4058 21.33 12.3058 21.3467C12.2058 21.3633 12.1038 21.3717 12 21.3717C11.8962 21.3717 11.7942 21.3633 11.6942 21.3467Z" fill="#14B8A6"/>
</g>
</svg>
