<svg width="20" height="20" viewBox="0 0 20 20" fill="none" xmlns="http://www.w3.org/2000/svg">
<mask id="mask0_348_18980" style="mask-type:alpha" maskUnits="userSpaceOnUse" x="0" y="0" width="20" height="20">
<rect width="20" height="20" fill="#D9D9D9"/>
</mask>
<g mask="url(#mask0_348_18980)">
<path d="M9.6416 11.1658C9.52563 11.1337 9.41049 11.0883 9.29618 11.0296L2.49493 7.41271C2.35813 7.33465 2.25987 7.23847 2.20014 7.12417C2.14028 7.00986 2.11035 6.88437 2.11035 6.74771C2.11035 6.6109 2.14028 6.48535 2.20014 6.37104C2.25987 6.25674 2.35813 6.16055 2.49493 6.0825L9.29618 2.46562C9.41049 2.40687 9.52563 2.36146 9.6416 2.32937C9.75744 2.29729 9.87681 2.28125 9.99973 2.28125C10.1226 2.28125 10.242 2.29729 10.3579 2.32937C10.4738 2.36146 10.589 2.40687 10.7033 2.46562L17.5124 6.0825C17.6492 6.16055 17.7476 6.25674 17.8074 6.37104C17.8673 6.48535 17.8972 6.6109 17.8972 6.74771C17.8972 6.88437 17.8673 7.00986 17.8074 7.12417C17.7476 7.23847 17.6492 7.33465 17.5124 7.41271L10.7033 11.0296C10.589 11.0883 10.4738 11.1337 10.3579 11.1658C10.242 11.1979 10.1226 11.214 9.99973 11.214C9.87681 11.214 9.75744 11.1979 9.6416 11.1658ZM9.99973 9.98812L16.1439 6.74771L9.99973 3.50729L3.86348 6.74771L9.99973 9.98812ZM9.99973 13.2412L16.6695 9.71083C16.7027 9.69153 16.816 9.67285 17.0093 9.65479C17.176 9.66535 17.3124 9.72785 17.4187 9.84229C17.5251 9.9566 17.5783 10.0971 17.5783 10.2637C17.5783 10.379 17.5529 10.4831 17.502 10.576C17.4513 10.6691 17.3683 10.7466 17.2529 10.8085L10.7033 14.2829C10.589 14.3417 10.4738 14.3871 10.3579 14.4192C10.242 14.4511 10.1226 14.4671 9.99973 14.4671C9.87681 14.4671 9.75744 14.4511 9.6416 14.4192C9.52563 14.3871 9.41049 14.3417 9.29618 14.2829L2.75452 10.8085C2.6391 10.7466 2.55473 10.6691 2.50139 10.576C2.44792 10.4831 2.42119 10.379 2.42119 10.2637C2.42119 10.0971 2.4757 9.9566 2.58473 9.84229C2.69362 9.72785 2.83139 9.66535 2.99806 9.65479C3.05681 9.6441 3.11348 9.64382 3.16806 9.65396C3.2225 9.6641 3.2791 9.68306 3.33785 9.71083L9.99973 13.2412ZM9.99973 16.4944L16.6695 12.964C16.7027 12.9448 16.816 12.9261 17.0093 12.9079C17.176 12.9186 17.3124 12.9811 17.4187 13.0954C17.5251 13.2097 17.5783 13.3502 17.5783 13.5169C17.5783 13.6323 17.5529 13.7365 17.502 13.8294C17.4513 13.9223 17.3683 13.9997 17.2529 14.0617L10.7033 17.536C10.589 17.5948 10.4738 17.6402 10.3579 17.6723C10.242 17.7044 10.1226 17.7204 9.99973 17.7204C9.87681 17.7204 9.75744 17.7044 9.6416 17.6723C9.52563 17.6402 9.41049 17.5948 9.29618 17.536L2.75452 14.0617C2.6391 13.9997 2.55473 13.9223 2.50139 13.8294C2.44792 13.7365 2.42119 13.6323 2.42119 13.5169C2.42119 13.3502 2.4757 13.2097 2.58473 13.0954C2.69362 12.9811 2.83139 12.9186 2.99806 12.9079C3.05681 12.8972 3.11348 12.8969 3.16806 12.9071C3.2225 12.9172 3.2791 12.9362 3.33785 12.964L9.99973 16.4944Z" fill="#A3A3A3"/>
</g>
</svg>
