<svg width="16" height="16" viewBox="0 0 16 16" fill="none" xmlns="http://www.w3.org/2000/svg">
<mask id="mask0_369_15155" style="mask-type:alpha" maskUnits="userSpaceOnUse" x="0" y="0" width="16" height="16">
<rect width="16" height="16" fill="#D9D9D9"/>
</mask>
<g mask="url(#mask0_369_15155)">
<path d="M5.41634 14.1423C4.60523 13.7923 3.8969 13.3145 3.29134 12.709C2.68579 12.1034 2.20801 11.3951 1.85801 10.584C1.50801 9.77287 1.33301 8.90898 1.33301 7.99232C1.33301 7.07565 1.50801 6.21454 1.85801 5.40898C2.20801 4.60343 2.68579 3.89787 3.29134 3.29232C3.8969 2.68676 4.60523 2.20898 5.41634 1.85898C6.22745 1.50898 7.09134 1.33398 8.00801 1.33398C8.92467 1.33398 9.78578 1.50898 10.5913 1.85898C11.3969 2.20898 12.1025 2.68676 12.708 3.29232C13.3136 3.89787 13.7913 4.60343 14.1413 5.40898C14.4913 6.21454 14.6663 7.07565 14.6663 7.99232C14.6663 8.90898 14.4913 9.77287 14.1413 10.584C13.7913 11.3951 13.3136 12.1034 12.708 12.709C12.1025 13.3145 11.3969 13.7923 10.5913 14.1423C9.78578 14.4923 8.92467 14.6673 8.00801 14.6673C7.09134 14.6673 6.22745 14.4923 5.41634 14.1423ZM10.833 10.834C11.6108 10.0562 11.9997 9.11176 11.9997 8.00065C11.9997 6.88954 11.6108 5.9451 10.833 5.16732C10.0552 4.38954 9.11079 4.00065 7.99967 4.00065C6.88856 4.00065 5.94412 4.38954 5.16634 5.16732C4.38856 5.9451 3.99967 6.88954 3.99967 8.00065C3.99967 9.11176 4.38856 10.0562 5.16634 10.834C5.94412 11.6118 6.88856 12.0007 7.99967 12.0007C9.11079 12.0007 10.0552 11.6118 10.833 10.834Z" fill="#22C55E"/>
</g>
</svg>
