<svg width="40" height="40" viewBox="0 0 40 40" fill="none" xmlns="http://www.w3.org/2000/svg">
<g clip-path="url(#clip0_368_15035)">
<path d="M0 16C0 10.3995 0 7.59921 1.08993 5.46009C2.04867 3.57847 3.57847 2.04867 5.46009 1.08993C7.59921 0 10.3995 0 16 0H24C29.6005 0 32.4008 0 34.5399 1.08993C36.4215 2.04867 37.9513 3.57847 38.9101 5.46009C40 7.59921 40 10.3995 40 16V24C40 29.6005 40 32.4008 38.9101 34.5399C37.9513 36.4215 36.4215 37.9513 34.5399 38.9101C32.4008 40 29.6005 40 24 40H16C10.3995 40 7.59921 40 5.46009 38.9101C3.57847 37.9513 2.04867 36.4215 1.08993 34.5399C0 32.4008 0 29.6005 0 24V16Z" fill="#DBEAFE"/>
<circle cx="32.5" cy="46.25" r="33.75" fill="#DBEAFE"/>
<circle cx="32.5" cy="58.752" r="33.75" fill="#DBEAFE"/>
<mask id="mask0_368_15035" style="mask-type:alpha" maskUnits="userSpaceOnUse" x="8" y="8" width="24" height="24">
<rect x="8" y="8" width="24" height="24" fill="#D9D9D9"/>
</mask>
<g mask="url(#mask0_368_15035)">
<path d="M20.0017 29.5C18.6877 29.5 17.4527 29.2507 16.2965 28.752C15.1403 28.2533 14.1347 27.5766 13.2795 26.7218C12.4243 25.8669 11.7472 24.8617 11.2482 23.706C10.7494 22.5503 10.5 21.3156 10.5 20.0017C10.5 18.6877 10.7493 17.4527 11.248 16.2965C11.7467 15.1403 12.4234 14.1347 13.2783 13.2795C14.1331 12.4243 15.1383 11.7472 16.294 11.2482C17.4497 10.7494 18.6844 10.5 19.9983 10.5C21.3123 10.5 22.5473 10.7493 23.7035 11.248C24.8597 11.7467 25.8653 12.4234 26.7205 13.2783C27.5757 14.1331 28.2528 15.1383 28.7518 16.294C29.2506 17.4497 29.5 18.6844 29.5 19.9983C29.5 21.3123 29.2507 22.5473 28.752 23.7035C28.2533 24.8597 27.5766 25.8653 26.7218 26.7205C25.8669 27.5757 24.8617 28.2528 23.706 28.7518C22.5503 29.2506 21.3156 29.5 20.0017 29.5Z" fill="#3B82F6"/>
</g>
</g>
<defs>
<clipPath id="clip0_368_15035">
<path d="M0 16C0 10.3995 0 7.59921 1.08993 5.46009C2.04867 3.57847 3.57847 2.04867 5.46009 1.08993C7.59921 0 10.3995 0 16 0H24C29.6005 0 32.4008 0 34.5399 1.08993C36.4215 2.04867 37.9513 3.57847 38.9101 5.46009C40 7.59921 40 10.3995 40 16V24C40 29.6005 40 32.4008 38.9101 34.5399C37.9513 36.4215 36.4215 37.9513 34.5399 38.9101C32.4008 40 29.6005 40 24 40H16C10.3995 40 7.59921 40 5.46009 38.9101C3.57847 37.9513 2.04867 36.4215 1.08993 34.5399C0 32.4008 0 29.6005 0 24V16Z" fill="white"/>
</clipPath>
</defs>
</svg>
