<svg width="48" height="48" viewBox="0 0 48 48" fill="none" xmlns="http://www.w3.org/2000/svg">
<mask id="mask0_365_8635" style="mask-type:alpha" maskUnits="userSpaceOnUse" x="0" y="0" width="48" height="48">
<rect width="48" height="48" fill="#D9D9D9"/>
</mask>
<g mask="url(#mask0_365_8635)">
</g>
<mask id="mask1_365_8635" style="mask-type:alpha" maskUnits="userSpaceOnUse" x="6" y="5" width="36" height="37">
<path d="M7.02164 9.1195C7.31931 8.82183 7.66747 8.673 8.06614 8.673C8.46481 8.673 8.81931 8.82183 9.12964 9.1195L11.1181 11.058C11.4281 11.3553 11.5831 11.7085 11.5831 12.1175C11.5831 12.5265 11.4281 12.886 11.1181 13.196C10.8205 13.4937 10.4671 13.6425 10.0581 13.6425C9.64914 13.6425 9.28964 13.4937 8.97964 13.196L7.02164 11.227C6.71164 10.9297 6.55664 10.5815 6.55664 10.1825C6.55664 9.78384 6.71164 9.4295 7.02164 9.1195ZM25.0871 5.431C25.3741 5.718 25.5176 6.07433 25.5176 6.5V9.2695C25.5176 9.69517 25.3741 10.0515 25.0871 10.3385C24.7998 10.6258 24.4433 10.7695 24.0176 10.7695C23.5923 10.7695 23.236 10.6258 22.9486 10.3385C22.6616 10.0515 22.5181 9.69517 22.5181 9.2695V6.5C22.5181 6.07433 22.6616 5.718 22.9486 5.431C23.236 5.14367 23.5923 5 24.0176 5C24.4433 5 24.7998 5.14367 25.0871 5.431ZM40.9446 9.1195C41.255 9.4295 41.405 9.78067 41.3946 10.173C41.3843 10.5653 41.2241 10.9167 40.9141 11.227L38.9561 13.196C38.6588 13.4937 38.3076 13.6457 37.9026 13.652C37.4973 13.6583 37.146 13.5063 36.8486 13.196C36.5513 12.8987 36.4058 12.5423 36.4121 12.127C36.4185 11.7117 36.5703 11.3553 36.8676 11.058L38.8061 9.1195C39.1038 8.82183 39.4603 8.673 39.8756 8.673C40.291 8.673 40.6473 8.82183 40.9446 9.1195ZM10.5371 27.5385H37.4791C37.8948 27.5385 38.1826 27.7225 38.3426 28.0905C38.503 28.4585 38.4293 28.7898 38.1216 29.0845L26.5486 40.4885C25.859 41.1782 25.0153 41.523 24.0176 41.523C23.0203 41.523 22.1768 41.1782 21.4871 40.4885L9.89464 29.0845C9.58697 28.7898 9.51331 28.4585 9.67364 28.0905C9.83397 27.7225 10.1218 27.5385 10.5371 27.5385ZM9.57164 23.0425L15.2986 16.0845C15.627 15.6565 16.0373 15.3303 16.5296 15.106C17.022 14.8817 17.5425 14.7695 18.0911 14.7695H29.9256C30.4743 14.7695 30.9948 14.8817 31.4871 15.106C31.9795 15.3303 32.3896 15.6565 32.7176 16.0845L38.4446 23.0425C38.6856 23.3502 38.7325 23.6763 38.5851 24.021C38.4378 24.366 38.1666 24.5385 37.7716 24.5385H10.2446C9.84997 24.5385 9.57881 24.366 9.43114 24.021C9.28381 23.6763 9.33064 23.3502 9.57164 23.0425Z" fill="#A855F7"/>
</mask>
<g mask="url(#mask1_365_8635)">
<path d="M7.02164 9.1195C7.31931 8.82183 7.66747 8.673 8.06614 8.673C8.46481 8.673 8.81931 8.82183 9.12964 9.1195L11.1181 11.058C11.4281 11.3553 11.5831 11.7085 11.5831 12.1175C11.5831 12.5265 11.4281 12.886 11.1181 13.196C10.8205 13.4937 10.4671 13.6425 10.0581 13.6425C9.64914 13.6425 9.28964 13.4937 8.97964 13.196L7.02164 11.227C6.71164 10.9297 6.55664 10.5815 6.55664 10.1825C6.55664 9.78384 6.71164 9.4295 7.02164 9.1195ZM25.0871 5.431C25.3741 5.718 25.5176 6.07433 25.5176 6.5V9.2695C25.5176 9.69517 25.3741 10.0515 25.0871 10.3385C24.7998 10.6258 24.4433 10.7695 24.0176 10.7695C23.5923 10.7695 23.236 10.6258 22.9486 10.3385C22.6616 10.0515 22.5181 9.69517 22.5181 9.2695V6.5C22.5181 6.07433 22.6616 5.718 22.9486 5.431C23.236 5.14367 23.5923 5 24.0176 5C24.4433 5 24.7998 5.14367 25.0871 5.431ZM40.9446 9.1195C41.255 9.4295 41.405 9.78067 41.3946 10.173C41.3843 10.5653 41.2241 10.9167 40.9141 11.227L38.9561 13.196C38.6588 13.4937 38.3076 13.6457 37.9026 13.652C37.4973 13.6583 37.146 13.5063 36.8486 13.196C36.5513 12.8987 36.4058 12.5423 36.4121 12.127C36.4185 11.7117 36.5703 11.3553 36.8676 11.058L38.8061 9.1195C39.1038 8.82183 39.4603 8.673 39.8756 8.673C40.291 8.673 40.6473 8.82183 40.9446 9.1195ZM10.5371 27.5385H37.4791C37.8948 27.5385 38.1826 27.7225 38.3426 28.0905C38.503 28.4585 38.4293 28.7898 38.1216 29.0845L26.5486 40.4885C25.859 41.1782 25.0153 41.523 24.0176 41.523C23.0203 41.523 22.1768 41.1782 21.4871 40.4885L9.89464 29.0845C9.58697 28.7898 9.51331 28.4585 9.67364 28.0905C9.83397 27.7225 10.1218 27.5385 10.5371 27.5385ZM9.57164 23.0425L15.2986 16.0845C15.627 15.6565 16.0373 15.3303 16.5296 15.106C17.022 14.8817 17.5425 14.7695 18.0911 14.7695H29.9256C30.4743 14.7695 30.9948 14.8817 31.4871 15.106C31.9795 15.3303 32.3896 15.6565 32.7176 16.0845L38.4446 23.0425C38.6856 23.3502 38.7325 23.6763 38.5851 24.021C38.4378 24.366 38.1666 24.5385 37.7716 24.5385H10.2446C9.84997 24.5385 9.57881 24.366 9.43114 24.021C9.28381 23.6763 9.33064 23.3502 9.57164 23.0425Z" fill="#A855F7"/>
<g opacity="0.5" style="mix-blend-mode:multiply">
<circle cx="39" cy="56.25" r="40.5" fill="#A855F7"/>
</g>
<g opacity="0.5" style="mix-blend-mode:multiply">
<circle cx="39" cy="71.25" r="40.5" fill="#A855F7"/>
</g>
</g>
</svg>
