<svg width="16" height="16" viewBox="0 0 16 16" fill="none" xmlns="http://www.w3.org/2000/svg">
<mask id="mask0_348_18850" style="mask-type:alpha" maskUnits="userSpaceOnUse" x="0" y="0" width="16" height="16">
<rect width="16" height="16" fill="#D9D9D9"/>
</mask>
<g mask="url(#mask0_348_18850)">
<path d="M9.88734 8.00065L4.86551 2.97882C4.73306 2.84637 4.66856 2.68871 4.67201 2.50582C4.67545 2.32293 4.7434 2.16521 4.87584 2.03265C5.00828 1.90021 5.16595 1.83398 5.34884 1.83398C5.53173 1.83398 5.68945 1.90021 5.82201 2.03265L10.9258 7.14682C11.0463 7.26737 11.1356 7.40243 11.1937 7.55198C11.2519 7.70154 11.281 7.8511 11.281 8.00065C11.281 8.15021 11.2519 8.29976 11.1937 8.44932C11.1356 8.59887 11.0463 8.73393 10.9258 8.85448L5.81167 13.9687C5.67923 14.1011 5.52328 14.1656 5.34384 14.1622C5.16428 14.1587 5.00828 14.0908 4.87584 13.9583C4.7434 13.8259 4.67717 13.6682 4.67717 13.4853C4.67717 13.3024 4.7434 13.1447 4.87584 13.0122L9.88734 8.00065Z" fill="#737373"/>
</g>
</svg>
