<svg width="20" height="20" viewBox="0 0 20 20" fill="none" xmlns="http://www.w3.org/2000/svg">
<mask id="mask0_348_18986" style="mask-type:alpha" maskUnits="userSpaceOnUse" x="0" y="0" width="20" height="20">
<rect width="20" height="20" fill="#D9D9D9"/>
</mask>
<g mask="url(#mask0_348_18986)">
<path d="M13.1728 17.0827C12.832 17.0827 12.5384 16.9596 12.2922 16.7133C12.0459 16.4671 11.9228 16.1735 11.9228 15.8327V12.3391C11.9228 11.9983 12.0459 11.7048 12.2922 11.4585C12.5384 11.2123 12.832 11.0891 13.1728 11.0891H16.6663C17.0072 11.0891 17.3007 11.2123 17.547 11.4585C17.7932 11.7048 17.9163 11.9983 17.9163 12.3391V15.8327C17.9163 16.1735 17.7932 16.4671 17.547 16.7133C17.3007 16.9596 17.0072 17.0827 16.6663 17.0827H13.1728ZM13.1728 15.8327H16.6663V12.3391H13.1728V15.8327ZM2.70801 14.7108C2.53065 14.7108 2.38217 14.651 2.26259 14.5314C2.14287 14.4117 2.08301 14.2632 2.08301 14.0858C2.08301 13.9084 2.14287 13.76 2.26259 13.6404C2.38217 13.5207 2.53065 13.4608 2.70801 13.4608H8.63759C8.81495 13.4608 8.96342 13.5207 9.08301 13.6404C9.20273 13.76 9.26259 13.9084 9.26259 14.0858C9.26259 14.2632 9.20273 14.4117 9.08301 14.5314C8.96342 14.651 8.81495 14.7108 8.63759 14.7108H2.70801ZM13.1728 8.90956C12.832 8.90956 12.5384 8.78643 12.2922 8.54018C12.0459 8.29393 11.9228 8.00039 11.9228 7.65956V4.16602C11.9228 3.82518 12.0459 3.53164 12.2922 3.28539C12.5384 3.03914 12.832 2.91602 13.1728 2.91602H16.6663C17.0072 2.91602 17.3007 3.03914 17.547 3.28539C17.7932 3.53164 17.9163 3.82518 17.9163 4.16602V7.65956C17.9163 8.00039 17.7932 8.29393 17.547 8.54018C17.3007 8.78643 17.0072 8.90956 16.6663 8.90956H13.1728ZM13.1728 7.65956H16.6663V4.16602H13.1728V7.65956ZM2.70801 6.53789C2.53065 6.53789 2.38217 6.47803 2.26259 6.35831C2.14287 6.23872 2.08301 6.09025 2.08301 5.91289C2.08301 5.73553 2.14287 5.58699 2.26259 5.46727C2.38217 5.34768 2.53065 5.28789 2.70801 5.28789H8.63759C8.81495 5.28789 8.96342 5.34768 9.08301 5.46727C9.20273 5.58699 9.26259 5.73553 9.26259 5.91289C9.26259 6.09025 9.20273 6.23872 9.08301 6.35831C8.96342 6.47803 8.81495 6.53789 8.63759 6.53789H2.70801Z" fill="#A3A3A3"/>
</g>
</svg>
