<svg width="20" height="20" viewBox="0 0 20 20" fill="none" xmlns="http://www.w3.org/2000/svg">
<mask id="mask0_348_18995" style="mask-type:alpha" maskUnits="userSpaceOnUse" x="0" y="0" width="20" height="20">
<rect width="20" height="20" fill="#D9D9D9"/>
</mask>
<g mask="url(#mask0_348_18995)">
<path d="M7.93833 8.88849C7.36833 8.31863 7.08333 7.63141 7.08333 6.82682C7.08333 6.02238 7.36833 5.33516 7.93833 4.76516C8.50833 4.19516 9.19556 3.91016 10 3.91016C10.8044 3.91016 11.4917 4.19516 12.0617 4.76516C12.6317 5.33516 12.9167 6.02238 12.9167 6.82682C12.9167 7.63141 12.6317 8.31863 12.0617 8.88849C11.4917 9.45849 10.8044 9.74349 10 9.74349C9.19556 9.74349 8.50833 9.45849 7.93833 8.88849ZM3.75 14.8237V14.237C3.75 13.829 3.86083 13.4511 4.0825 13.1033C4.30417 12.7555 4.60042 12.4881 4.97125 12.3012C5.79486 11.8974 6.62576 11.5946 7.46396 11.3927C8.30215 11.1907 9.1475 11.0897 10 11.0897C10.8525 11.0897 11.6978 11.1907 12.536 11.3927C13.3742 11.5946 14.2051 11.8974 15.0287 12.3012C15.3996 12.4881 15.6958 12.7555 15.9175 13.1033C16.1392 13.4511 16.25 13.829 16.25 14.237V14.8237C16.25 15.1751 16.1269 15.474 15.8806 15.7204C15.6344 15.9666 15.3355 16.0897 14.984 16.0897H5.01604C4.66451 16.0897 4.36562 15.9666 4.11937 15.7204C3.87312 15.474 3.75 15.1751 3.75 14.8237ZM5 14.8397H15V14.237C15 14.0683 14.9511 13.912 14.8533 13.7683C14.7556 13.6247 14.6228 13.5074 14.4552 13.4166C13.7372 13.063 13.0056 12.7951 12.2604 12.6129C11.5153 12.4308 10.7618 12.3397 10 12.3397C9.23819 12.3397 8.48472 12.4308 7.73958 12.6129C6.99444 12.7951 6.26285 13.063 5.54479 13.4166C5.37715 13.5074 5.24444 13.6247 5.14667 13.7683C5.04889 13.912 5 14.0683 5 14.237V14.8397ZM11.1771 8.00391C11.5035 7.67752 11.6667 7.28516 11.6667 6.82682C11.6667 6.36849 11.5035 5.97613 11.1771 5.64974C10.8507 5.32335 10.4583 5.16016 10 5.16016C9.54167 5.16016 9.14931 5.32335 8.82292 5.64974C8.49653 5.97613 8.33333 6.36849 8.33333 6.82682C8.33333 7.28516 8.49653 7.67752 8.82292 8.00391C9.14931 8.33029 9.54167 8.49349 10 8.49349C10.4583 8.49349 10.8507 8.33029 11.1771 8.00391Z" fill="#A3A3A3"/>
</g>
</svg>
