<svg width="24" height="24" viewBox="0 0 24 24" fill="none" xmlns="http://www.w3.org/2000/svg">
<path d="M13.5664 0.101562C14.6247 0.239523 15.6388 0.517014 16.5918 0.912109L16.3066 1.60352C17.2207 1.98259 18.0744 2.47925 18.8486 3.07422L19.3037 2.48145C20.1346 3.11999 20.8789 3.86445 21.5176 4.69531L20.9258 5.15137C21.5208 5.92561 22.0174 6.77934 22.3965 7.69336L23.0869 7.40723C23.4821 8.36022 23.7594 9.37432 23.8975 10.4326L23.1553 10.5293C23.218 11.0102 23.25 11.5013 23.25 12C23.25 12.4987 23.218 12.9898 23.1553 13.4707L23.8975 13.5664C23.7595 14.6247 23.4821 15.6388 23.0869 16.5918L22.3965 16.3066C22.0174 17.2207 21.5208 18.0744 20.9258 18.8486L21.5176 19.3037C20.879 20.1347 20.1347 20.879 19.3037 21.5176L18.8486 20.9258C18.0744 21.5208 17.2207 22.0174 16.3066 22.3965L16.5918 23.0869C15.6388 23.4821 14.6247 23.7595 13.5664 23.8975L13.4707 23.1553C12.9898 23.218 12.4987 23.25 12 23.25C11.5013 23.25 11.0102 23.218 10.5293 23.1553L10.4326 23.8975C9.37432 23.7594 8.36022 23.4821 7.40723 23.0869L7.69336 22.3965C6.77934 22.0174 5.92561 21.5208 5.15137 20.9258L4.69531 21.5176C3.86445 20.8789 3.11999 20.1346 2.48145 19.3037L3.07422 18.8486C2.47925 18.0744 1.98259 17.2207 1.60352 16.3066L0.912109 16.5918C0.517014 15.6388 0.239523 14.6247 0.101562 13.5664L0.844727 13.4707C0.782 12.9898 0.75 12.4987 0.75 12C0.75 11.5013 0.782 11.0102 0.844727 10.5293L0.101562 10.4326C0.239605 9.37441 0.516948 8.36016 0.912109 7.40723L1.60352 7.69336C1.98259 6.77934 2.47925 5.92561 3.07422 5.15137L2.48145 4.69531C3.12 3.86447 3.86447 3.12 4.69531 2.48145L5.15137 3.07422C5.92561 2.47925 6.77934 1.98259 7.69336 1.60352L7.40723 0.912109C8.36016 0.516948 9.37441 0.239605 10.4326 0.101562L10.5293 0.844727C11.0102 0.782 11.5013 0.75 12 0.75C12.4987 0.75 12.9898 0.782 13.4707 0.844727L13.5664 0.101562Z" fill="white"/>
<path d="M13.5664 0.101562C14.6247 0.239523 15.6388 0.517014 16.5918 0.912109L16.3066 1.60352C17.2207 1.98259 18.0744 2.47925 18.8486 3.07422L19.3037 2.48145C20.1346 3.11999 20.8789 3.86445 21.5176 4.69531L20.9258 5.15137C21.5208 5.92561 22.0174 6.77934 22.3965 7.69336L23.0869 7.40723C23.4821 8.36022 23.7594 9.37432 23.8975 10.4326L23.1553 10.5293C23.218 11.0102 23.25 11.5013 23.25 12C23.25 12.4987 23.218 12.9898 23.1553 13.4707L23.8975 13.5664C23.7595 14.6247 23.4821 15.6388 23.0869 16.5918L22.3965 16.3066C22.0174 17.2207 21.5208 18.0744 20.9258 18.8486L21.5176 19.3037C20.879 20.1347 20.1347 20.879 19.3037 21.5176L18.8486 20.9258C18.0744 21.5208 17.2207 22.0174 16.3066 22.3965L16.5918 23.0869C15.6388 23.4821 14.6247 23.7595 13.5664 23.8975L13.4707 23.1553C12.9898 23.218 12.4987 23.25 12 23.25C11.5013 23.25 11.0102 23.218 10.5293 23.1553L10.4326 23.8975C9.37432 23.7594 8.36022 23.4821 7.40723 23.0869L7.69336 22.3965C6.77934 22.0174 5.92561 21.5208 5.15137 20.9258L4.69531 21.5176C3.86445 20.8789 3.11999 20.1346 2.48145 19.3037L3.07422 18.8486C2.47925 18.0744 1.98259 17.2207 1.60352 16.3066L0.912109 16.5918C0.517014 15.6388 0.239523 14.6247 0.101562 13.5664L0.844727 13.4707C0.782 12.9898 0.75 12.4987 0.75 12C0.75 11.5013 0.782 11.0102 0.844727 10.5293L0.101562 10.4326C0.239605 9.37441 0.516948 8.36016 0.912109 7.40723L1.60352 7.69336C1.98259 6.77934 2.47925 5.92561 3.07422 5.15137L2.48145 4.69531C3.12 3.86447 3.86447 3.12 4.69531 2.48145L5.15137 3.07422C5.92561 2.47925 6.77934 1.98259 7.69336 1.60352L7.40723 0.912109C8.36016 0.516948 9.37441 0.239605 10.4326 0.101562L10.5293 0.844727C11.0102 0.782 11.5013 0.75 12 0.75C12.4987 0.75 12.9898 0.782 13.4707 0.844727L13.5664 0.101562Z" stroke="#F97316" stroke-width="1.5" stroke-dasharray="3 3"/>
</svg>
