<svg width="20" height="20" viewBox="0 0 20 20" fill="none" xmlns="http://www.w3.org/2000/svg">
<mask id="mask0_348_18983" style="mask-type:alpha" maskUnits="userSpaceOnUse" x="0" y="0" width="20" height="20">
<rect width="20" height="20" fill="#D9D9D9"/>
</mask>
<g mask="url(#mask0_348_18983)">
<path d="M9.64258 11.1658C9.52661 11.1337 9.41147 11.0883 9.29716 11.0296L2.49591 7.41271C2.35911 7.33465 2.26084 7.23847 2.20112 7.12417C2.14126 7.00986 2.11133 6.88437 2.11133 6.74771C2.11133 6.6109 2.14126 6.48535 2.20112 6.37104C2.26084 6.25674 2.35911 6.16055 2.49591 6.0825L9.29716 2.46562C9.41147 2.40687 9.52661 2.36146 9.64258 2.32937C9.75841 2.29729 9.87779 2.28125 10.0007 2.28125C10.1236 2.28125 10.243 2.29729 10.3588 2.32937C10.4748 2.36146 10.5899 2.40687 10.7042 2.46562L17.5134 6.0825C17.6502 6.16055 17.7486 6.25674 17.8084 6.37104C17.8683 6.48535 17.8982 6.6109 17.8982 6.74771C17.8982 6.88437 17.8683 7.00986 17.8084 7.12417C17.7486 7.23847 17.6502 7.33465 17.5134 7.41271L10.7042 11.0296C10.5899 11.0883 10.4748 11.1337 10.3588 11.1658C10.243 11.1979 10.1236 11.214 10.0007 11.214C9.87779 11.214 9.75841 11.1979 9.64258 11.1658ZM10.0007 13.2412L16.6705 9.71083C16.7037 9.69153 16.817 9.67285 17.0103 9.65479C17.177 9.66535 17.3134 9.72785 17.4197 9.84229C17.5261 9.9566 17.5792 10.0971 17.5792 10.2637C17.5792 10.379 17.5538 10.4831 17.503 10.576C17.4523 10.6691 17.3692 10.7466 17.2538 10.8085L10.7042 14.2829C10.5899 14.3417 10.4748 14.3871 10.3588 14.4192C10.243 14.4511 10.1236 14.4671 10.0007 14.4671C9.87779 14.4671 9.75841 14.4511 9.64258 14.4192C9.52661 14.3871 9.41147 14.3417 9.29716 14.2829L2.75549 10.8085C2.64008 10.7466 2.5557 10.6691 2.50237 10.576C2.4489 10.4831 2.42216 10.379 2.42216 10.2637C2.42216 10.0971 2.47668 9.9566 2.5857 9.84229C2.69459 9.72785 2.83237 9.66535 2.99904 9.65479C3.05779 9.6441 3.11445 9.64382 3.16904 9.65396C3.22348 9.6641 3.28008 9.68306 3.33883 9.71083L10.0007 13.2412ZM10.0007 16.4944L16.6705 12.964C16.7037 12.9448 16.817 12.9261 17.0103 12.9079C17.177 12.9186 17.3134 12.9811 17.4197 13.0954C17.5261 13.2097 17.5792 13.3502 17.5792 13.5169C17.5792 13.6323 17.5538 13.7365 17.503 13.8294C17.4523 13.9223 17.3692 13.9997 17.2538 14.0617L10.7042 17.536C10.5899 17.5948 10.4748 17.6402 10.3588 17.6723C10.243 17.7044 10.1236 17.7204 10.0007 17.7204C9.87779 17.7204 9.75841 17.7044 9.64258 17.6723C9.52661 17.6402 9.41147 17.5948 9.29716 17.536L2.75549 14.0617C2.64008 13.9997 2.5557 13.9223 2.50237 13.8294C2.4489 13.7365 2.42216 13.6323 2.42216 13.5169C2.42216 13.3502 2.47668 13.2097 2.5857 13.0954C2.69459 12.9811 2.83237 12.9186 2.99904 12.9079C3.05779 12.8972 3.11445 12.8969 3.16904 12.9071C3.22348 12.9172 3.28008 12.9362 3.33883 12.964L10.0007 16.4944Z" fill="#1C1B1F"/>
</g>
</svg>
