<svg width="24" height="24" viewBox="0 0 24 24" fill="none" xmlns="http://www.w3.org/2000/svg">
<mask id="mask0_348_18842" style="mask-type:alpha" maskUnits="userSpaceOnUse" x="0" y="0" width="24" height="24">
<rect width="24" height="24" fill="#D9D9D9"/>
</mask>
<g mask="url(#mask0_348_18842)">
<path d="M5.40047 9.74919C6.01197 9.74919 6.59655 9.86103 7.15422 10.0847C7.71188 10.3085 8.21963 10.6326 8.67747 11.0569L18.035 19.9992H19.0005C19.2838 19.9992 19.5213 19.9034 19.713 19.7117C19.9046 19.52 20.0005 19.2825 20.0005 18.9992C20.0005 18.8659 19.988 18.7242 19.963 18.5742C19.938 18.4242 19.8505 18.2742 19.7005 18.1242L15.1255 13.5492L13.3505 8.19919L10.8947 8.80295C10.4152 8.93128 9.97963 8.84186 9.58797 8.53469C9.1963 8.22769 9.00047 7.82936 9.00047 7.33969V4.62419L8.30047 4.27419L4.45997 9.41469C4.4178 9.46969 4.38388 9.52386 4.35822 9.57719C4.33255 9.63036 4.30813 9.68769 4.28497 9.74919H5.40047ZM5.40047 11.2492H4.17347C4.21713 11.4107 4.27963 11.5607 4.36097 11.6992C4.44247 11.8377 4.54922 11.9646 4.68122 12.0799L12.8005 19.4742C12.9838 19.6575 13.1921 19.7909 13.4255 19.8742C13.6588 19.9575 13.9005 19.9992 14.1505 19.9992H15.8562L7.64847 12.1414C7.34597 11.8389 6.99955 11.6146 6.60922 11.4684C6.21872 11.3223 5.8158 11.2492 5.40047 11.2492ZM14.1505 21.4992C13.7146 21.4992 13.299 21.4204 12.9035 21.2627C12.508 21.105 12.1441 20.8787 11.812 20.5837L3.68697 13.2087C3.01647 12.592 2.64022 11.8395 2.55822 10.9512C2.47622 10.0627 2.70505 9.25303 3.24472 8.52219L7.10447 3.37219C7.31713 3.08503 7.60013 2.89503 7.95347 2.80219C8.30663 2.70919 8.64538 2.75053 8.96972 2.9262L9.67922 3.2762C9.94588 3.4147 10.1495 3.6022 10.29 3.8387C10.4303 4.0752 10.5005 4.33703 10.5005 4.62419V7.36845L12.9755 6.72994C13.3536 6.62878 13.7151 6.67528 14.06 6.86944C14.405 7.06361 14.6416 7.34469 14.7697 7.71269L16.4332 12.7184L20.7697 17.0549C21.0517 17.3369 21.244 17.6408 21.3465 17.9664C21.4491 18.2921 21.5005 18.6364 21.5005 18.9992C21.5005 19.6915 21.2585 20.2813 20.7745 20.7684C20.2905 21.2556 19.6991 21.4992 19.0005 21.4992H14.1505Z" fill="#3B82F6"/>
</g>
</svg>
