<svg width="16" height="16" viewBox="0 0 16 16" fill="none" xmlns="http://www.w3.org/2000/svg">
<mask id="mask0_348_18785" style="mask-type:alpha" maskUnits="userSpaceOnUse" x="0" y="0" width="16" height="16">
<rect width="16" height="16" fill="#D9D9D9"/>
</mask>
<g mask="url(#mask0_348_18785)">
<path d="M7.50001 4.91595L4.05384 8.36212C3.95473 8.46123 3.83873 8.51018 3.70584 8.50895C3.57295 8.50762 3.45478 8.45529 3.35134 8.35195C3.25478 8.24851 3.20478 8.1314 3.20134 8.00062C3.19789 7.86984 3.24789 7.75273 3.35134 7.64929L7.57817 3.42245C7.64062 3.36001 7.70645 3.31601 7.77567 3.29045C7.84489 3.26479 7.91967 3.25195 8.00001 3.25195C8.08034 3.25195 8.15512 3.26479 8.22434 3.29045C8.29356 3.31601 8.35939 3.36001 8.42184 3.42245L12.6487 7.64929C12.741 7.74162 12.7882 7.85595 12.7903 7.99229C12.7924 8.12862 12.7452 8.24851 12.6487 8.35195C12.5452 8.45529 12.4264 8.50695 12.2923 8.50695C12.1581 8.50695 12.0393 8.45529 11.9358 8.35195L8.50001 4.91595V12.5006C8.50001 12.6425 8.45212 12.7613 8.35634 12.857C8.26067 12.9527 8.14189 13.0006 8.00001 13.0006C7.85812 13.0006 7.73934 12.9527 7.64367 12.857C7.54789 12.7613 7.50001 12.6425 7.50001 12.5006V4.91595Z" fill="#4ADE80"/>
</g>
</svg>
