<svg width="24" height="24" viewBox="0 0 24 24" fill="none" xmlns="http://www.w3.org/2000/svg">
<path d="M21.7563 17.5097C22.2746 16.4348 22.5289 15.2518 22.4981 14.0589C22.4673 12.8661 22.1523 11.6978 21.5793 10.6511C21.0063 9.60439 20.1918 8.70952 19.2036 8.04081C18.2153 7.37211 17.0817 6.94886 15.897 6.80624C15.5028 5.88971 14.9297 5.06104 14.2112 4.36876C13.4928 3.67648 12.6434 3.13451 11.7129 2.77458C10.7823 2.41465 9.78936 2.244 8.79206 2.27262C7.79476 2.30124 6.81319 2.52855 5.90484 2.94125C4.99649 3.35395 4.17961 3.94374 3.50204 4.67608C2.82447 5.40842 2.29982 6.26859 1.95883 7.20622C1.61784 8.14385 1.46735 9.1401 1.51619 10.1366C1.56502 11.1331 1.81219 12.1099 2.24322 13.0097L1.56165 15.3262C1.48545 15.5849 1.48035 15.8592 1.5469 16.1205C1.61345 16.3817 1.74919 16.6202 1.93983 16.8109C2.13047 17.0015 2.36896 17.1373 2.63023 17.2038C2.89149 17.2704 3.16586 17.2653 3.42447 17.1891L5.74103 16.5075C6.48487 16.8649 7.28236 17.0977 8.10166 17.1966C8.4997 18.1292 9.08273 18.9714 9.8155 19.6723C10.5483 20.3732 11.4156 20.9183 12.365 21.2745C13.3144 21.6307 14.3261 21.7907 15.3391 21.7448C16.3521 21.6989 17.3452 21.4481 18.2585 21.0075L20.5751 21.6891C20.8336 21.7652 21.1079 21.7702 21.369 21.7037C21.6302 21.6372 21.8686 21.5016 22.0592 21.3111C22.2498 21.1206 22.3855 20.8822 22.4522 20.6211C22.5188 20.36 22.5139 20.0857 22.4379 19.8272L21.7563 17.5097ZM5.81228 14.9541C5.74061 14.9542 5.66931 14.9643 5.6004 14.9841L2.99978 15.7509L3.76572 13.1484C3.82019 12.9604 3.799 12.7585 3.70665 12.5859C3.0282 11.3171 2.82829 9.84671 3.14337 8.4428C3.45846 7.03889 4.26755 5.79496 5.42317 4.93776C6.57878 4.08055 8.00395 3.66717 9.43889 3.77296C10.8738 3.87875 12.223 4.49667 13.2404 5.51408C14.2578 6.53149 14.8757 7.88063 14.9815 9.31557C15.0873 10.7505 14.6739 12.1757 13.8167 13.3313C12.9595 14.4869 11.7156 15.296 10.3117 15.6111C8.90775 15.9262 7.43736 15.7263 6.16853 15.0478C6.05942 14.9874 5.93698 14.9552 5.81228 14.9541ZM20.2301 17.6475L20.9998 20.2509L18.3973 19.485C18.2093 19.4305 18.0074 19.4517 17.8348 19.5441C16.4537 20.2815 14.8392 20.4504 13.3354 20.0147C11.8315 19.579 10.5574 18.5731 9.78447 17.2116C10.8114 17.1044 11.8051 16.7861 12.7032 16.2768C13.6013 15.7674 14.3845 15.078 15.0036 14.2517C15.6227 13.4254 16.0643 12.4801 16.3008 11.475C16.5373 10.47 16.5636 9.42691 16.3779 8.41124C17.2726 8.62215 18.107 9.03582 18.8165 9.62034C19.5259 10.2049 20.0916 10.9446 20.4699 11.7824C20.8481 12.6203 21.0288 13.5338 20.998 14.4525C20.9671 15.3713 20.7256 16.2707 20.292 17.0812C20.1986 17.2549 20.1774 17.4583 20.2329 17.6475H20.2301Z" fill="#A3A3A3"/>
</svg>
