<svg width="16" height="16" viewBox="0 0 16 16" fill="none" xmlns="http://www.w3.org/2000/svg">
<path d="M8 11.25C8.86165 11.249 9.68772 10.9063 10.297 10.297C10.9063 9.68772 11.249 8.86165 11.25 8V4C11.25 3.13805 10.9076 2.3114 10.2981 1.7019C9.6886 1.09241 8.86195 0.75 8 0.75C7.13805 0.75 6.3114 1.09241 5.7019 1.7019C5.09241 2.3114 4.75 3.13805 4.75 4V8C4.75099 8.86165 5.09372 9.68772 5.703 10.297C6.31228 10.9063 7.13835 11.249 8 11.25ZM6.25 4C6.25 3.53587 6.43437 3.09075 6.76256 2.76256C7.09075 2.43437 7.53587 2.25 8 2.25C8.46413 2.25 8.90925 2.43437 9.23744 2.76256C9.56563 3.09075 9.75 3.53587 9.75 4V8C9.75 8.46413 9.56563 8.90925 9.23744 9.23744C8.90925 9.56563 8.46413 9.75 8 9.75C7.53587 9.75 7.09075 9.56563 6.76256 9.23744C6.43437 8.90925 6.25 8.46413 6.25 8V4ZM8.75 13.7013V15C8.75 15.1989 8.67098 15.3897 8.53033 15.5303C8.38968 15.671 8.19891 15.75 8 15.75C7.80109 15.75 7.61032 15.671 7.46967 15.5303C7.32902 15.3897 7.25 15.1989 7.25 15V13.7013C5.86752 13.5175 4.5987 12.8383 3.67914 11.7898C2.75958 10.7412 2.25177 9.39463 2.25 8C2.25 7.80109 2.32902 7.61032 2.46967 7.46967C2.61032 7.32902 2.80109 7.25 3 7.25C3.19891 7.25 3.38968 7.32902 3.53033 7.46967C3.67098 7.61032 3.75 7.80109 3.75 8C3.75 9.12717 4.19777 10.2082 4.9948 11.0052C5.79183 11.8022 6.87283 12.25 8 12.25C9.12717 12.25 10.2082 11.8022 11.0052 11.0052C11.8022 10.2082 12.25 9.12717 12.25 8C12.25 7.80109 12.329 7.61032 12.4697 7.46967C12.6103 7.32902 12.8011 7.25 13 7.25C13.1989 7.25 13.3897 7.32902 13.5303 7.46967C13.671 7.61032 13.75 7.80109 13.75 8C13.7482 9.39463 13.2404 10.7412 12.3209 11.7898C11.4013 12.8383 10.1325 13.5175 8.75 13.7013Z" fill="#A3A3A3"/>
</svg>
