<svg width="24" height="24" viewBox="0 0 24 24" fill="none" xmlns="http://www.w3.org/2000/svg">
<mask id="mask0_348_18836" style="mask-type:alpha" maskUnits="userSpaceOnUse" x="0" y="0" width="24" height="24">
<rect width="24" height="24" fill="#D9D9D9"/>
</mask>
<g mask="url(#mask0_348_18836)">
<path d="M6.68075 19.3194C5.22692 17.8656 4.5 16.0925 4.5 14.0002C4.5 12.3092 4.98783 10.6659 5.9635 9.07041C6.93917 7.47491 8.277 6.07199 9.977 4.86166C10.2987 4.62449 10.6362 4.60082 10.9895 4.79065C11.3427 4.98032 11.5192 5.27132 11.5192 5.66365V6.51166C11.5192 7.12316 11.7679 7.65749 12.2652 8.11466C12.7627 8.57166 13.3493 8.80016 14.025 8.80016C14.3212 8.80016 14.608 8.74249 14.8855 8.62716C15.1632 8.51182 15.418 8.34707 15.65 8.1329C15.7833 7.99824 15.9413 7.91974 16.124 7.89741C16.3067 7.87491 16.4768 7.92391 16.6345 8.04441C17.5307 8.74957 18.2323 9.62616 18.7395 10.6742C19.2465 11.7223 19.5 12.831 19.5 14.0002C19.5 16.0925 18.7731 17.8656 17.3193 19.3194C15.8654 20.7732 14.0923 21.5002 12 21.5002C9.90767 21.5002 8.13458 20.7732 6.68075 19.3194ZM6 14.0002C6 15.0078 6.24075 15.9457 6.72225 16.8137C7.20358 17.6817 7.86542 18.3817 8.70775 18.9137C8.63342 18.7727 8.58017 18.6319 8.548 18.4914C8.516 18.3511 8.5 18.204 8.5 18.0502C8.5 17.5873 8.58883 17.1514 8.7665 16.7424C8.944 16.3334 9.19875 15.9629 9.53075 15.6309L12 13.2022L14.4788 15.6309C14.8109 15.9629 15.0642 16.3334 15.2385 16.7424C15.4128 17.1514 15.5 17.5873 15.5 18.0502C15.5 18.204 15.484 18.3511 15.452 18.4914C15.4198 18.6319 15.3666 18.7727 15.2923 18.9137C16.1346 18.3817 16.7964 17.6817 17.2778 16.8137C17.7593 15.9457 18 15.0078 18 14.0002C18 13.1668 17.8458 12.3793 17.5375 11.6377C17.2292 10.896 16.7833 10.2335 16.2 9.65016C15.8667 9.86682 15.5167 10.0293 15.15 10.1377C14.7833 10.246 14.4083 10.3002 14.025 10.3002C12.9853 10.3002 12.0863 9.95849 11.328 9.27516C10.5697 8.59182 10.1353 7.74374 10.025 6.7309C8.725 7.82457 7.72917 8.99699 7.0375 10.2482C6.34583 11.4995 6 12.7502 6 14.0002ZM12 15.3002L10.575 16.7002C10.3917 16.8835 10.25 17.0918 10.15 17.3252C10.05 17.5585 10 17.8002 10 18.0502C10 18.5835 10.1958 19.0418 10.5875 19.4252C10.9792 19.8085 11.45 20.0002 12 20.0002C12.55 20.0002 13.0208 19.8085 13.4125 19.4252C13.8042 19.0418 14 18.5835 14 18.0502C14 17.7835 13.95 17.5377 13.85 17.3127C13.75 17.0877 13.6083 16.8835 13.425 16.7002L12 15.3002Z" fill="#F97316"/>
</g>
</svg>
