<svg width="24" height="24" viewBox="0 0 24 24" fill="none" xmlns="http://www.w3.org/2000/svg">
<path d="M12 0.75C18.2132 0.75 23.25 5.7868 23.25 12C23.25 18.2132 18.2132 23.25 12 23.25C5.7868 23.25 0.75 18.2132 0.75 12C0.75 5.7868 5.7868 0.75 12 0.75Z" fill="#C2410C" fill-opacity="0.1"/>
<path d="M12 0.75C18.2132 0.75 23.25 5.7868 23.25 12C23.25 18.2132 18.2132 23.25 12 23.25C5.7868 23.25 0.75 18.2132 0.75 12C0.75 5.7868 5.7868 0.75 12 0.75Z" stroke="#C2410C" stroke-width="1.5" stroke-linecap="round"/>
<mask id="mask0_350_21107" style="mask-type:alpha" maskUnits="userSpaceOnUse" x="4" y="4" width="16" height="16">
<rect x="4" y="4" width="16" height="16" fill="#D9D9D9"/>
</mask>
<g mask="url(#mask0_350_21107)">
<path d="M11.4607 13.1727C11.3144 13.0263 11.2412 12.8468 11.2412 12.634V7.96732C11.2412 7.75443 11.3144 7.57482 11.4607 7.42848C11.6072 7.28215 11.7868 7.20898 11.9995 7.20898C12.2123 7.20898 12.3919 7.28215 12.5384 7.42848C12.6847 7.57482 12.7579 7.75443 12.7579 7.96732V12.634C12.7579 12.8468 12.6847 13.0263 12.5384 13.1727C12.3919 13.3191 12.2123 13.3923 11.9995 13.3923C11.7868 13.3923 11.6072 13.3191 11.4607 13.1727ZM11.4607 16.5698C11.3144 16.4235 11.2412 16.2439 11.2412 16.031C11.2412 15.8182 11.3144 15.6387 11.4607 15.4923C11.6072 15.3459 11.7868 15.2727 11.9995 15.2727C12.2123 15.2727 12.3919 15.3459 12.5384 15.4923C12.6847 15.6387 12.7579 15.8182 12.7579 16.031C12.7579 16.2439 12.6847 16.4235 12.5384 16.5698C12.3919 16.7162 12.2123 16.7893 11.9995 16.7893C11.7868 16.7893 11.6072 16.7162 11.4607 16.5698Z" fill="#C2410C"/>
</g>
</svg>
