<svg width="32" height="32" viewBox="0 0 32 32" fill="none" xmlns="http://www.w3.org/2000/svg">
<g clip-path="url(#clip0_432_4913)">
<path d="M0 12.8C0 8.31958 0 6.07937 0.871948 4.36808C1.63893 2.86278 2.86278 1.63893 4.36808 0.871948C6.07937 0 8.31958 0 12.8 0H19.2C23.6804 0 25.9206 0 27.6319 0.871948C29.1372 1.63893 30.3611 2.86278 31.1281 4.36808C32 6.07937 32 8.31958 32 12.8V19.2C32 23.6804 32 25.9206 31.1281 27.6319C30.3611 29.1372 29.1372 30.3611 27.6319 31.1281C25.9206 32 23.6804 32 19.2 32H12.8C8.31958 32 6.07937 32 4.36808 31.1281C2.86278 30.3611 1.63893 29.1372 0.871948 27.6319C0 25.9206 0 23.6804 0 19.2V12.8Z" fill="#06B6D4"/>
<g opacity="0.25" style="mix-blend-mode:multiply">
<circle cx="26" cy="47" r="27" fill="#06B6D4"/>
</g>
<g opacity="0.25" style="mix-blend-mode:multiply">
<circle cx="26" cy="37" r="27" fill="#06B6D4"/>
</g>
<mask id="mask0_432_4913" style="mask-type:alpha" maskUnits="userSpaceOnUse" x="4" y="4" width="24" height="24">
<rect x="4" y="4" width="24" height="24" fill="#D9D9D9"/>
</mask>
<g mask="url(#mask0_432_4913)">
<path d="M8.25 23.5C7.76417 23.5 7.351 23.3298 7.0105 22.9895C6.67017 22.649 6.5 22.2358 6.5 21.75V10.3077C6.5 9.82192 6.67983 9.39917 7.0395 9.0395C7.39917 8.67983 7.82192 8.5 8.30775 8.5H13.05C13.291 8.5 13.5228 8.54683 13.7453 8.6405C13.9676 8.734 14.1608 8.86283 14.325 9.027L15.798 10.5H24.6635C24.8763 10.5 25.0545 10.5718 25.198 10.7155C25.3417 10.859 25.4135 11.0372 25.4135 11.25C25.4135 11.4628 25.3417 11.641 25.198 11.7845C25.0545 11.9282 24.8763 12 24.6635 12H11.648C10.666 12 9.8125 12.3122 9.0875 12.9365C8.3625 13.5608 8 14.3506 8 15.3058V21.6923C8 21.7628 8.01767 21.8204 8.053 21.8652C8.08817 21.9102 8.13458 21.9488 8.19225 21.9808L10.1385 15.4827C10.259 15.0942 10.4808 14.7821 10.8038 14.5462C11.1269 14.3102 11.4859 14.1923 11.8808 14.1923H24.7423C25.3551 14.1923 25.8413 14.4358 26.201 14.923C26.5605 15.4102 26.655 15.9416 26.4845 16.5173L24.7615 22.2578C24.6473 22.6333 24.4336 22.9342 24.1203 23.1605C23.8068 23.3868 23.459 23.5 23.077 23.5H8.25Z" fill="white"/>
</g>
</g>
<defs>
<clipPath id="clip0_432_4913">
<path d="M0 12.8C0 8.31958 0 6.07937 0.871948 4.36808C1.63893 2.86278 2.86278 1.63893 4.36808 0.871948C6.07937 0 8.31958 0 12.8 0H19.2C23.6804 0 25.9206 0 27.6319 0.871948C29.1372 1.63893 30.3611 2.86278 31.1281 4.36808C32 6.07937 32 8.31958 32 12.8V19.2C32 23.6804 32 25.9206 31.1281 27.6319C30.3611 29.1372 29.1372 30.3611 27.6319 31.1281C25.9206 32 23.6804 32 19.2 32H12.8C8.31958 32 6.07937 32 4.36808 31.1281C2.86278 30.3611 1.63893 29.1372 0.871948 27.6319C0 25.9206 0 23.6804 0 19.2V12.8Z" fill="white"/>
</clipPath>
</defs>
</svg>
