<svg width="40" height="40" viewBox="0 0 40 40" fill="none" xmlns="http://www.w3.org/2000/svg">
<path d="M17.9335 0.911498C17.9872 0.698197 18.1499 0.40033 18.412 0.494439C18.6522 0.580681 18.8408 0.913666 18.9425 1.12824C19.6788 2.68216 20.4198 4.23399 21.1676 5.78239C22.0729 7.66825 23.5687 9.24634 25.6096 9.86145C26.1581 10.0273 26.7198 10.1354 27.2744 10.2784C28.3934 10.59 29.4864 11.1767 30.2882 12.0278C31.0748 12.8627 31.641 14.18 31.1543 15.3038C31.0126 15.6309 30.7958 15.8997 30.5577 16.162C31.7267 16.8991 32.204 18.1632 31.6482 19.4575C33.5587 20.9871 33.5181 24.0782 31.9676 25.8142C31.248 26.62 30.5034 27.1379 29.813 27.9298C29.2154 28.8186 28.5348 30.0991 27.9937 31.0599L24.4586 37.3254C24.2362 37.7145 23.3844 39.4711 23.0277 39.5234C22.9261 39.5386 22.8289 39.489 22.7542 39.4246C22.6548 39.3386 22.5876 39.2379 22.5378 39.1172C22.2031 39.1332 21.6616 39.1324 21.3299 39.1148C21.0234 39.5347 20.6515 39.7586 20.4256 39.1121C19.925 39.1465 19.1574 39.1258 18.634 39.1285C18.1005 39.1312 17.1435 39.1539 16.6481 39.0781C16.1625 39.9031 15.6433 39.3371 15.7749 38.9877C15.9712 38.4668 16.5048 37.6579 16.7965 37.131C18.0915 34.7929 19.4202 32.4715 20.736 30.1449C21.4294 28.9252 21.6034 28.7622 21.6846 27.3785C21.3573 27.7133 21.0089 28.031 20.6192 28.2923C19.7773 28.8568 19.0542 29.1413 18.4302 29.9903C17.4989 31.2574 13.2158 39.2484 12.7773 39.498C12.7127 39.5347 12.6156 39.5363 12.5467 39.5136C12.3692 39.4547 12.2642 39.273 12.1858 39.1164C11.8357 39.1414 11.4203 39.1258 11.071 39.1082C10.6319 39.1121 10.0524 39.1238 9.62291 39.091C9.33362 39.6504 8.6792 39.5566 8.73038 39.2105C8.81549 38.6353 9.93303 36.9533 10.2118 36.4901L13.3931 31.1975C13.921 30.3153 14.9076 28.8002 15.2096 27.8911C15.7398 26.175 15.3915 24.4804 16.0746 22.7819C16.6383 21.3805 17.8246 20.7836 19.2568 21.3734C19.4429 21.1704 19.559 21.0501 19.7671 20.8706C19.1649 19.8984 19.1054 19.0399 19.6714 18.0282C18.4571 17.2436 18.8917 15.8351 19.2073 14.7141C19.4792 13.7481 18.4218 12.5091 17.9112 11.6999L13.8083 5.20806C13.1408 4.152 12.4773 3.09575 11.8072 2.03872C11.601 1.71337 11.4515 1.26547 12.0542 1.26275C12.274 1.26176 12.3736 1.41278 12.513 1.56926C14.2719 1.32638 16.1969 1.19326 17.9335 0.911498Z" fill="#531C15"/>
<path d="M23.9205 23.1983C24.0201 23.4085 24.2753 23.6885 24.5247 23.5176C25.0363 23.1671 24.4334 22.7276 24.668 22.1462C25.0085 21.3024 25.756 20.9909 26.5043 20.5787C26.9154 20.3514 27.303 20.1372 27.7075 19.9355C27.8751 20.1149 28.4598 20.1646 28.7093 20.2C31.4569 20.5891 31.7089 23.5816 29.8278 25.1789C29.258 25.6627 28.7666 25.8198 28.1802 26.2482C27.8132 26.6148 27.142 27.9173 26.8586 28.4259C26.4085 29.2459 25.9492 30.0607 25.4807 30.8703C25.5719 30.9717 25.637 31.0241 25.65 31.1588C25.5967 31.5158 25.062 32.3339 24.8702 32.7007C24.2586 33.87 23.4161 35.2088 22.8341 36.3577C22.5631 36.8927 21.4058 38.725 21.3293 39.1164C21.0228 39.5364 20.6509 39.7602 20.425 39.1137C19.9244 39.1481 19.1568 39.1274 18.6334 39.1301C18.0999 39.1329 17.1429 39.1555 16.6475 39.0797C16.8811 38.528 17.7547 37.0657 18.0814 36.4877L20.9511 31.4116C21.5939 30.2743 22.3953 29.2002 22.4696 27.8672C22.5751 25.9741 21.4575 25.5041 20.2266 24.4206C19.3472 23.6466 19.2777 22.3089 20.2165 21.5315C20.7223 21.1065 21.0408 20.9618 21.7405 20.9828C21.7652 21.6718 21.77 22.399 22.3092 22.9184C22.6793 23.275 23.4472 23.3676 23.9205 23.1983Z" fill="#FEEDDD"/>
<path d="M20.4248 39.1132C20.5452 38.7949 20.8586 38.2617 21.0301 37.9531L22.0561 36.1094C22.9783 34.4532 23.8974 32.7904 24.8267 31.138C25.0106 30.811 25.1186 30.7355 25.4804 30.8698C25.5716 30.9712 25.6368 31.0236 25.6498 31.1583C25.5965 31.5153 25.0618 32.3335 24.87 32.7002C24.2584 33.8695 23.4158 35.2083 22.8339 36.3572C22.5629 36.8922 21.4056 38.7246 21.3291 39.116C21.0225 39.5359 20.6507 39.7597 20.4248 39.1132Z" fill="#531C15"/>
<path d="M28.509 21.4116C29.8409 21.331 29.9335 22.7094 28.5411 23.1878C28.2633 23.2117 28.0814 23.2182 27.8295 23.0814C27.6657 22.9941 27.5451 22.8433 27.4958 22.6645C27.3127 22.0048 27.9534 21.562 28.509 21.4116Z" fill="#FEFEFD"/>
<path d="M17.9332 0.912109C18.3498 1.93917 18.9487 2.94862 19.3892 3.96445C20.6973 6.98164 22.3068 9.93441 25.7933 10.7766C25.8717 11.0285 26.4726 11.5184 26.6936 11.7818C27.1665 12.3455 27.2805 12.9855 27.5964 13.5678C27.3169 13.9657 27.6487 14.8885 27.1721 15.4882C26.2488 16.6505 24.8348 17.4768 23.3705 17.8135C22.4573 18.0235 20.9427 17.8588 20.0992 17.3388C18.8504 16.192 20.8183 14.8104 19.724 13.0533C17.6471 9.71832 15.5462 6.44164 13.4614 3.11519C13.3006 2.85857 12.55 1.76839 12.5127 1.56987C14.2716 1.32699 16.1966 1.19387 17.9332 0.912109Z" fill="#FEEDDD"/>
<path d="M22.793 13.7579C23.3548 13.7199 24.3872 13.8517 24.5027 14.5286C24.5291 14.6814 24.4919 14.8384 24.3998 14.9631C24.2027 15.2355 23.7284 15.3731 23.4075 15.4212C21.6589 15.6605 20.6549 14.1513 22.793 13.7579Z" fill="#FEFEFD"/>
<path d="M27.7073 19.9352C29.0627 19.168 31.0079 19.4209 31.7904 20.8769C32.9434 23.0224 32.0265 24.992 30.215 26.3945C29.1623 27.1819 28.7347 28.0859 28.1071 29.1983L26.4703 32.109L24.0554 36.3869C23.5585 37.2669 22.9853 38.2286 22.537 39.1185C22.2023 39.1345 21.6608 39.1337 21.3291 39.1161C21.4056 38.7247 22.5629 36.8923 22.8339 36.3573C23.4159 35.2085 24.2584 33.8696 24.87 32.7003C25.0618 32.3336 25.5965 31.5155 25.6498 31.1585C25.6368 31.0237 25.5717 30.9714 25.4805 30.8699C25.949 30.0604 26.4083 29.2455 26.8584 28.4256C27.1418 27.917 27.813 26.6145 28.18 26.2478C28.7664 25.8195 29.2578 25.6624 29.8276 25.1785C31.7088 23.5813 31.4567 20.5888 28.7091 20.1996C28.4596 20.1643 27.8749 20.1146 27.7073 19.9352Z" fill="#E7C9B1"/>
<path d="M17.3695 22.2656C17.4872 22.4273 17.4488 22.7574 17.4534 22.9688C17.4672 23.5859 17.6006 24.2189 17.8659 24.7793C18.1732 25.4286 19.4118 26.1479 19.3598 26.9078C19.3391 27.2087 18.2504 27.7664 17.9671 28.185C17.6736 28.6188 17.371 29.0769 17.0879 29.5214L15.3921 32.2208C13.9686 34.4934 12.446 36.8134 11.0701 39.1095C10.631 39.1134 10.0515 39.1251 9.62207 39.0923C9.73371 38.8414 10.0426 38.3478 10.1934 38.097L11.192 36.4391L14.47 30.9758C14.9676 30.1409 15.417 29.4188 15.8433 28.5388C16.6675 26.8375 15.9902 23.5714 17.3695 22.2656Z" fill="#FEEDDD"/>
<path d="M17.3697 22.2653C17.8402 21.8661 18.307 21.9561 18.8632 22.0453C18.6746 23.0679 18.6846 23.5915 19.2514 24.4987C19.7864 25.3551 20.8989 25.8031 21.341 26.4589C21.0205 26.8766 20.7127 27.2473 20.2761 27.5444C19.4685 28.0941 18.7106 28.378 18.057 29.1507C17.5259 29.7786 17.1438 30.5093 16.7312 31.2226L15.2475 33.7893L13.3155 37.12C12.9467 37.7561 12.5091 38.4689 12.1852 39.1173C11.835 39.1423 11.4196 39.1267 11.0703 39.1091C12.4462 36.813 13.9688 34.493 15.3923 32.2205L17.0881 29.521C17.3712 29.0766 17.6738 28.6184 17.9673 28.1847C18.2505 27.7661 19.3393 27.2083 19.36 26.9074C19.412 26.1475 18.1734 25.4282 17.8661 24.7789C17.6008 24.2186 17.4674 23.5855 17.4536 22.9684C17.449 22.757 17.4874 22.4269 17.3697 22.2653Z" fill="#E7C9B1"/>
<path d="M25.793 10.7773C27.3847 11.0865 28.9982 11.5581 30.0147 12.9688C30.3394 13.4195 30.5967 14.1702 30.4816 14.7256C30.3963 15.1221 30.1564 15.4683 29.815 15.6875C29.5944 15.8273 29.2368 15.9471 28.9771 15.918C28.7779 15.8957 28.1646 15.7821 28.0403 15.6386C28.071 15.1897 28.8633 13.1771 27.5961 13.5686C27.2802 12.9863 27.1662 12.3462 26.6933 11.7825C26.4723 11.5191 25.8714 11.0292 25.793 10.7773Z" fill="#E7C9B1"/>
<path d="M21.7402 20.9824C22.7436 21.1909 22.9304 21.6544 24.0499 21.5349C23.8074 22.1811 23.7328 22.5197 23.9202 23.1979C23.4469 23.3672 22.6789 23.2746 22.3089 22.918C21.7697 22.3986 21.7649 21.6714 21.7402 20.9824Z" fill="#E7C9B1"/>
<path d="M27.6819 16.4219C28.5564 16.5855 28.6651 16.9075 29.7791 16.5939C30.2389 16.8946 30.5517 17.1149 30.8533 17.5825C31.1341 18.053 31.095 18.5322 30.9584 19.0402C29.8717 18.6072 28.6943 18.621 27.5687 19.1055C26.4451 19.589 24.5404 21.057 23.2405 20.6833C23.1434 20.6554 22.6519 20.3977 22.4848 20.3413C21.793 20.1586 21.1275 20.0808 20.4701 20.4395C19.9332 19.5991 20.0091 19.2027 20.406 18.3399C22.5536 19.2091 24.9225 18.4776 26.6474 17.096C26.9798 16.8298 27.2716 16.5562 27.6819 16.4219Z" fill="#BD947B"/>
<path d="M30.8538 17.582C31.1346 18.0526 31.0955 18.5318 30.9589 19.0398C29.8722 18.6068 28.6948 18.6206 27.5692 19.105C26.4456 19.5886 24.5409 21.0565 23.2411 20.6829C23.1439 20.6549 22.6525 20.3973 22.4854 20.3409C22.5726 20.2248 23.7875 19.7541 24.0423 19.6302C24.7874 19.2679 25.4186 18.8107 26.1491 18.4229C27.8153 17.5385 29.1819 17.8429 30.8538 17.582Z" fill="#E7C9B1"/>
</svg>
