<svg width="40" height="40" viewBox="0 0 40 40" fill="none" xmlns="http://www.w3.org/2000/svg">
<g clip-path="url(#clip0_426_3978)">
<path d="M20.5259 3.69894C21.261 3.16165 22.225 3.32377 23.1064 3.3158C24.5089 3.30311 25.9277 3.29706 27.321 3.46172C28.1796 3.57616 29.0853 3.82866 29.9138 4.06281C30.4238 4.24387 30.905 4.4239 31.4029 4.63465C32.6991 5.18324 33.8425 5.82359 33.0663 7.43496C33.4349 7.10094 33.8055 6.77101 34.3392 6.79605C35.0371 6.82957 35.6494 7.36344 36.1096 7.84555C37.7888 9.60461 39.2465 11.7913 39.8629 14.1648C39.9023 14.3173 39.9414 14.627 40 14.7453V15.6337V16.5379L39.8742 16.987C39.4422 18.7568 38.4978 20.1332 36.9257 21.0754C35.6507 21.8396 34.5727 21.9941 33.1175 22.0002C32.8456 22.0099 32.1947 22.0409 31.9579 21.993C32.051 23.5546 31.6571 24.9669 30.6199 26.1567C29.5818 27.3476 28.0913 28.0353 26.5145 28.0554C25.8591 28.0637 25.2029 28.0581 24.5475 28.0565L21.3384 28.0523C19.7829 28.0695 18.1847 28.0525 16.6286 28.0481C16.5429 29.1323 16.3534 29.9422 15.6735 30.8264C15.4619 31.1016 15.2213 31.3402 15.0171 31.6172C14.9119 31.6312 14.2678 32.1024 14.049 32.2058C13.6057 32.4154 13.1959 32.5967 12.7 32.6537C10.742 32.8789 8.86441 32.6064 7.26004 31.3872C6.12742 30.5265 5.24105 29.1392 5.05238 27.7329L4.93285 27.639C4.27727 27.4939 3.07479 26.6889 2.55489 26.2508C1.69084 25.5227 1.20959 24.5525 1.49327 23.4172C1.67308 22.6977 1.99672 22.4746 2.45201 21.948C2.38916 21.9847 2.32573 22.0204 2.26172 22.055C1.46693 22.483 0.558469 22.0958 0.146171 21.3314C0.0960715 21.2386 0.0494062 21.1428 0 21.0491V19.2657C0.067809 19.0698 0.0854969 18.8458 0.104237 18.6399C0.156005 18.0711 0.249594 17.5169 0.365345 16.9577C0.873285 14.6209 1.85522 12.4133 3.25043 10.4712C3.77291 9.73609 4.6791 8.5468 5.49316 8.11004C5.61941 8.0423 5.83984 8.00601 5.98645 7.98129C6.51402 7.92558 6.83949 8.10871 7.24746 8.3959C7.01258 7.99898 6.90738 7.81945 6.97191 7.34242C7.20535 6.37738 7.91035 6.01414 8.71152 5.56473C10.5073 4.55008 12.4686 3.86165 14.5045 3.53134C15.6648 3.33483 16.8464 3.30919 18.0203 3.31235C18.6586 3.31407 19.0193 3.38175 19.5431 3.75374L19.5586 3.7709C19.8681 4.12226 19.8878 4.16988 19.9962 4.62601C20.1277 4.17414 20.2114 4.04008 20.5259 3.69894Z" fill="#FAB1B1"/>
<path d="M22.3984 16.4414C22.5719 15.7171 22.7841 14.9962 22.975 14.2759C23.1131 13.7549 23.2189 13.1588 23.4416 12.6687C23.4991 12.542 23.5727 12.4399 23.6945 12.3678C23.8201 12.2934 23.9709 12.2912 24.1089 12.328C24.2775 12.3729 24.4063 12.4968 24.4874 12.6488C24.6469 12.9475 23.7561 15.9471 23.5965 16.4449C24.6791 16.4238 25.8914 16.436 26.9737 16.4471C27.1047 16.0473 27.8204 13.5097 28.1811 13.4532C29.1595 13.2997 29.0463 14.126 28.7545 14.8292C28.5742 15.2637 28.3764 16.0191 28.1464 16.5335C28.71 16.653 29.256 16.8443 29.7709 17.1029C30.8368 17.6438 32.1555 18.8462 32.5295 19.9926L32.5855 20.0062C32.9053 20.9167 32.9095 21.1341 33.1179 22.0006C32.846 22.0103 32.195 22.0413 31.9582 21.9934C32.0514 23.555 31.6574 24.9673 30.6203 26.1571C29.5822 27.348 28.0917 28.0357 26.5148 28.0557C25.8595 28.0641 25.2033 28.0585 24.5478 28.0569L21.3387 28.0527C19.7832 28.0699 18.185 28.0529 16.6289 28.0485C16.5432 29.1327 16.3538 29.9426 15.6738 30.8268C15.4622 31.102 15.2216 31.3406 15.0175 31.6176C14.9122 31.6316 14.2681 32.1028 14.0493 32.2062C13.606 32.4157 13.1962 32.5971 12.7004 32.6541C10.7424 32.8793 8.86477 32.6068 7.26039 31.3876C6.12777 30.5269 5.24141 29.1396 5.05273 27.7333C5.54129 27.7625 6.14707 27.9887 6.59355 28.0191C7.4423 28.077 8.47156 28.065 9.32633 28.0471C9.39805 27.7454 10.6675 26.699 10.9822 26.4287C10.5416 26.41 9.67789 26.486 9.2943 26.3804C10.1342 25.3615 12.0424 24.3814 13.3275 24.1111C13.833 24.0089 14.3455 23.9448 14.8605 23.9193C17.2266 23.794 19.7414 23.9821 22.1183 23.899C22.6078 23.8819 23.3895 23.8429 23.3311 24.5555C23.2604 24.911 23.0411 25.0406 22.7179 25.0523C20.166 25.1449 17.4246 24.959 14.891 25.0836C14.4578 25.1047 14.0273 25.1632 13.6041 25.2584C12.5291 25.5032 11.8789 25.8709 10.9675 26.4347C11.9887 26.3746 13.3566 26.4132 14.3974 26.4143L20.4151 26.4173C21.4605 26.4177 22.7842 26.457 23.809 26.3739C26.0583 26.1913 27.9994 24.4585 28.5505 22.2834C28.6737 21.9744 28.6852 20.6597 28.914 20.4894C29.1811 20.2906 30.9773 20.3205 31.3793 20.2902C30.855 19.1417 29.6289 18.1586 28.4285 17.8224C27.4562 17.5502 26.0214 17.6213 24.9756 17.6218L17.7688 17.6245L15.6998 17.6258C15.353 17.6265 15.0085 17.6339 14.6577 17.6144C14.4109 17.6299 14.0327 17.2301 14.0579 16.9936C14.1295 16.3211 15.3875 16.4364 15.7822 16.4363L17.6453 16.4368C17.4878 15.9781 16.6052 12.9408 16.7605 12.6411C16.8407 12.4862 17.01 12.3631 17.1777 12.321C17.3155 12.2864 17.4747 12.3122 17.5959 12.3857C17.6737 12.4329 17.7283 12.4962 17.7675 12.5781C17.9914 13.0466 18.0962 13.6097 18.2301 14.1102C18.4422 14.886 18.6473 15.6636 18.8454 16.4431L22.3984 16.4414Z" fill="#F89595"/>
<path d="M5.05273 27.7324C5.54129 27.7616 6.14707 27.9878 6.59355 28.0183C7.4423 28.0762 8.47156 28.0642 9.32633 28.0462L13.7996 28.0464L15.0023 28.0473L16.6289 28.0476C16.5432 29.1319 16.3538 29.9417 15.6738 30.8259C15.4622 31.1011 15.2216 31.3398 15.0175 31.6168C14.9122 31.6307 14.2681 32.102 14.0493 32.2054C13.606 32.4149 13.1962 32.5962 12.7004 32.6532C10.7424 32.8784 8.86477 32.6059 7.26039 31.3867C6.12777 30.5261 5.24141 29.1387 5.05273 27.7324Z" fill="#EA4444"/>
<path d="M13.7995 28.0469L15.0022 28.0477C14.7881 29.6586 14.0036 30.797 12.2607 31.0251C11.4353 31.0756 10.2252 31.1325 9.49741 30.7001C9.06225 30.4416 9.29858 29.5918 9.88459 29.7028C11.3896 29.988 13.7188 30.2164 13.7995 28.0469Z" fill="#D93131"/>
<path d="M32.5291 19.9922L32.5851 20.0058C32.9049 20.9163 32.9091 21.1337 33.1175 22.0002C32.8456 22.0098 32.1946 22.0408 31.9578 21.9929C31.8001 21.4055 31.6847 20.8388 31.3926 20.3025C31.7738 20.2079 32.1574 20.1188 32.5291 19.9922Z" fill="#F47C7C"/>
<path d="M29.9137 4.0625C30.4237 4.24355 30.9049 4.42359 31.4029 4.63434C32.699 5.18293 33.8425 5.82328 33.0662 7.43465C33.4348 7.10062 33.8054 6.7707 34.3391 6.79574C35.0371 6.82926 35.6493 7.36312 36.1095 7.84523C37.7887 9.6043 39.2464 11.791 39.8628 14.1645C39.9023 14.317 39.9413 14.6266 39.9999 14.745V15.6334C39.162 15.768 38.2955 15.9841 37.4576 16.139C37.2244 16.1821 36.5488 16.3349 36.3352 16.3368C36.4141 16.0137 36.564 15.5933 36.6584 15.234C35.6919 15.3929 34.7404 15.6596 33.7721 15.7673C33.3746 15.8114 33.0563 15.2077 33.2915 14.8999C33.5403 14.5745 34.202 14.5161 34.5901 14.4453L34.2936 13.7302C34.0445 13.1355 33.8752 12.7001 34.1523 12.0505C34.3549 11.5754 34.9072 10.9275 35.3918 10.7333C35.6317 10.6371 35.7566 10.7114 35.9782 10.8085C35.4678 9.62266 34.6651 8.45852 33.9022 7.42637C33.402 7.97559 32.8449 8.49613 32.326 9.03078C31.9703 9.39727 31.6089 9.7648 31.2238 10.1018C30.8771 10.4052 30.4535 10.2398 30.3009 9.83043C30.1958 9.53863 30.4599 9.25164 30.6462 9.05887C31.4658 8.21117 32.3358 7.40555 33.1445 6.54813C32.1431 5.56527 31.2101 4.54156 29.8584 5.8182C30.1141 5.21723 30.1267 4.68086 29.9137 4.0625Z" fill="#F89595"/>
<path d="M36.2055 11.248C36.5554 12.3155 36.7595 12.8649 36.7683 13.9995C36.4728 14.0646 36.0058 14.1529 35.7287 14.2387C35.4118 13.1458 34.7787 12.857 35.6724 11.9682C35.9334 11.7065 36.05 11.5954 36.2055 11.248Z" fill="#FAB1B1"/>
<path d="M36.7679 14.0002C37.1476 13.9223 37.8194 13.7186 38.142 13.9398C38.4569 14.1559 38.4224 14.6355 38.1304 14.8692C37.6672 15.0834 37.1491 15.1043 36.6641 15.225C36.7402 14.8016 36.7622 14.4308 36.7679 14.0002Z" fill="#F47C7C"/>
<path d="M33.0395 19.8021C32.6482 18.9763 32.2332 18.2538 31.583 17.5911C31.2513 17.253 30.7871 16.9053 30.525 16.5227C30.1914 16.03 30.0686 15.4245 30.1838 14.8407C30.3282 14.0959 30.773 13.6311 31.3012 13.1211C31.499 12.9302 32.0865 12.2618 32.3973 12.4073C33.8585 13.0917 31.4152 14.1975 31.3202 15.0368C31.2907 15.2983 31.2693 15.4877 31.4181 15.7479C31.7736 16.2547 32.2864 16.5772 32.6837 17.0467C33.3361 17.7744 33.6092 18.3944 34.0599 19.207C34.4857 18.9833 35.2529 18.1112 35.5772 17.7257C35.1496 17.5963 34.6719 17.2577 35.0895 16.7973C35.365 16.4935 35.8715 16.4247 36.2645 16.4059L36.3353 16.3367C36.5489 16.3348 37.2245 16.182 37.4577 16.1389C38.2956 15.9839 39.1621 15.7679 40 15.6332V16.5375L39.8743 16.9865C39.4422 18.7563 38.4978 20.1328 36.9257 21.075C35.6507 21.8392 34.5727 21.9937 33.1175 21.9998C32.9092 21.1333 32.905 20.9159 32.5852 20.0054C32.715 19.9236 32.8942 19.8599 33.0395 19.8021Z" fill="#F89595"/>
<path d="M36.3351 16.3382C36.5487 16.3363 37.2243 16.1835 37.4575 16.1404C38.2954 15.9855 39.162 15.7695 39.9998 15.6348V16.539L39.8741 16.988L39.833 16.9077C39.4096 16.8512 36.2818 17.5751 35.6025 17.6875C35.8588 17.2511 36.1178 16.897 36.2643 16.4074L36.3351 16.3382Z" fill="#F47C7C"/>
<path d="M34.0595 19.207C34.3379 19.8143 33.8837 20.3285 33.227 20.0483C33.1659 19.9809 33.0933 19.8764 33.0371 19.8011C33.4132 19.6142 33.7051 19.4289 34.0595 19.207Z" fill="#F47C7C"/>
<path d="M6.9718 7.34375C6.98156 7.38109 7.00043 7.48383 7.02629 7.50512C8.12773 8.41457 9.12465 9.5009 10.1336 10.5149C10.2014 10.583 10.3736 10.875 10.3639 10.9557C10.172 12.5546 8.69727 10.7297 8.41387 10.4475C7.70516 9.74184 7.41254 9.44965 6.72852 8.76375C6.59707 8.6316 6.07957 8.05453 5.98633 7.98262C6.51391 7.92691 6.83937 8.11004 7.24734 8.39723C7.01246 8.00031 6.90727 7.82078 6.9718 7.34375Z" fill="#F89595"/>
<path d="M19.9966 4.62629C20.1281 4.17442 20.2119 4.04036 20.5263 3.69922C20.6102 4.9118 20.6373 6.21485 20.5601 7.4225C20.5152 8.12395 19.3195 8.11957 19.415 7.15493C19.4907 6.39129 19.2416 4.40102 19.5436 3.75402L19.559 3.77118C19.8685 4.12254 19.8882 4.17016 19.9966 4.62629Z" fill="#F89595"/>
<path d="M9.29371 26.3809C9.6773 26.4865 10.541 26.4105 10.9816 26.4292C10.667 26.6995 9.39746 27.7459 9.32574 28.0476C8.47098 28.0655 7.44172 28.0775 6.59297 28.0196C6.14648 27.9892 5.5407 27.763 5.05215 27.7338L4.93262 27.6399C5.18176 27.618 6.0766 27.858 6.41332 27.9023C6.88105 27.9637 7.11355 27.9555 7.58645 27.9502C8.04051 27.5493 8.82859 26.601 9.29371 26.3809Z" fill="#F47C7C"/>
<path d="M7.58327 16.4477C7.67413 16.4408 7.89308 16.4286 7.96093 16.4821C8.89401 17.2181 9.68886 18.273 10.6261 19.0076C11.1913 19.4506 11.9032 19.8068 12.5604 20.0182C13.698 20.3841 15.0489 20.3092 16.2445 20.3089L21.9455 20.3082C23.0807 20.3081 24.999 20.2431 26.0308 20.4699C26.2948 20.2153 27.4648 18.8758 27.8072 18.9721C29.1704 19.3551 27.6366 20.5529 27.1739 21.0011C27.4115 21.1362 27.5034 21.2061 27.7161 21.3778C28.1171 21.6894 28.7784 22.2955 28.2375 22.7985C27.8164 23.1899 27.1675 22.4506 26.8524 22.2C26.6447 22.0331 26.4169 21.8931 26.1743 21.7831C25.6101 21.5333 25.0199 21.4738 24.4109 21.4716C21.9827 21.4626 19.5327 21.4814 17.1065 21.4731C15.879 21.4464 14.5924 21.5411 13.375 21.3952C12.0388 21.235 10.6923 20.6096 9.67499 19.7395C9.24394 19.3708 8.82519 18.9364 8.42304 18.5343C8.07276 18.1493 7.63339 17.7987 7.30851 17.3941C6.97941 16.9842 7.24066 16.6767 7.58327 16.4477Z" fill="#F89595"/>
<path d="M15.6715 5.625C16.267 5.6852 16.3176 6.0141 16.4181 6.54332C16.5436 7.20504 16.6377 7.70941 16.4753 8.37105C16.1211 9.81387 14.7844 9.89355 13.7165 10.5137C13.8334 10.7158 13.9422 10.9241 14.0523 11.1299C14.2179 11.4395 14.4858 11.8612 14.3677 12.2256C14.3198 12.3734 14.1873 12.536 14.0439 12.6009C13.9315 12.6517 13.8006 12.6517 13.6846 12.6124C13.2109 12.4521 12.433 10.5148 12.1982 10.0254C11.9673 9.5618 10.8124 7.48691 10.9498 7.08172C10.9977 6.94039 11.1125 6.82691 11.2446 6.76133C11.38 6.69398 11.5398 6.66773 11.6851 6.71898C12.0873 6.86086 12.985 8.96676 13.2025 9.44574C14.2864 8.89086 15.6374 8.83008 15.3565 7.29867C15.2306 6.61215 14.8928 5.96563 15.6715 5.625Z" fill="#F89595"/>
<path d="M24.3033 5.11719C24.7081 5.13305 24.7862 5.23035 25.0015 5.56379C24.9708 6.06539 24.7186 6.92437 24.8242 7.36184C25.0554 8.32004 26.3167 8.32398 27.0936 8.80184C27.3396 8.2702 28.2121 6.10652 28.6511 5.94988C28.784 5.90246 28.9402 5.92262 29.0661 5.98137C29.1937 6.0409 29.2895 6.13875 29.336 6.27238C29.5091 6.76977 28.6953 8.15648 28.4553 8.65309C28.1724 9.25426 27.3712 11.3118 26.8695 11.528C26.7687 11.5714 26.6716 11.58 26.5685 11.5356C26.4115 11.468 26.2187 11.2997 26.1653 11.1335C26.0526 10.7818 26.4455 10.1627 26.5999 9.84629C25.9783 9.51266 25.2707 9.42344 24.6622 9.02625C23.6331 8.35457 23.4792 7.27266 23.7235 6.15965C23.8301 5.67391 23.7733 5.34266 24.3033 5.11719Z" fill="#F89595"/>
<path d="M4.95239 13.677C5.19934 13.6637 5.50841 13.761 5.62985 13.9826C5.88157 14.4419 5.18235 15.1474 5.00176 15.5624C4.88981 15.8197 4.78102 15.9966 4.73262 16.2751C4.50735 17.4726 4.9013 18.4101 5.76169 19.2447C6.04458 19.5534 6.42848 19.8292 6.65446 20.1836C6.92559 20.6089 6.71391 20.8764 6.34821 21.091C6.08782 21.111 5.90094 21.0378 5.71755 20.8525C5.17016 20.2995 4.52598 19.7366 4.11591 19.078C3.53843 18.1462 3.35688 17.0224 3.61157 15.9561C3.76805 15.2992 4.37821 14.0304 4.95239 13.677Z" fill="#F89595"/>
<path d="M8.62542 22.3222C8.69573 22.3171 8.76616 22.3131 8.83663 22.3104C9.22108 22.2965 10.1389 22.2204 10.403 22.4756C10.5173 22.5851 10.5824 22.7361 10.5835 22.8943C10.5868 23.0475 10.5263 23.1951 10.4165 23.3019C10.1459 23.5622 9.43421 23.4722 9.05663 23.4753C7.42487 23.4888 6.43331 23.9716 5.30312 25.0848C5.21116 25.1762 4.84093 25.5591 4.7569 25.6008C4.11937 25.9169 3.54382 25.2508 4.08296 24.6515C5.37796 23.212 6.68319 22.4486 8.62542 22.3222Z" fill="#F89595"/>
<path d="M19.8062 8.99024C19.9033 8.98227 20.0103 8.96805 20.1067 8.98336C20.2601 9.00774 20.3927 9.09641 20.4796 9.22407C20.6491 9.47301 20.6484 12.6287 20.5512 13.0708C20.5112 13.2531 20.3218 13.3763 20.1755 13.4691C20.0851 13.4762 19.984 13.484 19.8944 13.4691C19.7466 13.4445 19.6007 13.351 19.5186 13.2249C19.3758 13.0056 19.3503 9.76469 19.4399 9.39184C19.4871 9.19547 19.6468 9.0925 19.8062 8.99024Z" fill="#F89595"/>
<path d="M9.93238 13.3984C9.97711 13.4003 10.1232 13.4219 10.1532 13.4387C10.583 13.6801 12.6339 15.7621 12.7683 16.0439C12.8221 16.1584 12.828 16.2896 12.7847 16.4086C12.7025 16.6351 12.4968 16.7454 12.2928 16.8367C12.2228 16.8311 12.1496 16.8141 12.0827 16.7927C11.7702 16.6927 9.60242 14.4876 9.4602 14.1951C9.40309 14.0776 9.39961 13.9296 9.44637 13.8079C9.52828 13.5945 9.73645 13.4867 9.93238 13.3984Z" fill="#F89595"/>
<path d="M16.6282 28.0488C18.1843 28.0532 19.7825 28.0703 21.3379 28.0531C21.1665 28.5128 20.7929 29.1578 20.5491 29.6066L19.2106 32.0624L17.9074 34.4522C17.3049 35.5582 16.704 37.1595 15.1167 36.5601C13.9377 36.1148 14.0151 34.892 14.351 33.9179C14.6005 33.1946 14.7257 32.3166 15.0167 31.618C15.2209 31.341 15.4615 31.1023 15.6731 30.8271C16.353 29.9429 16.5424 29.1331 16.6282 28.0488Z" fill="#F47C7C"/>
</g>
<defs>
<clipPath id="clip0_426_3978">
<rect width="40" height="40" fill="white"/>
</clipPath>
</defs>
</svg>
