<svg width="40" height="40" viewBox="0 0 40 40" fill="none" xmlns="http://www.w3.org/2000/svg">
<path d="M18.6115 6.06297C18.7229 5.54575 18.7974 4.972 18.8647 4.41825C18.9397 3.79989 18.8443 2.91847 18.9926 2.313C19.1231 2.08891 19.3682 1.96012 19.6088 1.90028C20.191 1.75551 20.5383 1.75317 21.0563 2.04796C21.4606 2.0214 22.6516 2.11034 23.0346 2.20529C23.3599 2.50047 23.3531 2.55887 23.2991 2.97181L23.3359 2.98729C24.2242 3.35421 25.1015 3.14627 24.7434 4.52051C24.6724 4.79305 24.6884 5.01102 24.5422 5.29458C25.5392 5.56411 27.0691 6.05243 27.7316 6.89462C27.8829 7.087 27.1661 8.50766 26.9475 8.68622C26.5851 8.82274 26.336 8.66778 25.9504 8.62024C25.9049 9.0509 25.8354 9.48731 25.7683 9.90856C25.657 10.6068 25.5781 10.9382 24.8073 10.9464C23.3385 10.9619 22.8587 11.8208 22.5211 13.0715C23.0888 13.1513 23.4569 13.223 24.0098 13.3907C24.2219 13.455 24.9734 13.7243 25.1438 13.7497L25.1622 13.7518C25.5577 13.7952 27.1437 13.6138 27.5342 13.4787C29.0937 12.9392 29.6692 12.7544 30.0909 14.7325C30.5625 14.5442 30.9261 14.2532 31.4499 14.47C31.9969 14.6965 32.3328 15.5413 32.0799 16.0626C31.7822 16.6764 30.5041 17.2026 29.8581 17.2572C30.0993 17.6343 30.5243 18.0984 30.798 18.5151C31.1938 19.1177 31.4854 19.6775 31.7956 20.3206C32.6797 22.1534 32.8686 23.6884 33.2701 25.6063C33.8866 28.5506 34.4277 31.3184 33.8253 34.3517C33.5581 35.6969 33.0077 36.7436 31.8401 37.5159C30.3203 38.5211 28.4951 38.2752 26.8051 37.9203C26.3183 37.8181 24.3782 37.1941 23.9447 36.9398C22.3292 36.3053 21.2158 36.1208 19.6528 35.6355C18.5533 35.2836 17.4874 34.8341 16.4681 34.2924C15.799 33.9348 15.0965 33.4488 14.4855 32.9944C14.1739 32.7626 13.8167 32.4252 13.4983 32.2327C13.3471 31.9942 12.4641 31.199 12.2033 30.9045C11.7599 30.4039 11.4603 29.9711 11.0618 29.4396C10.7003 28.7603 10.2927 28.0172 10.0247 27.2677C9.44904 25.6577 8.95748 23.5403 9.15713 21.8261C9.21092 21.3644 9.54521 20.9623 9.63178 20.5952C9.55674 20.5621 7.07514 21.2901 6.40877 21.058C6.27568 21.0116 6.19232 20.903 6.13314 20.7794C5.98959 20.4798 5.85381 19.549 5.97908 19.239C6.04002 19.0883 6.18689 19.0531 6.32912 19.0029C6.85635 18.8168 7.44662 18.7316 7.99404 18.6112C8.76353 18.442 9.58689 18.2059 10.3146 17.9035C10.5183 17.8939 11.826 17.359 12.0501 17.2681C12.0954 16.8411 12.0902 15.9701 12.1103 15.4888C12.0973 14.3504 12.4721 12.9101 12.6029 11.76C12.741 10.5773 12.7479 9.41063 12.7378 8.21872C12.7306 7.37825 12.6762 6.67751 13.7688 6.67145C14.1821 6.66915 15.0164 6.59044 15.3187 6.90114C15.7852 7.38063 15.6751 8.65962 15.6986 9.29821C16.1146 8.57036 16.6244 7.90024 17.2149 7.30508C17.6462 6.87368 18.4621 6.48907 18.6115 6.06297Z" fill="#FD6392"/>
<path d="M18.6115 6.06297C18.7229 5.54575 18.7974 4.972 18.8647 4.41825C18.9397 3.79989 18.8443 2.91847 18.9926 2.313C19.1231 2.08891 19.3682 1.96012 19.6088 1.90028C20.191 1.75551 20.5383 1.75317 21.0563 2.04796C21.4606 2.0214 22.6516 2.11034 23.0346 2.20529C23.3599 2.50047 23.3531 2.55887 23.2991 2.97181L23.3359 2.98729C24.2242 3.35421 25.1015 3.14627 24.7434 4.52051C24.6724 4.79305 24.6884 5.01102 24.5422 5.29458C25.5392 5.56411 27.0691 6.05243 27.7316 6.89462C27.8829 7.087 27.1661 8.50766 26.9475 8.68622C26.5851 8.82274 26.336 8.66778 25.9504 8.62024C25.9049 9.0509 25.8354 9.48731 25.7683 9.90856C25.657 10.6068 25.5781 10.9382 24.8073 10.9464C23.3385 10.9619 22.8587 11.8208 22.5211 13.0715C22.1975 13.0343 20.2135 12.9303 20.1306 12.8936C20.0329 12.9725 19.1068 12.9768 18.8567 13.015C19.5285 13.7083 20.1176 14.6503 20.4158 15.5718C20.5768 16.0364 20.6607 16.5464 20.9385 16.9649C21.254 17.4419 21.7638 17.7202 22.207 18.0528C23.3152 18.8843 24.0347 20.2131 24.3486 21.5399C24.412 21.808 23.8339 22.2609 23.5649 21.855C23.3293 21.4992 23.2331 21.158 23.0713 20.7657C22.576 19.4518 21.8344 18.9264 20.7216 18.1673C20.4966 19.4622 20.1503 20.5359 19.2969 21.546C18.7335 22.2129 17.9358 22.7133 17.7275 23.5566C17.445 24.7004 18.118 25.5416 18.5103 26.5236C18.5838 26.7074 18.1363 27.095 17.929 26.9928C17.6607 26.9017 17.4571 26.5024 17.3251 26.2638C16.8107 25.2584 16.5146 24.1783 16.87 23.075C17.1938 22.0697 17.8442 21.7791 18.4683 21.0603C19.8492 19.4697 20.2007 17.1452 19.2268 15.2456C19.0098 14.8304 18.7495 14.4393 18.4503 14.0788C18.1835 13.7509 17.979 13.5245 17.7606 13.1657C17.461 13.2627 17.1596 13.354 16.8565 13.4393C17.0794 14.6141 16.9124 15.4865 16.6775 16.6068C16.3234 18.2965 15.644 19.4401 14.7555 20.8513C13.8059 22.3597 13.8083 24.7268 14.5298 26.3122C14.9462 27.2856 15.3971 28.111 16.2871 28.7134C17.6604 29.6537 19.1452 29.8899 20.7668 30.0198C21.9557 30.115 23.3147 30.7401 24.2122 31.5278C24.4736 31.7573 25.1743 32.2516 24.8527 32.704C24.6009 33.0022 24.1231 32.7801 23.9257 32.5731C23.1116 31.7194 21.7813 31.0375 20.5899 30.9544C19.2731 30.8626 18.411 30.6931 17.1525 30.2457C18.4283 31.6233 19.2219 32.6286 20.6488 33.9696C21.1954 34.4795 21.7572 34.973 22.3333 35.4493C22.7964 35.835 23.3147 36.2187 23.7441 36.6422C23.8176 36.7147 23.8843 36.8623 23.9447 36.9398C22.3292 36.3053 21.2158 36.1208 19.6528 35.6355C18.5533 35.2836 17.4874 34.8341 16.4681 34.2924C15.799 33.9348 15.0965 33.4488 14.4855 32.9944C14.1739 32.7626 13.8167 32.4252 13.4983 32.2327C13.3471 31.9942 12.4641 31.199 12.2033 30.9045C11.7599 30.4039 11.4603 29.9711 11.0618 29.4396C10.7003 28.7603 10.2927 28.0172 10.0247 27.2677C9.44904 25.6577 8.95748 23.5403 9.15713 21.8261C9.21092 21.3644 9.54521 20.9623 9.63178 20.5952C9.55674 20.5621 7.07514 21.2901 6.40877 21.058C6.27568 21.0116 6.19232 20.903 6.13314 20.7794C5.98959 20.4798 5.85381 19.549 5.97908 19.239C6.04002 19.0883 6.18689 19.0531 6.32912 19.0029C6.85635 18.8168 7.44662 18.7316 7.99404 18.6112C8.76353 18.442 9.58689 18.2059 10.3146 17.9035C10.5183 17.8939 11.826 17.359 12.0501 17.2681C12.0954 16.8411 12.0902 15.9701 12.1103 15.4888C12.0973 14.3504 12.4721 12.9101 12.6029 11.76C12.741 10.5773 12.7479 9.41063 12.7378 8.21872C12.7306 7.37825 12.6762 6.67751 13.7688 6.67145C14.1821 6.66915 15.0164 6.59044 15.3187 6.90114C15.7852 7.38063 15.6751 8.65962 15.6986 9.29821C16.1146 8.57036 16.6244 7.90024 17.2149 7.30508C17.6462 6.87368 18.4621 6.48907 18.6115 6.06297Z" fill="#EC4A89"/>
<path d="M12.1107 15.49C12.0977 14.3516 12.4725 12.9113 12.6033 11.7612C12.7414 10.5785 12.7483 9.41183 12.7382 8.21992C12.731 7.37945 12.6766 6.67871 13.7691 6.67265C14.1825 6.67035 15.0168 6.59163 15.3191 6.90234C15.7856 7.38183 15.6755 8.66081 15.6989 9.29941C15.5785 10.5264 15.4591 11.7935 15.2698 13.0071C15.1833 13.5619 15.1257 15.265 14.9011 15.6376C14.2381 16.7373 12.9889 17.9022 12.0293 18.723C12.0432 18.2793 12.0662 17.7089 12.0505 17.2693C12.0957 16.8423 12.0905 15.9713 12.1107 15.49Z" fill="#81AFFE"/>
<path d="M18.6113 6.06297C18.7227 5.54575 18.7972 4.972 18.8645 4.41825C18.9395 3.79989 18.8441 2.91847 18.9923 2.313C19.1229 2.08891 19.368 1.96012 19.6086 1.90028C20.1907 1.75551 20.5381 1.75317 21.0561 2.04796C21.4604 2.0214 22.6514 2.11034 23.0344 2.20529C23.3597 2.50047 23.3529 2.55887 23.2989 2.97181L23.3357 2.98729C24.224 3.35421 25.1013 3.14627 24.7432 4.52051C24.6722 4.79305 24.6882 5.01102 24.542 5.29458C24.3084 5.26852 23.1054 5.1688 22.9871 5.11837C22.8545 5.1718 22.2198 5.1529 22.0409 5.15403C21.904 4.28766 21.7629 3.7567 21.3559 2.98385C21.3542 3.75878 21.4437 4.44083 21.4023 5.2309C20.9649 5.30411 20.5353 5.41797 20.1191 5.57106C19.9179 5.64286 18.7998 6.14465 18.6751 6.11786L18.6113 6.06297Z" fill="#FD6392"/>
<path d="M23.2991 2.97266L23.3359 2.98814C24.2242 3.35505 25.1015 3.14711 24.7434 4.52136C24.6724 4.7939 24.6884 5.01187 24.5422 5.29542C24.3086 5.26937 23.1056 5.16964 22.9873 5.11921C23.1228 4.4521 23.1915 3.65821 23.2991 2.97266Z" fill="#9B1759"/>
<path d="M20.1309 12.8947C20.7323 9.61883 22.6291 8.20672 25.9507 8.62129C25.9052 9.05196 25.8357 9.48836 25.7686 9.90961C25.6573 10.6078 25.5784 10.9393 24.8076 10.9474C23.3387 10.9629 22.859 11.8219 22.5214 13.0725C22.1978 13.0354 20.2138 12.9313 20.1309 12.8947Z" fill="#81AFFE"/>
<path d="M30.0909 14.734C30.5625 14.5456 30.9261 14.2547 31.4498 14.4715C31.9968 14.6979 32.3328 15.5427 32.0799 16.064C31.7822 16.6778 30.5041 17.204 29.8581 17.2587C29.7805 17.2108 29.3761 16.7806 29.2868 16.6901C28.9126 16.3112 28.4552 15.8284 28.0391 15.5023C28.8072 15.2399 29.3392 15.1303 30.0909 14.734Z" fill="#EC4A89"/>
<path d="M25.1436 13.7504L25.162 13.7525C25.5574 13.7959 27.1434 13.6145 27.5339 13.4794C29.0934 12.9399 29.6689 12.7551 30.0906 14.7332C29.3389 15.1296 28.807 15.2392 28.0388 15.5016C27.908 15.4313 27.7155 15.2845 27.5908 15.1955C26.9732 14.7546 26.3263 14.3745 25.6516 14.0287C25.4726 13.937 25.3357 13.822 25.1436 13.7504Z" fill="#9B1759"/>
<path d="M25.1973 15.4219C25.4793 15.4219 25.6775 15.5658 25.8746 15.7624C28.1533 18.0355 29.2963 21.2163 29.4824 24.3875C29.5369 25.3143 29.4005 26.272 29.62 27.1498C29.7619 27.7171 30.3269 28.2743 30.6336 28.7492C30.9567 29.2471 31.8593 30.6357 31.4335 31.2269C31.3137 31.3932 30.86 31.3654 30.733 31.114C30.6036 30.8579 30.5172 30.5349 30.4138 30.2614C30.1032 29.5588 29.669 28.993 29.1875 28.4059C28.8488 30.1531 28.6022 32.0791 29.3846 33.7255C29.4869 33.9886 30.0833 34.6545 29.9392 34.9351C29.3767 36.031 28.5207 34.1221 28.3977 33.8445C27.7146 32.021 27.8662 30.0561 28.2865 28.1891C28.4253 27.5726 28.5117 27.0639 28.5442 26.4302C28.6001 25.386 28.5588 24.3389 28.4206 23.3023C28.3464 22.7723 28.2301 22.252 28.1525 21.7138C27.9836 22.6672 27.5449 23.5482 26.853 24.2065C26.1632 24.8627 25.7708 25.4512 25.5757 26.3773C25.5049 26.6562 25.3779 27.0645 25.0003 26.9791C24.4759 26.8605 24.5978 26.3315 24.6961 25.9596C24.9149 25.1321 25.3058 24.4363 25.9137 23.8357C26.169 23.5835 26.4612 23.2812 26.6591 22.9868C26.9242 22.5884 27.1062 22.1407 27.1942 21.6703C27.4804 20.1746 26.7711 18.3024 25.8483 17.1266C25.5818 16.7882 25.1929 16.5092 24.9466 16.1588C24.717 15.8319 24.9251 15.5997 25.1973 15.4219Z" fill="#9B1759"/>
<path d="M11.0617 29.4395C11.4601 29.9709 11.7598 30.4037 12.2031 30.9043C12.4639 31.1988 13.3469 31.994 13.4981 32.2326C13.578 32.6023 13.5933 34.6509 13.4472 35.0941C13.4064 35.2178 13.1418 35.382 13.0044 35.4183C12.5678 35.5337 11.6305 35.8577 11.2204 35.6923C11.0838 35.6373 11.0041 35.4986 10.9644 35.3818C10.6661 34.5035 10.7438 30.138 11.0617 29.4395Z" fill="#81AFFE"/>
<path d="M10.3142 17.905C10.1468 17.8709 9.65442 17.8855 9.48005 17.8657C8.05997 17.7045 7.01547 17.6711 7.93438 15.9761C8.10876 15.6544 8.24301 15.6254 8.60372 15.6448C9.62801 15.6998 11.0857 15.8117 12.0782 15.5004L12.1098 15.4902C12.0897 15.9716 12.0949 16.8426 12.0497 17.2695C11.8256 17.3605 10.5178 17.8954 10.3142 17.905Z" fill="#9B1759"/>
</svg>
