<svg width="40" height="40" viewBox="0 0 40 40" fill="none" xmlns="http://www.w3.org/2000/svg">
<g clip-path="url(#clip0_426_3967)">
<path d="M23.3905 12.2256C23.3181 11.6981 23.8733 8.0392 24.033 7.32639C24.0948 7.05018 24.2743 6.70279 24.4498 6.46635C24.9498 5.79252 25.5526 5.49229 26.3614 5.35947C27.8108 5.1215 30.0469 6.38166 31.1772 7.21736C33.1864 8.70272 34.7733 10.9807 35.3508 13.4242C35.5684 14.3447 35.697 15.3815 35.8335 16.3356L36.3801 20.0265C36.4776 20.6867 36.5721 21.58 36.7171 22.2131C37.0896 22.4801 37.4026 22.6819 37.752 22.974C39.2332 24.2122 39.5695 25.7693 39.8335 27.5882C39.8757 27.8778 39.8988 28.6925 40.0003 28.8816V32.1011C39.85 32.5551 39.8546 33.3667 39.7531 33.8829C39.4246 35.5514 39.0096 37.3297 38.1573 38.8143C37.9368 39.1918 37.5966 39.4117 37.2543 39.6238C37.0051 39.7781 36.454 39.9426 36.3657 39.9992H35.1223C35.0001 39.9222 33.3637 39.325 33.1487 39.2441L29.7287 37.9594C27.3266 37.0506 25.6354 36.4701 24.093 34.1734C23.463 33.2458 23.0407 32.1932 22.855 31.0874C22.666 30.0016 22.6796 28.1764 22.6645 27.0308C22.6061 23.9836 22.6699 20.9353 22.8558 17.8932C22.8998 17.2062 22.9603 15.8589 23.0804 15.2482L23.0635 15.2248C23.2046 14.9328 23.2436 12.4824 23.4425 12.2788L23.3905 12.2256Z" fill="#FF7D84"/>
<path d="M26.886 14.8713C28.6823 14.352 29.4081 13.3516 29.7461 11.5019C29.8263 11.0629 29.7268 10.3132 30.2488 10.1758C30.527 10.0931 30.9832 10.2811 31.0045 10.5811C31.0748 11.5671 30.7557 12.7408 30.3339 13.6234C31.1798 13.722 31.7046 13.5827 32.5263 13.4956C32.9198 13.4539 33.2782 14.3181 32.7908 14.5434C32.0874 14.919 30.9102 14.9402 30.153 14.7905C29.9725 14.7558 29.7949 14.7077 29.6216 14.6464C29.1724 15.1978 28.5143 15.5889 27.8589 15.8469C28.8209 16.8111 29.7318 18.0562 30.4344 19.22C31.3949 20.8369 32.0987 22.6755 33.8255 23.6493C34.233 23.8791 35.0084 24.1046 35.2624 24.4281C35.4392 24.6532 35.2362 25.2196 34.801 25.2302C33.9286 25.2515 33.1889 24.6855 32.5036 24.2095C31.8954 23.7581 31.362 23.1043 30.9289 22.5005L30.5571 22.7132C31.2112 24.7132 31.6392 26.6412 31.6393 28.7644C33.702 29.3366 35.1111 30.7217 35.7986 32.7392C35.8702 32.9493 35.9481 33.1813 35.889 33.4072C35.7508 33.8978 35.0575 34.0519 34.8111 33.5585C34.6482 33.2325 34.5753 32.8754 34.4213 32.5396C33.8183 31.2253 32.9241 30.5517 31.6314 30.0057C31.5676 31.1128 31.4681 32.2277 31.2534 33.316C31.2371 33.3983 31.0664 33.6562 30.9979 33.695C29.5199 34.5329 30.2665 31.9349 30.3151 31.4943C30.4307 30.4474 30.4363 29.5118 30.4373 28.5008C29.4888 29.2967 28.4111 29.924 27.1168 29.8402C26.8837 29.6907 26.7888 29.595 26.7215 29.3163C26.5508 28.6089 27.6306 28.6372 28.085 28.5114C29.1622 28.2132 29.862 27.5093 30.2623 26.4861C29.8693 24.4971 29.5213 22.9469 28.4721 21.1545C28.213 20.7119 27.9521 20.2302 27.6426 19.8188C26.6332 20.7488 26.1703 21.8433 26.0032 23.1888C25.9454 23.6539 25.9887 24.6662 25.3152 24.6023C24.7689 24.5504 24.6836 24.0136 24.7292 23.5619C24.8948 21.6871 25.477 20.0992 26.9289 18.8525L26.9535 18.8316C25.92 17.6375 24.9132 16.5365 23.6204 15.6047C23.5361 15.5439 23.1637 15.2828 23.0804 15.2483L23.0635 15.2248C23.2045 14.9329 23.2436 12.4825 23.4425 12.2789C24.5731 12.9955 25.9357 13.9161 26.886 14.8713Z" fill="#FE4755"/>
<path d="M3.30511 22.1585C3.42303 21.7271 3.63245 20.0917 3.70678 19.5885L4.25586 15.8438C4.37832 15.0301 4.4966 14.1413 4.68992 13.3512C5.28691 10.9114 6.76762 8.82255 8.7341 7.28841C10.0357 6.34782 11.9146 5.22813 13.5564 5.3511C14.5828 5.42802 15.8804 6.38802 15.9983 7.38978C16.1289 8.50001 16.7202 11.2052 16.589 12.261L16.571 12.2818C16.7313 12.4538 16.8043 14.7146 16.971 15.1989L16.9205 15.2603C17.0518 15.7674 17.0455 16.6205 17.0893 17.1619C17.3332 20.177 17.3736 23.2385 17.347 26.2634C17.3364 27.4716 17.3565 29.7487 17.1791 30.9286C17.0288 31.9447 16.6821 32.9219 16.1585 33.8057C14.6372 36.3969 12.5399 37.1407 9.93199 38.099L6.83344 39.2643C6.58398 39.3585 5.02367 39.9007 4.88156 39.9999H3.63958C3.56631 39.9647 3.39821 39.9042 3.31965 39.878C1.79336 39.369 1.41088 38.0272 0.951492 36.6449C0.66543 35.7842 0.444715 34.8451 0.274523 33.9398C0.176294 33.4173 0.158062 32.5185 0 32.0492V28.9958C0.129911 28.572 0.0963035 28.0908 0.169742 27.6513C0.430773 26.0701 0.677305 24.6733 1.76432 23.426C2.2339 22.8872 2.91372 22.5935 3.30511 22.1585Z" fill="#FF7D84"/>
<path d="M9.65818 13.6239C9.3815 13.0243 8.52407 10.6618 9.27239 10.2332C9.41646 10.1505 9.5881 10.1302 9.74751 10.1771C10.0699 10.2723 10.1731 10.5534 10.1875 10.8633C10.2501 12.2094 10.7574 13.7172 11.9833 14.4308C12.3482 14.6432 12.6934 14.7491 13.0933 14.8726C14.4434 13.7313 15.0254 13.2277 16.5711 12.2828C16.7314 12.4548 16.8043 14.7156 16.9711 15.1999L16.9206 15.2613C16.7747 15.3175 16.4825 15.5343 16.339 15.6396C15.0634 16.5757 14.0585 17.6431 13.0514 18.8478C14.6167 20.058 15.3003 22.2215 15.2708 24.1375C15.1202 24.4065 14.9412 24.6101 14.6188 24.6153C13.971 24.6259 14.0515 23.5566 13.9959 23.1478C13.8083 21.7696 13.3632 20.7917 12.3591 19.8196C10.7761 22.0455 10.2495 23.8921 9.74361 26.4915C10.598 28.8849 12.8531 28.4176 13.2095 28.9174C13.2895 29.0295 13.3042 29.1647 13.2802 29.2976C13.2314 29.5689 13.0984 29.6944 12.8775 29.8435C11.5043 29.8915 10.5717 29.3358 9.56013 28.5036C9.56259 29.5932 9.58743 30.6667 9.72107 31.7495C9.77443 32.1821 9.88755 32.6063 9.93978 33.0372C9.96622 33.2556 9.95767 33.4537 9.81454 33.6314C9.71021 33.7609 9.5338 33.8627 9.36579 33.872C9.23755 33.8792 9.12341 33.8349 9.02736 33.7517C8.48884 33.285 8.40693 30.7418 8.35712 30.002C8.10185 30.1179 7.84302 30.2398 7.61228 30.3611C6.33841 31.0305 5.62552 32.1617 5.21786 33.5052C5.06224 34.0182 4.24739 33.9533 4.11532 33.4248C4.06111 33.208 4.12306 32.9799 4.19544 32.7723C4.84989 30.7535 6.31724 29.3129 8.37661 28.7582C8.25122 27.1018 8.90665 24.2868 9.44239 22.716L9.08982 22.5123C8.12443 23.7384 6.99513 24.9608 5.37818 25.2362C4.56435 25.3749 4.58599 24.3874 4.90993 24.2288C5.55118 23.915 6.08591 23.7845 6.69782 23.309C8.17818 22.1586 8.79443 20.4526 9.75216 18.9131C10.4448 17.8119 11.2453 16.7823 12.1417 15.8395C11.4534 15.6085 10.8689 15.1815 10.3715 14.6611C10.0321 14.7758 9.5204 14.8717 9.09743 14.8784C8.51736 14.8877 6.37821 14.8333 7.11161 13.7154C7.32735 13.4238 7.599 13.4789 7.90025 13.5413C8.52134 13.67 9.03208 13.6877 9.65818 13.6239Z" fill="#FE4755"/>
<path d="M19.5103 8.66453C19.7961 8.66508 21.134 8.65031 21.3484 8.68774C21.3649 9.03047 21.3052 11.0757 21.5078 11.1825C21.8752 11.3761 23.0492 12.1206 23.3905 12.2266L23.4425 12.2798C23.2436 12.4834 23.2045 14.9338 23.0635 15.2258C22.5197 14.7701 20.7127 13.8565 20.0818 13.5574C19.3062 13.7401 17.6767 14.7498 16.9713 15.1992C16.8046 14.7149 16.7316 12.4541 16.5713 12.2821L16.5893 12.2613C17.0952 11.9495 17.6222 11.6725 18.151 11.4021C18.3315 11.3098 18.5971 11.142 18.6143 10.912C18.6693 10.1739 18.5984 9.43027 18.637 8.68785C18.842 8.66324 19.2871 8.66824 19.5103 8.66453Z" fill="#FF7D84"/>
<path d="M21.3297 5.9707C22.1392 6.22305 22.0184 6.5998 22.0507 7.35965C22.0772 7.9818 22.0559 8.52512 21.3483 8.68785C21.1339 8.65043 19.7959 8.6652 19.5101 8.66465C19.2869 8.66836 18.8418 8.66336 18.6369 8.68797C17.8423 8.42953 18.0192 8.07664 17.9556 7.31051C17.9269 6.96477 17.9576 6.54785 18.1476 6.25387C18.2748 6.05727 18.4502 6.0241 18.671 5.98398C19.0916 6.01332 19.5046 5.98465 19.9204 6.00594C20.3441 5.96293 20.8654 6.0252 21.3297 5.9707Z" fill="#E4F9FE"/>
<path d="M21.3293 5.9707C22.1388 6.22305 22.018 6.5998 22.0504 7.35965C22.0768 7.9818 22.0555 8.52512 21.3479 8.68785C21.1335 8.65043 19.7955 8.6652 19.5098 8.66465C19.658 8.64727 19.7515 8.63801 19.8951 8.5982C20.349 8.1593 20.1629 6.55789 19.92 6.00594C20.3437 5.96293 20.865 6.0252 21.3293 5.9707Z" fill="#CDE3E9"/>
<path d="M18.3962 0H19.7641H21.5853C21.7103 0.10632 21.8466 0.212816 21.9465 0.34185C22.0743 0.893926 22.1352 1.94637 21.8572 2.4666C21.6627 2.57145 21.5804 2.61787 21.3657 2.68552C21.2041 2.63729 20.1915 2.67748 19.9264 2.66327C19.4879 2.67206 19.0494 2.67679 18.6108 2.67745C18.4652 2.63211 18.309 2.57273 18.1642 2.5211C17.8911 2.01335 17.9243 1.04623 18.0337 0.487434C18.079 0.256078 18.2248 0.142341 18.3962 0Z" fill="#E4F9FE"/>
<path d="M19.7646 0H21.5858C21.7108 0.10632 21.8471 0.212816 21.947 0.34185C22.0748 0.893926 22.1357 1.94637 21.8577 2.4666C21.6632 2.57145 21.5809 2.61787 21.3662 2.68552C21.2046 2.63729 20.192 2.67748 19.9269 2.66327C20.225 1.93241 20.2113 1.14166 20.0902 0.370117C19.9924 0.250083 19.8687 0.117537 19.7646 0Z" fill="#CDE3E9"/>
<path d="M19.9269 2.66249C20.192 2.6767 21.2046 2.6365 21.3662 2.68473C21.3024 3.63848 21.4602 4.97878 21.33 5.96961C20.8657 6.0241 20.3444 5.96183 19.9207 6.00484C19.5049 5.98355 19.0919 6.01222 18.6713 5.98289C18.5843 5.28929 18.6289 3.48012 18.6113 2.67666C19.0499 2.676 19.4884 2.67128 19.9269 2.66249Z" fill="#FF7D84"/>
</g>
<defs>
<clipPath id="clip0_426_3967">
<rect width="40" height="40" fill="white"/>
</clipPath>
</defs>
</svg>
