<svg width="40" height="40" viewBox="0 0 40 40" fill="none" xmlns="http://www.w3.org/2000/svg">
<g clip-path="url(#clip0_426_4015)">
<path d="M9.48924 3.56836C10.2183 4.28808 10.8917 4.97909 11.809 5.46527C13.3443 6.27796 15.0982 6.68827 16.7951 7.02335C20.6207 7.77878 24.3485 8.44386 27.4368 10.9826C31.3581 14.206 32.1555 18.8955 33.0882 23.5973C33.4399 25.3701 33.9482 27.2991 34.9554 28.8248C35.3638 29.4419 35.8946 29.9462 36.4246 30.4691C36.2713 30.5325 36.0915 30.5796 35.9294 30.6179C35.5125 30.7162 35.1422 30.9095 34.7511 31.0605L34.7367 31.0842L34.3224 31.3311C33.9682 31.5901 33.6674 31.8107 33.3329 32.0968L33.1396 32.267C32.8595 32.5422 32.5447 32.8389 32.2812 33.126L32.0962 33.316C31.8489 33.6337 31.5739 33.9733 31.3443 34.3008C30.8633 35.1558 30.767 35.4264 30.5027 36.393C29.8883 35.798 29.3346 35.1978 28.5941 34.7448C27.1222 33.8442 25.3596 33.396 23.6798 33.0477C19.3249 32.1447 15.0519 31.5475 11.7508 28.2459C8.53447 25.029 7.86721 20.9831 7.00326 16.702C6.63045 14.8545 6.16025 12.8552 5.12729 11.2535C4.69826 10.5884 4.15217 10.0635 3.59375 9.50882C4.51498 9.26339 4.85553 9.16331 5.68537 8.67331C6.04334 8.41773 6.34986 8.17546 6.69221 7.90093L6.83779 7.76261C7.15127 7.46066 7.45885 7.15261 7.76033 6.83866L7.89205 6.69816C8.16514 6.36655 8.40342 6.04655 8.65873 5.70218L8.91295 5.27073C9.18889 4.7503 9.37264 4.14476 9.48924 3.56836Z" fill="#E65E5E"/>
<path d="M6.83779 7.76172C9.01604 9.83777 10.4563 13.4788 11.8428 16.1316C13.0017 18.349 14.0351 20.0264 15.6717 21.9239C18.4555 25.1516 21.7422 27.1645 25.5363 28.9858C27.1806 29.7751 28.6906 30.5004 30.2426 31.4925C31.1208 32.0539 31.5308 32.5339 32.2812 33.1251L32.0962 33.3152C31.8489 33.6329 31.5739 33.9724 31.3443 34.2999C30.8633 35.1549 30.767 35.4255 30.5027 36.3921C29.8883 35.7971 29.3346 35.1969 28.5941 34.7439C27.1222 33.8433 25.3596 33.3951 23.6798 33.0468C19.3249 32.1438 15.0519 31.5466 11.7508 28.245C8.53447 25.0281 7.86721 20.9822 7.00326 16.7011C6.63045 14.8536 6.16025 12.8543 5.12729 11.2527C4.69826 10.5875 4.15217 10.0626 3.59375 9.50793C4.51498 9.2625 4.85553 9.16242 5.68537 8.67242C6.04334 8.41684 6.34986 8.17457 6.69221 7.90004L6.83779 7.76172Z" fill="#F57C7C"/>
<path d="M6.83797 7.76172C9.01621 9.83777 10.4564 13.4788 11.8429 16.1316C13.0018 18.349 14.0352 20.0264 15.6718 21.9239C18.4557 25.1516 21.7424 27.1645 25.5364 28.9858C27.1808 29.7751 28.6907 30.5004 30.2428 31.4925C31.121 32.0539 31.5309 32.5339 32.2814 33.1251L32.0964 33.3152C31.9023 33.1423 31.665 32.8728 31.4779 32.6811C29.7572 30.9192 27.2865 30.3136 24.909 29.9745C20.4755 29.342 16.3219 28.781 13.3006 25.0502C10.8473 22.0209 10.555 18.5189 9.96758 14.8114C9.75793 13.5239 9.36016 11.6699 8.75488 10.517C8.41242 9.87359 7.98746 9.27762 7.49074 8.74414C7.22547 8.45981 6.93887 8.20047 6.69238 7.90004L6.83797 7.76172Z" fill="#F57C7C"/>
<path d="M6.69238 7.90039C6.93887 8.20082 7.22547 8.46016 7.49074 8.74449C7.98746 9.27797 8.41242 9.87395 8.75488 10.5174C9.36016 11.6703 9.75793 13.5243 9.96758 14.8118C10.555 18.5192 10.8473 22.0212 13.3006 25.0505C16.3219 28.7813 20.4755 29.3423 24.909 29.9748C27.2865 30.3139 29.7572 30.9195 31.4779 32.6815C31.665 32.8732 31.9023 33.1427 32.0964 33.3155C31.8491 33.6332 31.5741 33.9727 31.3445 34.3002C31.1218 34.1367 30.8254 33.8175 30.6216 33.6166C30.0545 33.058 29.4419 32.575 28.7108 32.2485C26.9356 31.4557 24.9684 31.2644 23.069 30.957C19.4752 30.422 16.3866 29.7018 13.6198 27.2017C12.488 26.1744 11.5549 24.9476 10.867 23.5826C9.9568 21.7777 9.56852 20.0851 9.21195 18.1018C8.76602 15.6215 8.64965 12.8569 7.37816 10.632C6.91242 9.81699 6.22086 9.34785 5.68555 8.67277C6.04352 8.41719 6.35004 8.17492 6.69238 7.90039Z" fill="#E65E5E"/>
<path d="M7.76043 6.83789C7.90086 7.03027 8.19652 7.28551 8.38559 7.44973C10.4518 9.24402 13.1311 10.3216 15.547 11.5525C16.2868 11.9294 17.0651 12.3375 17.7827 12.7455C19.4005 13.6711 20.9161 14.7652 22.3042 16.0093C25.1454 18.5672 27.0193 21.4919 28.682 24.9046C29.614 26.8176 30.5267 28.763 31.7166 30.5293C32.1541 31.1787 32.658 31.6742 33.1396 32.2662C32.8596 32.5414 32.5448 32.8381 32.2813 33.1252C31.5309 32.534 31.1209 32.054 30.2427 31.4926C28.6907 30.5005 27.1807 29.7752 25.5364 28.9859C21.7423 27.1646 18.4556 25.1518 15.6718 21.924C14.0352 20.0265 13.0018 18.3491 11.8429 16.1318C10.4564 13.4789 9.01613 9.83789 6.83789 7.76184C7.15137 7.45988 7.45895 7.15184 7.76043 6.83789Z" fill="#E65E5E"/>
<path d="M10.2969 10.3359C10.4549 10.3586 11.4517 10.9246 11.6732 11.035C14.679 12.5332 17.7248 13.8706 20.359 15.9987C22.6848 17.8776 24.5998 20.1047 26.0939 22.6982C26.9577 24.1976 27.6992 25.737 28.4564 27.2899C28.8477 28.0938 29.2775 28.8657 29.678 29.661C29.5404 29.6205 28.4827 29.0431 28.2693 28.9367C27.245 28.4256 26.1621 27.8742 25.1342 27.3842C19.6868 24.7875 15.8554 21.2244 13.0952 15.8263C12.2477 14.1687 11.2254 11.9169 10.2969 10.3359Z" fill="#F57C7C"/>
<path d="M7.76074 6.83777L7.89246 6.69727C8.54934 7.35961 9.24012 8.0332 10.0462 8.50289C11.403 9.2934 13.0354 9.69012 14.5712 9.93797C18.9768 10.649 22.9496 10.8979 26.1982 14.3775C29.0543 17.4367 29.3776 21.0079 29.9948 24.9486C30.2388 26.5069 30.5982 28.2331 31.332 29.6455C31.6654 30.2873 32.1586 30.8932 32.6606 31.4093C32.8573 31.6114 33.1621 31.8924 33.3333 32.0959L33.14 32.2661C32.6583 31.6741 32.1544 31.1786 31.7169 30.5291C30.527 28.7629 29.6143 26.8175 28.6823 24.9045C27.0196 21.4918 25.1457 18.5671 22.3045 16.0091C20.9164 14.765 19.4009 13.671 17.783 12.7454C17.0654 12.3373 16.2871 11.9293 15.5473 11.5524C13.1314 10.3215 10.4521 9.24391 8.3859 7.44961C8.19684 7.28539 7.90117 7.03016 7.76074 6.83777Z" fill="#F57C7C"/>
<path d="M9.48938 3.56836C10.2184 4.28808 10.8919 4.97909 11.8092 5.46527C13.3444 6.27796 15.0984 6.68827 16.7952 7.02335C20.6208 7.77878 24.3486 8.44386 27.437 10.9826C31.3583 14.206 32.1556 18.8955 33.0883 23.5973C33.44 25.3701 33.9484 27.2991 34.9556 28.8248C35.364 29.4419 35.8947 29.9462 36.4248 30.4691C36.2715 30.5325 36.0916 30.5796 35.9295 30.6179C35.5127 30.7162 35.1423 30.9095 34.7512 31.0605C34.2632 30.4657 33.9691 30.1378 33.5857 29.4415C32.6809 27.7979 32.2812 25.8291 31.9036 24.0137C31.3638 21.4176 30.9921 19.1539 29.8974 16.743C27.2764 10.9707 22.4655 9.30741 16.6396 8.24179C14.6435 7.83581 12.6431 7.47316 10.7968 6.57511C10.0059 6.19042 9.58895 5.75148 8.91309 5.27073C9.18902 4.7503 9.37277 4.14476 9.48938 3.56836Z" fill="#E65E5E"/>
<path d="M8.65918 5.70098L8.9134 5.26953C9.58926 5.75027 10.0063 6.18922 10.7971 6.57391C12.6434 7.47195 14.6438 7.83461 16.64 8.24059C22.4658 9.30621 27.2767 10.9695 29.8977 16.7418C30.9925 19.1527 31.3641 21.4164 31.9039 24.0125C32.2815 25.8279 32.6812 27.7967 33.5861 29.4403C33.9694 30.1366 34.2635 30.4645 34.7516 31.0593L34.7372 31.083L34.3229 31.3299C34.1859 31.143 33.8126 30.7754 33.6416 30.6086C33.072 30.0536 32.649 29.4996 32.3064 28.781C31.6308 27.3635 31.2782 25.2913 31.0773 23.7403C30.5002 18.7794 29.0034 14.0868 24.4729 11.3582C21.9011 9.8093 19.0377 9.33801 16.0992 8.91797C14.2388 8.63266 12.4304 8.37754 10.7518 7.46848C9.83629 6.97266 9.41105 6.26902 8.65918 5.70098Z" fill="#F57C7C"/>
<path d="M36.4249 30.4688C37.2177 31.2245 38 32.043 38.784 32.8115C38.9987 33.0219 39.8654 33.8721 40.0002 34.0765V34.6298C39.7259 35.004 39.3709 35.3343 39.0354 35.6556L36.2988 38.3937C35.9318 38.7598 34.9518 39.791 34.597 40H34.1806C33.8103 39.7855 30.8493 36.8041 30.5029 36.3927C30.7673 35.4261 30.8636 35.1555 31.3446 34.3005C31.5742 33.973 31.8492 33.6334 32.0964 33.3157L32.2815 33.1257C32.5449 32.8386 32.8597 32.5419 33.1398 32.2667L33.3331 32.0965C33.6677 31.8104 33.9685 31.5898 34.3227 31.3308L34.737 31.0839L34.7514 31.0602C35.1424 30.9092 35.5128 30.7159 35.9296 30.6176C36.0918 30.5793 36.2716 30.5322 36.4249 30.4688Z" fill="#FED8B4"/>
<path d="M36.4242 30.4688C37.2171 31.2245 37.9994 32.043 38.7833 32.8115C38.998 33.0219 39.8647 33.8721 39.9995 34.0765V34.6298C39.7253 35.004 39.3702 35.3343 39.0348 35.6556C39.0874 35.4635 39.0819 35.3404 38.9216 35.2032C38.3619 34.7242 35.0853 31.1873 34.7363 31.0839L34.7507 31.0602C35.1418 30.9092 35.5121 30.7159 35.9289 30.6176C36.0911 30.5793 36.2709 30.5322 36.4242 30.4688Z" fill="#FEC99D"/>
<path d="M5.39406 0H5.85477C6.65738 0.607738 7.62727 1.73776 8.39391 2.45143C8.54227 2.58952 9.4059 3.45564 9.48934 3.56805C9.37273 4.14445 9.18898 4.75 8.91305 5.27043L8.65883 5.70188C8.40352 6.04625 8.16523 6.36625 7.89215 6.69785L7.76043 6.83836C7.45895 7.1523 7.15137 7.46035 6.83789 7.7623L6.6923 7.90062C6.34996 8.17516 6.04344 8.41742 5.68547 8.67301C4.85563 9.16301 4.51508 9.26309 3.59385 9.50852C3.09812 9.08184 2.29791 8.21203 1.79856 7.72977C1.35716 7.30348 0.354681 6.34074 0 5.89852V5.39863C0.300116 4.93613 4.95254 0.283544 5.39406 0Z" fill="#FED8B4"/>
</g>
<defs>
<clipPath id="clip0_426_4015">
<rect width="40" height="40" fill="white"/>
</clipPath>
</defs>
</svg>
