<svg width="40" height="40" viewBox="0 0 40 40" fill="none" xmlns="http://www.w3.org/2000/svg">
<g clip-path="url(#clip0_426_4056)">
<path d="M12.9975 2.5744C13.0129 2.15698 13.2844 1.51447 13.3962 1.09658C13.4791 0.786151 13.6747 0.311332 13.9509 0.141263C14.0834 0.0597393 14.4701 0.104745 14.6232 0.144323C15.4609 0.375195 16.289 0.659401 17.1165 0.926924L22.0863 2.53487C22.4536 2.63025 23.3639 2.59395 23.7701 2.59305L28.2925 2.58431C28.8196 2.58378 30.908 2.47105 31.2047 2.86003C31.5024 3.25034 31.4045 4.97543 31.3607 5.52723C31.8818 5.60375 32.6064 5.90176 33.1289 6.05496C33.7748 6.27004 34.4667 6.45922 35.0976 6.70734C35.5411 6.8818 35.8893 7.1382 35.7223 7.6543C34.7867 10.5446 33.9248 13.5995 32.9136 16.4541C32.5663 17.5493 32.2128 18.6426 31.8532 19.7339C31.7368 20.0896 31.4938 20.7282 31.4112 21.0596C31.3096 21.6606 31.3711 22.9688 31.3584 23.637C31.7052 23.8184 34.2126 23.5125 34.7441 23.7363C35.3024 23.9715 35.6721 24.2344 35.7725 24.8673C35.844 27.8125 35.7848 31.0064 35.7848 33.9684L35.7845 36.9792C35.7845 37.5905 35.81 38.2371 35.7397 38.8402C35.6784 39.3657 35.1773 39.7426 34.7132 39.9079C34.6252 39.9395 34.5281 39.9493 34.4521 40.0004H10.2216H5.4843C4.96895 39.7914 4.31637 39.4489 4.27418 38.832C4.20039 37.7535 4.23086 36.6359 4.23074 35.5543L4.23035 29.7443L4.23477 21.312C4.24227 20.1534 4.22938 18.9952 4.25539 17.8383C4.27242 17.0806 4.59203 16.7223 5.29961 16.4867C5.41961 16.4468 5.49481 16.4741 5.57992 16.373C5.04852 14.1341 4.7391 11.6608 4.28012 9.39473C4.17735 8.8873 4.33266 8.53152 4.87727 8.41906C5.94844 8.19789 7.05215 7.98254 8.13766 7.81164C8.09836 7.38664 8.1209 6.57434 8.13071 6.1341C8.47559 5.69656 9.39805 4.81918 9.8368 4.38051C10.2859 3.93152 11.2379 2.9257 11.6861 2.59294C12.0452 2.56564 12.6132 2.58411 12.9975 2.5744Z" fill="#85C0F3"/>
<path d="M12.9971 2.5744C13.0125 2.15698 13.284 1.51447 13.3958 1.09658C13.4788 0.786151 13.6743 0.311332 13.9505 0.141263C14.083 0.0597393 14.4697 0.104745 14.6228 0.144323C15.4605 0.375195 16.2886 0.659401 17.1161 0.926924L22.0859 2.53487C22.4532 2.63025 23.3635 2.59395 23.7697 2.59305L28.2921 2.58431C28.8192 2.58378 30.9076 2.47105 31.2043 2.86003C31.502 3.25034 31.4041 4.97543 31.3604 5.52723C31.8814 5.60375 32.606 5.90176 33.1285 6.05496C33.7744 6.27004 34.4663 6.45922 35.0972 6.70734C35.5407 6.8818 35.8889 7.1382 35.7219 7.6543C34.7863 10.5446 33.9245 13.5995 32.9132 16.4541C32.5659 17.5493 32.2124 18.6426 31.8528 19.7339C31.7364 20.0896 31.4934 20.7282 31.4108 21.0596C31.3092 21.6606 31.3707 22.9688 31.358 23.637C31.0357 23.731 28.1416 23.6656 27.6647 23.6657L23.1724 23.6652C22.3741 23.665 21.573 23.6749 20.7759 23.6549C19.9305 23.6311 19.5794 22.9789 19.2002 22.3403C18.7902 21.6656 18.3931 20.9815 17.9813 20.3081C17.6061 19.6946 17.2985 19.287 16.5297 19.252C14.3696 19.2795 12.1736 19.2509 10.0098 19.2585C8.71973 19.2417 7.40133 19.2574 6.10918 19.2595C5.96797 18.3299 5.75512 17.3046 5.57953 16.373C5.04813 14.1341 4.73871 11.6608 4.27973 9.39473C4.17696 8.8873 4.33227 8.53152 4.87688 8.41906C5.94805 8.19789 7.05176 7.98254 8.13727 7.81164C8.09797 7.38664 8.12051 6.57434 8.13032 6.1341C8.4752 5.69656 9.39766 4.81918 9.83641 4.38051C10.2855 3.93152 11.2375 2.9257 11.6857 2.59294C12.0448 2.56564 12.6128 2.58411 12.9971 2.5744Z" fill="#EAEEFD"/>
<path d="M31.3602 5.52734C31.8812 5.60387 32.6058 5.90188 33.1283 6.05508C33.7742 6.27016 34.4661 6.45934 35.097 6.70746C35.5405 6.88191 35.8888 7.13832 35.7217 7.65441C34.7861 10.5447 33.9243 13.5996 32.913 16.4542C32.5657 17.5495 32.2122 18.6427 31.8526 19.734C31.7362 20.0897 31.4932 20.7284 31.4106 21.0597C31.4186 20.9789 31.3626 20.1299 31.3611 19.9329L31.3584 16.4849L31.3602 5.52734Z" fill="#C0C8F3"/>
<path d="M5.57953 16.3719C5.04813 14.133 4.73871 11.6597 4.27973 9.39363C4.17696 8.88621 4.33227 8.53043 4.87688 8.41797C5.94805 8.1968 7.05176 7.98145 8.13727 7.81055C8.15696 8.1498 8.13528 8.65348 8.13297 9.01035L8.1245 11.3231L8.1275 19.2169L13.9934 19.2247C14.4239 19.2246 16.2275 19.1941 16.5297 19.2509C14.3696 19.2784 12.1736 19.2498 10.0098 19.2574C8.71973 19.2406 7.40133 19.2563 6.10918 19.2584C5.96797 18.3288 5.75512 17.3036 5.57953 16.3719Z" fill="#C0C8F3"/>
<path d="M12.9971 2.5744C13.0124 2.15698 13.284 1.51447 13.3957 1.09658C13.4787 0.786151 13.6743 0.311332 13.9505 0.141263C14.0829 0.0597393 14.4697 0.104745 14.6228 0.144323C15.4605 0.375195 16.2886 0.659401 17.1161 0.926924L22.0859 2.53487C21.7906 2.52139 21.4816 2.56439 21.1829 2.57709C19.5512 2.64646 17.9133 2.61016 16.2799 2.61422C15.1956 2.61691 14.0793 2.62964 12.9971 2.5744Z" fill="#C0C8F3"/>
<path d="M10.8829 8.03385C11.1873 7.98908 11.7436 8.00396 12.0648 8.00572L13.9773 8.01428L16.8313 8.01326C17.2927 8.01326 18.119 7.99178 18.5499 8.05685C19.1697 8.47775 19.0297 8.84947 19.0298 9.54475L19.0295 11.3388L19.0277 14.4108C19.0278 14.9411 19.0554 15.4885 19.0225 16.0172C19.0128 16.1735 18.9774 16.3023 18.8892 16.4329C18.7899 16.5799 18.6718 16.7022 18.4916 16.7332C18.0423 16.8104 11.1663 16.845 10.8566 16.7664C10.8009 16.745 10.746 16.7219 10.6918 16.6972C10.5165 16.616 10.3798 16.4761 10.3166 16.2917C10.2231 16.0188 10.2248 9.43447 10.2716 8.7433C10.2796 8.62568 10.3088 8.51275 10.3645 8.40838C10.4795 8.19307 10.6597 8.10592 10.8829 8.03385Z" fill="#F6C9B0"/>
<path d="M10.8829 8.0332C11.2711 8.05102 11.6652 8.04109 12.0542 8.03602C11.5871 8.6673 11.7163 9.00828 11.7156 9.77031L11.7144 11.9596L11.7153 14.7277C11.7158 15.2275 11.701 15.7591 11.7489 16.255C11.7693 16.4664 11.9487 16.6181 12.0979 16.7632C11.7373 16.7613 11.2037 16.7421 10.8566 16.7657C10.8009 16.7443 10.746 16.7212 10.6918 16.6966C10.5165 16.6154 10.3798 16.4755 10.3166 16.291C10.2231 16.0182 10.2248 9.43383 10.2716 8.74266C10.2796 8.62504 10.3088 8.51211 10.3645 8.40773C10.4795 8.19242 10.6597 8.10527 10.8829 8.0332Z" fill="#F3AE84"/>
<path d="M12.6554 15.3162C12.6474 14.2073 12.4323 12.6026 13.6937 12.0756C14.2416 12.542 15.0471 12.5414 15.5943 12.0742C16.864 12.5544 16.6443 14.2329 16.6314 15.3134L12.6554 15.3162Z" fill="#44569C"/>
<path d="M13.6931 12.0761C13.2258 11.6783 13.056 11.0314 13.2677 10.4555C13.4795 9.87949 14.0278 9.49656 14.6415 9.49609C15.2551 9.49566 15.804 9.87777 16.0165 10.4534C16.2291 11.0291 16.0603 11.6763 15.5936 12.0747C15.0464 12.5419 14.2409 12.5425 13.6931 12.0761Z" fill="#6A88C8"/>
<path d="M26.1224 4.80664C27.0397 4.88711 26.8677 5.78988 26.8625 6.4825C27.4327 6.46797 28.5026 6.29934 28.517 7.15254C28.5318 8.02293 27.4409 7.86098 26.8524 7.85164C26.869 8.55367 27.0392 9.21082 26.2856 9.5182C25.2956 9.47117 25.4734 8.605 25.4792 7.85305C25.1009 7.85656 24.3302 7.93395 24.0352 7.6634C23.7628 7.41355 23.7677 6.91359 24.0373 6.66398C24.3351 6.38828 25.0929 6.47379 25.48 6.47949C25.4791 5.76352 25.2965 5.04168 26.1224 4.80664Z" fill="#F54A7E"/>
<path d="M20.7674 14.1461L20.7928 14.1446C22.1498 14.0671 24.0826 14.1286 25.479 14.1285L27.5098 14.1261C27.8066 14.126 28.2845 14.0954 28.5668 14.1391C29.0365 14.212 28.9728 14.6816 28.6961 14.9468C28.5944 14.9529 28.4926 14.9577 28.3907 14.9613C25.9486 15.0413 23.4172 14.9252 20.9681 14.9499C20.4732 14.9549 20.4508 14.4487 20.7674 14.1461Z" fill="#44569C"/>
<path d="M20.8028 11.6439C22.157 11.5777 23.9709 11.6343 25.3586 11.6323L27.4137 11.6295C27.837 11.6291 29.0708 11.4549 28.9012 12.1389C28.8608 12.3018 28.8021 12.3662 28.6666 12.4554C27.2466 12.5217 25.3471 12.4671 23.8984 12.4679L21.9473 12.4688C21.5565 12.4689 20.4506 12.6318 20.5626 12.0008C20.5947 11.8199 20.6578 11.7481 20.8028 11.6439Z" fill="#44569C"/>
<path d="M20.7654 16.7649C20.8307 16.7609 20.896 16.7579 20.9613 16.7558C22.4542 16.7098 24.0379 16.7718 25.5437 16.7477C26.5241 16.7562 27.5078 16.7269 28.4871 16.7648C29.0327 16.7858 29.0172 17.2821 28.6832 17.5725C28.6394 17.5753 28.5955 17.5774 28.5515 17.5788C26.9975 17.6214 25.3625 17.5598 23.7979 17.5846C22.8534 17.5736 21.903 17.6067 20.9597 17.5693C20.452 17.5492 20.4697 17.0541 20.7654 16.7649Z" fill="#44569C"/>
<path d="M20.8276 19.3842C22.5103 19.3169 24.3253 19.4017 26.0274 19.3687C26.889 19.3923 27.7978 19.3182 28.6503 19.408C28.9366 19.4382 29.0626 19.9965 28.6245 20.1992C26.0801 20.2542 23.4729 20.1732 20.9251 20.1896C20.5011 20.1923 20.4119 19.6304 20.8276 19.3842Z" fill="#44569C"/>
<path d="M20.9188 9.07617C21.3955 9.05105 23.4814 8.8332 23.4434 9.51609C23.431 9.73878 23.2776 9.84999 23.0724 9.90452C22.6051 9.91046 20.5383 10.133 20.5518 9.48171C20.5564 9.2605 20.7003 9.128 20.9188 9.07617Z" fill="#44569C"/>
<path d="M5.57992 16.373C5.75551 17.3047 5.96836 18.33 6.10957 19.2596C7.40172 19.2575 8.72012 19.2418 10.0102 19.2586C9.6118 19.4452 9.23489 19.722 9.07422 20.1521C8.88582 20.6564 8.98391 24.0859 8.98379 24.8224L8.98344 32.1448L8.98379 36.4245C8.98383 37.1408 8.97973 37.8643 8.98797 38.582C8.99684 38.7931 9.08102 39.0053 9.16071 39.1954C9.30746 39.5454 9.61457 39.7208 9.9366 39.8833C10.0488 39.94 10.1015 39.8904 10.2216 40.0005H5.4843C4.96895 39.7915 4.31637 39.4489 4.27418 38.8321C4.20039 37.7536 4.23086 36.636 4.23074 35.5544L4.23035 29.7444L4.23477 21.312C4.24227 20.1535 4.22938 18.9953 4.25539 17.8384C4.27242 17.0807 4.59203 16.7224 5.29961 16.4868C5.41961 16.4468 5.49481 16.4742 5.57992 16.373Z" fill="#5FAAF0"/>
<path d="M19.7495 28.1016C21.1405 28.2042 20.8661 29.7782 20.8546 30.7831C21.3589 30.7771 22.7348 30.6389 23.193 31.0939C23.7093 31.6066 23.6183 32.5944 22.8895 32.8829C22.4091 33.073 21.4381 33.0059 20.8509 32.9987C20.8681 34.0277 21.1491 35.4805 19.7962 35.6843C18.3324 35.6172 18.6268 34.0483 18.6335 33.0037C17.9186 33.0084 16.7886 33.1469 16.235 32.6318C15.8195 32.2451 15.9324 31.4379 16.307 31.0786C16.7489 30.6548 18.0246 30.7754 18.6327 30.7781C18.6372 29.7007 18.315 28.2708 19.7495 28.1016Z" fill="#EAEEFD"/>
<path d="M32.9128 16.4529C34.3441 16.4151 35.7789 16.2053 35.7818 18.1501C35.7852 20.3884 35.7943 22.6276 35.7717 24.8661C35.6713 24.2332 35.3016 23.9703 34.7433 23.7351C34.2118 23.5113 31.7044 23.8172 31.3576 23.6358C31.3703 22.9676 31.3088 21.6594 31.4104 21.0584C31.493 20.727 31.736 20.0884 31.8524 19.7327C32.212 18.6414 32.5655 17.5481 32.9128 16.4529Z" fill="#5FAAF0"/>
</g>
<defs>
<clipPath id="clip0_426_4056">
<rect width="40" height="40" fill="white"/>
</clipPath>
</defs>
</svg>
