<svg width="40" height="40" viewBox="0 0 40 40" fill="none" xmlns="http://www.w3.org/2000/svg">
<g clip-path="url(#clip0_426_4041)">
<path d="M14.4301 0H15.1856C15.8927 0.338273 17.7453 1.63471 17.8776 2.43338C17.9788 3.04444 17.4879 3.64889 16.9266 3.78701C16.7946 3.81949 16.6225 3.88186 16.5967 4.03578C16.9159 3.94379 17.1938 3.82191 17.5201 3.746C18.6302 3.48779 19.3985 3.64952 20.3866 4.12168C21.5729 4.8625 23.2627 7.13223 24.258 8.26512L27.2605 11.7194C28.0876 12.6724 28.9282 13.565 29.6479 14.6123C30.7703 16.2455 31.6534 18.0684 32.1012 20.006C32.5242 21.8691 32.5336 23.8023 32.1288 25.6695C32.0616 25.9937 31.8816 26.7205 31.7085 27.0028C30.8463 26.7102 30.1293 26.4806 29.2512 26.915C28.4962 27.2886 28.1521 27.9423 27.8712 28.6977C27.598 29.432 27.2641 30.1632 27.0122 30.9034C28.1026 31.0286 29.1469 30.6593 30.0397 31.7773C30.2594 32.0529 30.4139 32.3746 30.4916 32.7184C30.5948 33.1668 30.6316 35.8246 30.5814 36.3852C30.6124 37.4342 30.7301 38.4423 29.944 39.266C29.7616 39.457 29.4322 39.7176 29.1895 39.8207C29.0257 39.8906 28.8925 39.9027 28.7147 40H23.276C21.2615 39.042 21.4328 38.0833 21.4555 36.093C21.0435 36.1384 20.5898 36.248 20.1935 36.2669L20.1706 36.2703C13.0077 37.3056 5.76495 32.1679 4.65792 24.9752C4.04515 20.9937 5.32519 17.1145 7.76156 13.9605C8.02722 13.6166 8.31023 13.2917 8.57093 12.946C8.69265 12.5969 8.8614 10.8671 8.77124 10.5348C8.67722 10.4412 8.53468 10.4316 8.39976 10.405C7.63617 10.042 7.27804 9.33379 7.76511 8.57355C7.89163 8.37605 8.08683 8.22488 8.26406 8.07383C8.84816 7.65793 9.51999 6.97617 10.1881 6.72957C11.2298 6.34512 12.0156 7.59859 12.8104 7.9859C12.8076 7.77652 12.8148 7.56301 12.837 7.35492C12.9609 6.19309 13.0026 5.05559 13.0282 3.88867C12.5854 3.77676 12.1271 3.54594 11.8971 3.13329C11.7435 2.86332 11.7078 2.54196 11.7986 2.24487C12.0305 1.48695 13.7348 0.376065 14.4301 0Z" fill="#FE8A97"/>
<path d="M8.26406 8.0729C8.84816 7.65701 9.51999 6.97525 10.1881 6.72865C11.2298 6.34419 12.0156 7.59767 12.8104 7.98497C13.3553 8.47806 13.599 8.6379 13.6203 9.4088C14.0775 9.52126 14.5504 9.51908 15.0203 9.52771C13.744 12.1327 12.7958 14.5586 12.5346 17.4818C12.5148 17.7033 12.463 18.2606 12.4013 18.4447C12.2078 18.2844 12.0609 18.1614 11.7935 18.1876C11.6517 18.2021 11.5216 18.2731 11.4326 18.3845C11.1947 18.6795 11.2976 18.9547 11.458 19.2471C8.32015 20.1394 9.78484 23.3815 12.5401 22.9207C12.5293 23.5902 12.8006 24.6865 12.9297 25.3575C12.9696 25.5648 13.0916 25.9936 13.0947 26.1774C14.3611 26.5374 15.4315 27.388 16.0682 28.5404C16.6984 29.6582 16.9934 31.1969 15.6434 31.9403C16.6151 33.253 17.4355 34.2663 18.7465 35.2786C19.0848 35.5398 19.9856 36.0635 20.1935 36.266L20.1706 36.2693C13.0077 37.3047 5.76495 32.167 4.65792 24.9742C4.04515 20.9928 5.32519 17.1136 7.76156 13.9595C8.02722 13.6156 8.31023 13.2908 8.57093 12.9451C8.69265 12.596 8.8614 10.8662 8.77124 10.5338C8.67722 10.4403 8.53468 10.4307 8.39976 10.4041C7.63617 10.041 7.27804 9.33286 7.76511 8.57263C7.89163 8.37513 8.08683 8.22396 8.26406 8.0729Z" fill="#FE5C6F"/>
<path d="M8.26435 8.0729C8.84845 7.65701 9.52029 6.97525 10.1884 6.72865C11.2301 6.34419 12.0159 7.59767 12.8107 7.98497C13.3556 8.47806 13.5993 8.6379 13.6206 9.4088C13.3426 10.1672 13.0836 10.3189 12.315 10.511C12.3338 10.9868 12.3645 11.4622 12.4072 11.9364C12.451 12.3785 12.6083 13.112 12.5506 13.5254C12.4463 14.2729 11.5414 14.5557 10.8918 14.5415C10.2533 14.5453 9.45919 14.5913 8.94611 14.1437C8.53599 13.7594 8.62966 13.3886 8.57122 12.9451C8.69294 12.596 8.86169 10.8662 8.77154 10.5338C8.67751 10.4403 8.53497 10.4307 8.40005 10.4041C7.63646 10.041 7.27833 9.33286 7.7654 8.57263C7.89193 8.37513 8.08712 8.22396 8.26435 8.0729Z" fill="#F0EFFC"/>
<path d="M15.6435 31.9421C15.2759 32.0699 14.8644 32.1444 14.4654 32.1001C12.4804 31.8793 10.4654 29.7781 10.5905 27.7332C10.6183 27.2798 10.849 26.7978 11.2077 26.5123C11.7821 26.0551 12.415 26.1049 13.0948 26.1792C14.3612 26.5392 15.4316 27.3898 16.0683 28.5422C16.6985 29.66 16.9934 31.1987 15.6435 31.9421Z" fill="#F7334C"/>
<path d="M27.0122 30.9041C28.1025 31.0292 29.1469 30.66 30.0397 31.778C30.2594 32.0535 30.4139 32.3752 30.4915 32.719C30.5947 33.1675 30.6316 35.8252 30.5814 36.3859C30.6123 37.4348 30.7301 38.443 29.9439 39.2667C29.7615 39.4577 29.4321 39.7182 29.1895 39.8214C29.0256 39.8913 28.8925 39.9034 28.7146 40.0007H23.276C21.2614 39.0427 21.4328 38.084 21.4555 36.0937C21.6593 34.732 21.0691 32.7618 22.0994 31.6691C23.1888 30.5138 25.4842 30.9661 27.0122 30.9041Z" fill="#F0EFFC"/>
<path d="M14.4298 0H15.1853C15.8924 0.338273 17.745 1.63471 17.8773 2.43338C17.9785 3.04444 17.4876 3.64889 16.9263 3.78701C16.7943 3.81949 16.6222 3.88186 16.5964 4.03578C16.5252 4.34934 16.6838 6.67422 16.7461 7.06164C16.8679 8.15895 17.1162 9.3107 15.6053 9.47672C15.4105 9.49672 15.2153 9.51402 15.02 9.52863C14.5501 9.52 14.0772 9.52219 13.62 9.40973C13.5987 8.63883 13.355 8.47898 12.8101 7.9859C12.8073 7.77652 12.8145 7.56301 12.8367 7.35492C12.9605 6.19309 13.0023 5.05559 13.0279 3.88867C12.5851 3.77676 12.1268 3.54594 11.8968 3.13329C11.7432 2.86332 11.7075 2.54196 11.7983 2.24487C12.0302 1.48695 13.7345 0.376065 14.4298 0Z" fill="#00B862"/>
<path d="M11.4577 19.248C12.1656 19.8737 12.9294 20.1598 13.8765 19.9344C13.978 19.9596 14.0233 20.0211 14.0814 20.1036C14.9931 21.397 13.8814 22.7271 12.5398 22.9216C9.7845 23.3825 8.31981 20.1404 11.4577 19.248Z" fill="#F0EFFC"/>
<path d="M16.5971 4.03529C16.9163 3.9433 17.1942 3.82142 17.5206 3.74551C18.6306 3.4873 19.399 3.64903 20.387 4.12119C19.867 4.54232 19.1442 4.89533 18.4965 5.41517C18.1178 5.72248 17.7565 6.05056 17.4142 6.39799C17.2272 6.58595 16.9394 6.90138 16.7468 7.06115C16.6845 6.67373 16.5259 4.34885 16.5971 4.03529Z" fill="#FE5C6F"/>
<path d="M11.4578 19.2486C11.2974 18.9562 11.1945 18.681 11.4324 18.386C11.5214 18.2746 11.6515 18.2036 11.7933 18.1891C12.0606 18.1629 12.2076 18.2859 12.4011 18.4462C13.1775 19.1759 13.7351 18.6748 14.4466 18.2551C14.6035 18.1625 14.899 18.1878 15.016 18.3229C15.7327 19.008 14.4983 19.7952 13.8767 19.9349C12.9295 20.1604 12.1658 19.8743 11.4578 19.2486Z" fill="#4B5560"/>
<path d="M22.9593 19.9108C22.4876 19.7286 22.0598 19.5487 21.7783 19.0909C21.6402 18.8663 21.667 18.357 21.9315 18.2538C22.5631 18.0174 23.067 18.8161 23.6504 18.8444C24.2431 18.8731 25.2488 17.4985 25.5983 18.6441C25.6701 18.8793 25.5699 19.0327 25.4499 19.2313C26.1099 19.4711 26.758 19.7357 27.0773 20.4327C27.254 20.824 27.2632 21.2706 27.1027 21.6689C26.9042 22.1723 26.47 22.5305 25.9814 22.7367C25.2695 23.0312 24.4705 23.034 23.7565 22.7446C22.8163 22.3548 22.2065 21.4419 22.6492 20.4381C22.7325 20.2491 22.8533 20.0879 22.9593 19.9108Z" fill="#F0EFFC"/>
<path d="M22.9593 19.9108C22.4876 19.7286 22.0598 19.5487 21.7783 19.0909C21.6402 18.8663 21.667 18.357 21.9315 18.2538C22.5631 18.0174 23.067 18.8161 23.6504 18.8444C24.2431 18.8731 25.2488 17.4985 25.5983 18.6441C25.6701 18.8793 25.5699 19.0327 25.4499 19.2313C24.6432 19.9718 24.017 20.1343 22.9593 19.9108Z" fill="#4B5560"/>
<path d="M18.2502 19.7806C18.444 19.767 18.6388 19.7728 18.8315 19.7978C19.6931 19.9118 20.4479 20.4096 20.9715 21.0952C21.2119 21.4099 21.3122 21.7871 20.9459 22.0639C20.3294 22.5298 19.9402 21.6258 19.4925 21.3282C19.1708 21.1144 19.0225 21.0499 18.6407 20.9878C18.1517 20.9618 17.8799 21.0195 17.4628 21.2989C17.0186 21.5964 16.547 22.5555 15.9391 22.0433C15.5798 21.7405 15.7279 21.3349 15.9883 21.0261C16.6094 20.2897 17.2925 19.8878 18.2502 19.7806Z" fill="#4B5560"/>
<path d="M27.0127 30.9033C27.2646 30.163 27.5985 29.4318 27.8716 28.6975C28.1526 27.9422 28.4967 27.2884 29.2516 26.9149C30.1298 26.4804 30.8468 26.7101 31.709 27.0026L31.7416 27.0208C33.0342 27.7285 34.9 27.9947 36.0418 28.9653C36.6066 29.5283 36.906 30.6566 36.5902 31.3855C35.9824 32.7885 35.5553 34.4157 34.8421 35.7503C33.8023 37.6959 32.0282 36.9239 30.5819 36.385C30.6321 35.8244 30.5952 33.1667 30.492 32.7182C30.4144 32.3744 30.2599 32.0527 30.0402 31.7771C29.1474 30.6591 28.103 31.0284 27.0127 30.9033Z" fill="#D8D9F8"/>
<path d="M5.95487 0H6.69155C7.2655 0.260367 9.07202 1.55333 9.30468 2.15329C9.4194 2.45516 9.40835 2.79041 9.27401 3.08408C9.04874 3.58773 8.59081 3.76116 8.08761 3.85664C8.1887 5.26027 8.24765 6.66664 8.26441 8.07383C8.08718 8.22488 7.89198 8.37605 7.76546 8.57355C7.27839 9.33379 7.63651 10.042 8.40011 10.405C8.20741 11.3187 7.00804 11.3695 6.27753 11.365C5.37261 11.3595 4.24167 11.2441 4.25343 10.0775C4.26046 9.37762 4.34675 8.71211 4.39132 8.01773C4.48632 6.63613 4.5421 5.25211 4.55851 3.86734L4.49347 3.85194C3.74624 3.67244 3.06946 3.07077 3.31487 2.27161C3.57798 1.4148 5.20565 0.434176 5.95487 0Z" fill="#00B862"/>
</g>
<defs>
<clipPath id="clip0_426_4041">
<rect width="40" height="40" fill="white"/>
</clipPath>
</defs>
</svg>
