<svg width="40" height="40" viewBox="0 0 40 40" fill="none" xmlns="http://www.w3.org/2000/svg">
<path d="M25.0278 12.5018L25.046 12.4783C25.8428 11.4362 26.2533 10.1034 27.8388 9.9643C31.7288 9.62297 35.2298 13.5122 33.992 17.3765C36.5426 19.8148 36.4493 23.4123 34.0405 25.9188L33.9846 25.9768C34.4146 27.2453 34.251 28.8161 33.6601 30.0159C32.9381 31.4477 31.6781 32.5351 30.1561 33.04C28.8495 33.4886 27.4287 33.4764 26.1299 33.0054C25.7165 32.8554 25.3516 32.6461 25.0112 32.5177C24.9895 33.1256 24.7859 33.4967 24.2901 33.8526C24.0703 34.0104 23.864 34.0535 23.6628 34.1745C24.2505 34.2972 24.8595 34.8 24.964 35.409C25.0553 35.7545 25.0318 37.3588 24.9776 37.7862C24.9031 38.2179 24.6867 38.5813 24.332 38.8376C23.7201 39.2798 22.8555 39.1724 22.1218 39.172L19.8062 39.1701L17.7988 39.1728C16.2163 39.1775 14.9512 39.1935 14.9915 37.0907C15.0011 36.5861 14.9339 35.8964 15.0358 35.4084C15.0474 34.8455 15.8316 34.2979 16.3374 34.1645C16.2545 34.1004 15.8208 33.9878 15.546 33.7368C15.1298 33.3565 15.0375 33.0786 14.9793 32.5309C14.9215 32.5356 14.4343 32.7907 14.3142 32.839C12.6172 33.5213 10.8522 33.515 9.17814 32.7356C7.73998 32.0682 6.62885 30.8529 6.09268 29.3609C5.7665 28.4567 5.65244 26.8583 6.06541 25.9762C3.50843 23.449 3.51867 19.9179 6.04084 17.373C5.76951 16.5624 5.76943 15.5029 5.94279 14.6706C6.25404 13.162 7.14865 11.8376 8.43182 10.9856C9.47908 10.2984 11.1643 9.75915 12.4244 10.0157C13.8406 10.304 14.2139 11.3892 14.9134 12.469L14.9781 12.4563C15.2226 13.3069 16.5022 14.964 17.0101 15.7496C17.2698 16.1515 18.0507 16.6084 18.5247 16.6049C19.662 16.5966 21.8819 16.9627 22.7239 16.038C23.5568 15.1234 24.4006 13.7179 24.9622 12.6311C24.9845 12.5882 25.0063 12.5451 25.0278 12.5018Z" fill="#EF6472"/>
<path d="M16.3373 34.1645C16.9248 34.1351 17.5433 34.1317 18.1317 34.142C19.9658 34.1743 21.8323 34.0927 23.6628 34.1745C24.2505 34.2972 24.8594 34.8 24.964 35.409C25.0553 35.7545 25.0318 37.3588 24.9775 37.7862C24.9031 38.2179 24.6867 38.5813 24.332 38.8376C23.7201 39.2798 22.8555 39.1724 22.1218 39.172L19.8062 39.1701L17.7987 39.1728C16.2163 39.1775 14.9511 39.1935 14.9914 37.0907C15.0011 36.5861 14.9338 35.8964 15.0358 35.4084C15.0473 34.8455 15.8316 34.2979 16.3373 34.1645Z" fill="#EDECF0"/>
<path d="M24.964 35.4088C25.0553 35.7543 25.0318 37.3586 24.9775 37.786C24.9031 38.2177 24.6867 38.5811 24.332 38.8374C23.7201 39.2796 22.8555 39.1722 22.1218 39.1718L19.8062 39.1699L17.7987 39.1726C16.2163 39.1773 14.9511 39.1933 14.9914 37.0905C15.0011 36.5859 14.9338 35.8962 15.0358 35.4082C15.0641 35.835 15.0333 36.2602 15.0591 36.6858C15.4549 36.9395 15.7228 37.2427 16.1797 37.4123C16.6145 37.5737 22.4168 37.5402 23.2562 37.4847C23.5335 37.4663 23.8037 37.4466 24.0581 37.3249C24.426 37.1489 24.6924 36.8242 24.9494 36.5186C24.9537 36.2777 24.9394 35.6028 24.964 35.4088Z" fill="#DCD9E4"/>
<path d="M14.9795 32.5317L15.7029 32.1602C16.0545 32.6051 17.3239 32.5031 17.8869 32.5039L20.1201 32.5055C21.2929 32.5056 22.5147 32.5392 23.686 32.4558C23.8971 32.4408 24.164 32.2992 24.323 32.1602C24.4699 32.2392 24.8689 32.4647 25.0113 32.5186C24.9897 33.1265 24.7861 33.4976 24.2903 33.8535C24.0705 34.0113 23.8641 34.0544 23.663 34.1754C21.8325 34.0935 19.9661 34.1752 18.132 34.1429C17.5435 34.1325 16.925 34.1359 16.3375 34.1654C16.2547 34.1012 15.8209 33.9887 15.5462 33.7376C15.13 33.3573 15.0377 33.0795 14.9795 32.5317Z" fill="#DCD9E4"/>
<path d="M15.7031 32.1604C19.426 30.316 20.6241 30.2441 24.3232 32.1603C24.1642 32.2994 23.8973 32.441 23.6862 32.456C22.5149 32.5394 21.2931 32.5058 20.1203 32.5057L17.8871 32.5041C17.3241 32.5033 16.0547 32.6053 15.7031 32.1604Z" fill="#EDECF0"/>
<path d="M17.6342 21.683C18.1841 21.632 18.3961 21.9302 18.8837 22.2071C19.5801 22.6024 20.38 22.5996 21.0834 22.2288C21.4968 22.0108 21.7035 21.7802 22.1599 21.666C23.1666 21.9176 23.2155 22.7377 22.4353 23.3503C22.2653 23.4774 22.0857 23.5911 21.8981 23.6903C20.9402 24.1871 19.8261 24.2898 18.7936 23.9764C18.2217 23.7996 17.374 23.384 17.0748 22.83C16.8 22.321 17.1755 21.9023 17.6342 21.683Z" fill="#C5455E"/>
<path d="M10.2652 18.3242C11.0035 18.3792 11.3761 19.198 12.4973 19.1848C13.151 19.3313 14.3358 18.252 14.7607 18.3886C15.9094 18.7579 15.4664 19.6116 14.8614 20.0727C14.4943 20.3349 14.0852 20.5327 13.6517 20.6575C12.5902 20.9708 11.447 20.8404 10.4832 20.2962C10.101 20.082 9.64851 19.7657 9.52566 19.3214C9.37812 18.7878 9.78792 18.4525 10.2652 18.3242Z" fill="#C5455E"/>
<path d="M10.2655 25.8242C10.9908 25.8748 11.362 26.68 12.4628 26.6845C13.1317 26.8491 14.3304 25.7517 14.7608 25.8891C15.9094 26.2558 15.4658 27.1118 14.8613 27.5726C14.4901 27.8375 14.0762 28.0366 13.6376 28.1613C12.5798 28.4696 11.4424 28.3379 10.4831 27.7961C10.101 27.5817 9.64837 27.2654 9.52568 26.8212C9.37814 26.2871 9.78755 25.9521 10.2655 25.8242Z" fill="#C5455E"/>
<path d="M25.1729 25.8632C25.9963 25.8037 26.3067 26.6968 27.4931 26.679C28.6925 26.661 28.7247 26.0315 29.7061 25.8555C29.9057 25.8552 30.1552 25.9974 30.263 26.1461C30.7236 26.7817 30.3811 27.1503 29.8938 27.5564C29.6984 27.6885 29.5062 27.8067 29.2939 27.9106C28.3174 28.3818 27.1949 28.4504 26.1684 28.1016C25.2109 27.7742 23.5477 26.6212 25.1729 25.8632Z" fill="#C5455E"/>
<path d="M25.1709 18.3635C25.9976 18.3031 26.3054 19.1968 27.4932 19.1791C28.6922 19.1613 28.7252 18.5314 29.7063 18.3555C29.9059 18.3553 30.1553 18.4975 30.2631 18.6463C30.7243 19.2827 30.3806 19.6514 29.8925 20.0574C29.7016 20.1893 29.5015 20.3074 29.2937 20.4108C28.3175 20.8818 27.1953 20.9503 26.169 20.6016C25.2129 20.2744 23.5484 19.1239 25.1709 18.3635Z" fill="#C5455E"/>
<path d="M13.5644 0.808582C14.3333 0.768489 15.4402 0.757692 16.2079 0.817031C18.7386 1.01262 17.2624 4.39183 18.8995 5.46312C19.6539 5.99273 20.7847 5.86765 21.3945 5.19609C22.5449 3.92921 21.4703 0.743649 24.0106 0.778516C25.0657 0.793 26.9699 0.53561 27.7634 1.26731C28.084 1.56041 28.2699 1.97247 28.2774 2.40678C28.2941 3.0899 27.8803 3.67751 27.6176 4.28265C26.9243 5.87945 26.12 7.43312 25.5161 9.0675C25.1838 9.96945 25.1094 10.6015 25.0358 11.532L25.0284 12.5018C25.007 12.545 24.9851 12.5881 24.9629 12.631C24.4012 13.7178 23.5574 15.1233 22.7245 16.0379C21.8825 16.9626 19.6626 16.5965 18.5253 16.6048C18.0513 16.6083 17.2704 16.1514 17.0107 15.7495C16.5029 14.9639 15.2232 13.3068 14.9787 12.4562C14.92 11.4926 14.9888 10.5652 14.692 9.61492C14.1697 7.94332 13.3105 6.38 12.6191 4.77757C12.1774 3.7539 11.2349 2.43773 12.1398 1.41708C12.5415 0.960606 12.9917 0.847336 13.5644 0.808582Z" fill="#EDECF0"/>
<path d="M14.9787 12.4563C14.92 11.4926 14.9888 10.5652 14.692 9.61493C14.1697 7.94333 13.3105 6.38001 12.6191 4.77759C12.1774 3.75391 11.2349 2.43774 12.1398 1.41709C12.5415 0.960617 12.9917 0.847348 13.5644 0.808594C13.1848 1.83152 13.8249 2.96721 14.2554 3.90583L15.4758 6.5313C15.7048 7.02216 16.0483 7.71298 16.2168 8.21923C16.4276 8.85735 16.5649 9.51743 16.6261 10.1866C16.6681 10.608 16.6722 11.4163 17.1013 11.5481C17.6921 11.7298 18.5678 11.6755 19.1956 11.6747L22.7899 11.6685C23.359 11.6674 24.39 11.6386 24.9187 11.7082C24.9988 11.6468 25.0022 11.6285 25.0358 11.532L25.0284 12.5018C25.007 12.545 24.9851 12.5881 24.9629 12.631C24.4012 13.7178 23.5574 15.1233 22.7245 16.0379C21.8825 16.9626 19.6626 16.5965 18.5253 16.6048C18.0513 16.6083 17.2704 16.1514 17.0107 15.7495C16.5029 14.964 15.2232 13.3068 14.9787 12.4563Z" fill="#DCD9E4"/>
</svg>
