<svg width="16" height="16" viewBox="0 0 16 16" fill="none" xmlns="http://www.w3.org/2000/svg">
<mask id="mask0_324_3801" style="mask-type:alpha" maskUnits="userSpaceOnUse" x="0" y="0" width="16" height="16">
<rect width="16" height="16" fill="#D9D9D9"/>
</mask>
<g mask="url(#mask0_324_3801)">
<path d="M3.53817 14.3333C3.2014 14.3333 2.91634 14.2167 2.68301 13.9833C2.44967 13.75 2.33301 13.465 2.33301 13.1282V4.20518C2.33301 3.8684 2.44967 3.58334 2.68301 3.35001C2.91634 3.11668 3.2014 3.00001 3.53817 3.00001H4.46117V2.10251C4.46117 1.9564 4.51012 1.8344 4.60801 1.73651C4.7059 1.63873 4.8279 1.58984 4.97401 1.58984C5.12023 1.58984 5.24223 1.63873 5.34001 1.73651C5.4379 1.8344 5.48684 1.9564 5.48684 2.10251V3.00001H10.5382V2.08984C10.5382 1.94795 10.586 1.82912 10.6817 1.73334C10.7775 1.63768 10.8963 1.58984 11.0382 1.58984C11.1801 1.58984 11.2988 1.63768 11.3945 1.73334C11.4903 1.82912 11.5382 1.94795 11.5382 2.08984V3.00001H12.4612C12.798 3.00001 13.083 3.11668 13.3163 3.35001C13.5497 3.58334 13.6663 3.8684 13.6663 4.20518V13.1282C13.6663 13.465 13.5497 13.75 13.3163 13.9833C13.083 14.2167 12.798 14.3333 12.4612 14.3333H3.53817ZM3.53817 13.3333H12.4612C12.5125 13.3333 12.5595 13.312 12.6022 13.2692C12.645 13.2265 12.6663 13.1795 12.6663 13.1282V6.87184H3.33301V13.1282C3.33301 13.1795 3.3544 13.2265 3.39717 13.2692C3.43984 13.312 3.48684 13.3333 3.53817 13.3333ZM7.99967 9.38468C7.83645 9.38468 7.69734 9.32718 7.58234 9.21218C7.46745 9.09729 7.41001 8.95818 7.41001 8.79484C7.41001 8.63162 7.46745 8.49251 7.58234 8.37751C7.69734 8.26262 7.83645 8.20518 7.99967 8.20518C8.1629 8.20518 8.30201 8.26262 8.41701 8.37751C8.5319 8.49251 8.58934 8.63162 8.58934 8.79484C8.58934 8.95818 8.5319 9.09729 8.41701 9.21218C8.30201 9.32718 8.1629 9.38468 7.99967 9.38468ZM4.91567 9.21218C4.80079 9.09729 4.74334 8.95818 4.74334 8.79484C4.74334 8.63162 4.80079 8.49251 4.91567 8.37751C5.03067 8.26262 5.16979 8.20518 5.33301 8.20518C5.49623 8.20518 5.63534 8.26262 5.75034 8.37751C5.86523 8.49251 5.92267 8.63162 5.92267 8.79484C5.92267 8.95818 5.86523 9.09729 5.75034 9.21218C5.63534 9.32718 5.49623 9.38468 5.33301 9.38468C5.16979 9.38468 5.03067 9.32718 4.91567 9.21218ZM10.6663 9.38468C10.5031 9.38468 10.364 9.32718 10.249 9.21218C10.1341 9.09729 10.0767 8.95818 10.0767 8.79484C10.0767 8.63162 10.1341 8.49251 10.249 8.37751C10.364 8.26262 10.5031 8.20518 10.6663 8.20518C10.8296 8.20518 10.9687 8.26262 11.0837 8.37751C11.1986 8.49251 11.256 8.63162 11.256 8.79484C11.256 8.95818 11.1986 9.09729 11.0837 9.21218C10.9687 9.32718 10.8296 9.38468 10.6663 9.38468ZM7.99967 12C7.83645 12 7.69734 11.9425 7.58234 11.8275C7.46745 11.7126 7.41001 11.5736 7.41001 11.4103C7.41001 11.247 7.46745 11.1079 7.58234 10.993C7.69734 10.878 7.83645 10.8205 7.99967 10.8205C8.1629 10.8205 8.30201 10.878 8.41701 10.993C8.5319 11.1079 8.58934 11.247 8.58934 11.4103C8.58934 11.5736 8.5319 11.7126 8.41701 11.8275C8.30201 11.9425 8.1629 12 7.99967 12ZM4.91567 11.8275C4.80079 11.7126 4.74334 11.5736 4.74334 11.4103C4.74334 11.247 4.80079 11.1079 4.91567 10.993C5.03067 10.878 5.16979 10.8205 5.33301 10.8205C5.49623 10.8205 5.63534 10.878 5.75034 10.993C5.86523 11.1079 5.92267 11.247 5.92267 11.4103C5.92267 11.5736 5.86523 11.7126 5.75034 11.8275C5.63534 11.9425 5.49623 12 5.33301 12C5.16979 12 5.03067 11.9425 4.91567 11.8275ZM10.6663 12C10.5031 12 10.364 11.9425 10.249 11.8275C10.1341 11.7126 10.0767 11.5736 10.0767 11.4103C10.0767 11.247 10.1341 11.1079 10.249 10.993C10.364 10.878 10.5031 10.8205 10.6663 10.8205C10.8296 10.8205 10.9687 10.878 11.0837 10.993C11.1986 11.1079 11.256 11.247 11.256 11.4103C11.256 11.5736 11.1986 11.7126 11.0837 11.8275C10.9687 11.9425 10.8296 12 10.6663 12Z" fill="#F66B9A"/>
</g>
</svg>
