<svg width="16" height="16" viewBox="0 0 16 16" fill="none" xmlns="http://www.w3.org/2000/svg">
<mask id="mask0_324_3823" style="mask-type:alpha" maskUnits="userSpaceOnUse" x="0" y="0" width="16" height="16">
<rect width="16" height="16" fill="#D9D9D9"/>
</mask>
<g mask="url(#mask0_324_3823)">
<path d="M7.05416 9.43018L5.50549 7.88135C5.41316 7.78913 5.2971 7.7419 5.15733 7.73968C5.01766 7.73757 4.89949 7.78479 4.80283 7.88135C4.70627 7.97802 4.65799 8.09513 4.65799 8.23268C4.65799 8.37024 4.70627 8.48735 4.80283 8.58402L6.63233 10.4135C6.75288 10.534 6.89349 10.5942 7.05416 10.5942C7.21483 10.5942 7.35544 10.534 7.47599 10.4135L11.185 6.70452C11.2772 6.61218 11.3244 6.49613 11.3267 6.35635C11.3288 6.21668 11.2815 6.09852 11.185 6.00185C11.0883 5.90529 10.9712 5.85702 10.8337 5.85702C10.6961 5.85702 10.579 5.90529 10.4823 6.00185L7.05416 9.43018ZM8.00149 14.3327C7.12549 14.3327 6.3021 14.1665 5.53133 13.834C4.76055 13.5016 4.0901 13.0504 3.51999 12.4805C2.94988 11.9106 2.49849 11.2405 2.16583 10.47C1.83327 9.69957 1.66699 8.8764 1.66699 8.00052C1.66699 7.12452 1.83321 6.30113 2.16566 5.53035C2.4981 4.75957 2.94927 4.08913 3.51916 3.51902C4.08905 2.9489 4.75921 2.49752 5.52966 2.16485C6.3001 1.83229 7.12327 1.66602 7.99916 1.66602C8.87516 1.66602 9.69855 1.83224 10.4693 2.16468C11.2401 2.49713 11.9105 2.94829 12.4807 3.51818C13.0508 4.08807 13.5022 4.75824 13.8348 5.52868C14.1674 6.29913 14.3337 7.12229 14.3337 7.99818C14.3337 8.87418 14.1674 9.69757 13.835 10.4683C13.5025 11.2391 13.0514 11.9096 12.4815 12.4797C11.9116 13.0498 11.2414 13.5012 10.471 13.8338C9.70055 14.1664 8.87738 14.3327 8.00149 14.3327Z" fill="#49001E"/>
</g>
</svg>
