<svg width="24" height="24" viewBox="0 0 24 24" fill="none" xmlns="http://www.w3.org/2000/svg">
<mask id="mask0_324_3828" style="mask-type:alpha" maskUnits="userSpaceOnUse" x="0" y="0" width="24" height="24">
<rect width="24" height="24" fill="#D9D9D9"/>
</mask>
<g mask="url(#mask0_324_3828)">
<path d="M5 22.1931C4.78717 22.1931 4.609 22.1213 4.4655 21.9776C4.32183 21.8341 4.25 21.6559 4.25 21.4431C4.25 21.2303 4.32183 21.0521 4.4655 20.9086C4.609 20.7649 4.78717 20.6931 5 20.6931H19C19.2128 20.6931 19.391 20.7649 19.5345 20.9086C19.6782 21.0521 19.75 21.2303 19.75 21.4431C19.75 21.6559 19.6782 21.8341 19.5345 21.9776C19.391 22.1213 19.2128 22.1931 19 22.1931H5ZM5 3.30859C4.78717 3.30859 4.609 3.23676 4.4655 3.09309C4.32183 2.94959 4.25 2.77143 4.25 2.55859C4.25 2.34576 4.32183 2.16759 4.4655 2.02409C4.609 1.88043 4.78717 1.80859 5 1.80859H19C19.2128 1.80859 19.391 1.88043 19.5345 2.02409C19.6782 2.16759 19.75 2.34576 19.75 2.55859C19.75 2.77143 19.6782 2.94959 19.5345 3.09309C19.391 3.23676 19.2128 3.30859 19 3.30859H5ZM12 13.5008C12.7628 13.5008 13.4118 13.2333 13.947 12.6981C14.4823 12.1628 14.75 11.5137 14.75 10.7508C14.75 9.98801 14.4823 9.33901 13.947 8.80384C13.4118 8.26851 12.7628 8.00084 12 8.00084C11.2372 8.00084 10.5882 8.26851 10.053 8.80384C9.51767 9.33901 9.25 9.98801 9.25 10.7508C9.25 11.5137 9.51767 12.1628 10.053 12.6981C10.5882 13.2333 11.2372 13.5008 12 13.5008ZM4.30775 19.5008C3.80258 19.5008 3.375 19.3258 3.025 18.9758C2.675 18.6258 2.5 18.1983 2.5 17.6931V6.30859C2.5 5.80343 2.675 5.37584 3.025 5.02584C3.375 4.67584 3.80258 4.50084 4.30775 4.50084H19.6923C20.1974 4.50084 20.625 4.67584 20.975 5.02584C21.325 5.37584 21.5 5.80343 21.5 6.30859V17.6931C21.5 18.1983 21.325 18.6258 20.975 18.9758C20.625 19.3258 20.1974 19.5008 19.6923 19.5008H4.30775ZM6.404 18.0008C7.154 17.1957 8.00142 16.5778 8.94625 16.1471C9.89108 15.7163 10.909 15.5008 12 15.5008C13.091 15.5008 14.1089 15.7163 15.0538 16.1471C15.9986 16.5778 16.846 17.1957 17.596 18.0008H19.6923C19.7693 18.0008 19.8398 17.9688 19.9038 17.9046C19.9679 17.8406 20 17.7701 20 17.6931V6.30859C20 6.23159 19.9679 6.16109 19.9038 6.09709C19.8398 6.03293 19.7693 6.00084 19.6923 6.00084H4.30775C4.23075 6.00084 4.16025 6.03293 4.09625 6.09709C4.03208 6.16109 4 6.23159 4 6.30859V17.6931C4 17.7701 4.03208 17.8406 4.09625 17.9046C4.16025 17.9688 4.23075 18.0008 4.30775 18.0008H6.404ZM8.7 18.0008H15.3C14.8167 17.6675 14.2958 17.4175 13.7375 17.2508C13.1792 17.0842 12.6 17.0008 12 17.0008C11.4 17.0008 10.8208 17.0842 10.2625 17.2508C9.70417 17.4175 9.18333 17.6675 8.7 18.0008ZM11.1145 11.6366C10.8715 11.3936 10.75 11.0983 10.75 10.7508C10.75 10.4035 10.8715 10.1083 11.1145 9.86534C11.3573 9.62234 11.6525 9.50084 12 9.50084C12.3475 9.50084 12.6427 9.62234 12.8855 9.86534C13.1285 10.1083 13.25 10.4035 13.25 10.7508C13.25 11.0983 13.1285 11.3936 12.8855 11.6366C12.6427 11.8794 12.3475 12.0008 12 12.0008C11.6525 12.0008 11.3573 11.8794 11.1145 11.6366Z" fill="white"/>
</g>
</svg>
