<svg width="16" height="16" viewBox="0 0 16 16" fill="none" xmlns="http://www.w3.org/2000/svg">
<mask id="mask0_324_3798" style="mask-type:alpha" maskUnits="userSpaceOnUse" x="0" y="0" width="16" height="16">
<rect width="16" height="16" fill="#D9D9D9"/>
</mask>
<g mask="url(#mask0_324_3798)">
<path d="M6 12.2428H10C10.1419 12.2428 10.2607 12.195 10.3563 12.0993C10.4521 12.0036 10.5 11.8847 10.5 11.7428C10.5 11.6011 10.4521 11.4823 10.3563 11.3865C10.2607 11.2907 10.1419 11.2428 10 11.2428H6C5.85811 11.2428 5.73933 11.2907 5.64367 11.3865C5.54789 11.4823 5.5 11.6011 5.5 11.7428C5.5 11.8847 5.54789 12.0036 5.64367 12.0993C5.73933 12.195 5.85811 12.2428 6 12.2428ZM6 10.3712H10C10.1419 10.3712 10.2607 10.3233 10.3563 10.2275C10.4521 10.1318 10.5 10.0131 10.5 9.87118C10.5 9.72929 10.4521 9.61046 10.3563 9.51468C10.2607 9.41902 10.1419 9.37118 10 9.37118H6C5.85811 9.37118 5.73933 9.41902 5.64367 9.51468C5.54789 9.61046 5.5 9.72929 5.5 9.87118C5.5 10.0131 5.54789 10.1318 5.64367 10.2275C5.73933 10.3233 5.85811 10.3712 6 10.3712ZM8 4.39168C7.84533 4.19935 7.67356 4.04529 7.48467 3.92952C7.29578 3.81374 7.06756 3.75585 6.8 3.75585C6.44278 3.75585 6.13678 3.88318 5.882 4.13785C5.62733 4.39252 5.5 4.69852 5.5 5.05585C5.5 5.62329 5.75511 6.14313 6.26533 6.61535C6.77567 7.08757 7.21883 7.49507 7.59483 7.83785C7.70428 7.94718 7.83933 8.00185 8 8.00185C8.16067 8.00185 8.29572 7.94718 8.40517 7.83785C8.78117 7.49941 9.22433 7.09296 9.73467 6.61852C10.2449 6.14418 10.5 5.62329 10.5 5.05585C10.5 4.69852 10.3727 4.39252 10.118 4.13785C9.86322 3.88318 9.55722 3.75585 9.2 3.75585C8.93244 3.75585 8.70422 3.81374 8.51533 3.92952C8.32645 4.04529 8.15467 4.19935 8 4.39168ZM11.7948 14.3327H4.20517C3.86839 14.3327 3.58333 14.216 3.35 13.9827C3.11667 13.7493 3 13.4643 3 13.1275V2.87118C3 2.5344 3.11667 2.24935 3.35 2.01602C3.58333 1.78268 3.86839 1.66602 4.20517 1.66602H11.7948C12.1316 1.66602 12.4167 1.78268 12.65 2.01602C12.8833 2.24935 13 2.5344 13 2.87118V13.1275C13 13.4643 12.8833 13.7493 12.65 13.9827C12.4167 14.216 12.1316 14.3327 11.7948 14.3327Z" fill="#F66B9A"/>
</g>
</svg>
