<svg width="16" height="16" viewBox="0 0 16 16" fill="none" xmlns="http://www.w3.org/2000/svg">
<mask id="mask0_324_3804" style="mask-type:alpha" maskUnits="userSpaceOnUse" x="0" y="0" width="16" height="16">
<rect width="16" height="16" fill="#D9D9D9"/>
</mask>
<g mask="url(#mask0_324_3804)">
<path d="M9.50009 13.73C9.30009 13.73 9.12209 13.7034 8.96609 13.65C8.81009 13.5966 8.65475 13.5164 8.50009 13.4095V2.56986C8.65475 2.46308 8.81009 2.38403 8.96609 2.33269C9.12209 2.28147 9.30009 2.25586 9.50009 2.25586C10.0394 2.25586 10.5025 2.44064 10.8893 2.81019C11.2759 3.17986 11.4795 3.63097 11.5001 4.16353V4.22119C11.5001 4.2383 11.4979 4.25542 11.4936 4.27253C12.115 4.34853 12.639 4.62053 13.0654 5.08853C13.492 5.55641 13.7053 6.11219 13.7053 6.75586C13.7053 7.00453 13.6704 7.24319 13.6008 7.47186C13.5311 7.70042 13.4287 7.91258 13.2936 8.10836C13.4073 8.29558 13.4936 8.49558 13.5526 8.70836C13.6116 8.92114 13.6411 9.1378 13.6411 9.35836C13.6411 9.99592 13.4364 10.5459 13.0269 11.0084C12.6176 11.4707 12.1052 11.7463 11.4898 11.8352C11.4513 12.3609 11.2432 12.8081 10.8654 13.1769C10.4876 13.5456 10.0325 13.73 9.50009 13.73ZM6.50009 13.73C5.96764 13.73 5.50975 13.5456 5.12642 13.1769C4.74309 12.8081 4.5322 12.3609 4.49376 11.8352C3.88264 11.7421 3.37409 11.4626 2.96809 10.9969C2.56209 10.531 2.35909 9.9848 2.35909 9.35836C2.35909 9.1378 2.38753 8.92114 2.44442 8.70836C2.5012 8.49558 2.58642 8.29558 2.70009 8.10836C2.56509 7.91258 2.46381 7.70042 2.39626 7.47186C2.3287 7.24319 2.29492 7.00453 2.29492 6.75586C2.29492 6.11653 2.50542 5.56353 2.92642 5.09686C3.34731 4.63019 3.86848 4.3588 4.48992 4.28269C4.48559 4.26558 4.48342 4.24847 4.48342 4.23136V4.17369C4.50398 3.63692 4.70931 3.18308 5.09942 2.81219C5.48964 2.4413 5.95653 2.25586 6.50009 2.25586C6.69587 2.25586 6.87281 2.28319 7.03092 2.33786C7.18903 2.39253 7.34542 2.4733 7.50009 2.58019V13.416C7.34542 13.5228 7.19009 13.6019 7.03409 13.6532C6.87809 13.7044 6.70009 13.73 6.50009 13.73Z" fill="#F66B9A"/>
</g>
</svg>
