<svg width="12" height="12" viewBox="0 0 12 12" fill="none" xmlns="http://www.w3.org/2000/svg">
<mask id="mask0_324_3808" style="mask-type:alpha" maskUnits="userSpaceOnUse" x="0" y="0" width="12" height="12">
<rect width="12" height="12" fill="#D9D9D9"/>
</mask>
<g mask="url(#mask0_324_3808)">
<path d="M2.27387 9.75C2.02137 9.75 1.80762 9.6625 1.63262 9.4875C1.45762 9.3125 1.37012 9.09871 1.37012 8.84613V3.15387C1.37012 2.90129 1.45762 2.6875 1.63262 2.5125C1.80762 2.3375 2.02137 2.25 2.27387 2.25H7.96624C8.21874 2.25 8.43249 2.3375 8.60749 2.5125C8.78249 2.6875 8.86999 2.90129 8.86999 3.15387V5.44238L10.2431 4.06925C10.3169 3.9955 10.3997 3.97708 10.4916 4.014C10.5836 4.05083 10.6296 4.12117 10.6296 4.225V7.775C10.6296 7.87883 10.5836 7.94917 10.4916 7.986C10.3997 8.02292 10.3169 8.0045 10.2431 7.93075L8.86999 6.55762V8.84613C8.86999 9.09871 8.78249 9.3125 8.60749 9.4875C8.43249 9.6625 8.21874 9.75 7.96624 9.75H2.27387Z" fill="#1C1B1F"/>
</g>
</svg>
