<svg width="60" height="60" viewBox="0 0 60 60" fill="none" xmlns="http://www.w3.org/2000/svg">
<g id="Health Insurance Icon">
<g clip-path="url(#clip0_368_14260)">
<path d="M0 24C0 15.5992 0 11.3988 1.6349 8.19014C3.073 5.36771 5.36771 3.073 8.19014 1.6349C11.3988 0 15.5992 0 24 0H36C44.4008 0 48.6012 0 51.8099 1.6349C54.6323 3.073 56.927 5.36771 58.3651 8.19014C60 11.3988 60 15.5992 60 24V36C60 44.4008 60 48.6012 58.3651 51.8099C56.927 54.6323 54.6323 56.927 51.8099 58.3651C48.6012 60 44.4008 60 36 60H24C15.5992 60 11.3988 60 8.19014 58.3651C5.36771 56.927 3.073 54.6323 1.6349 51.8099C0 48.6012 0 44.4008 0 36V24Z" fill="#D1FAE5"/>
<g id="Ellipse 6" style="mix-blend-mode:multiply">
<circle cx="48.75" cy="69.375" r="50.625" fill="#D1FAE5"/>
</g>
<g id="Ellipse 5" style="mix-blend-mode:multiply">
<circle cx="48.75" cy="88.125" r="50.625" fill="#D1FAE5"/>
</g>
<g id="favorite">
<mask id="mask0_368_14260" style="mask-type:alpha" maskUnits="userSpaceOnUse" x="7" y="7" width="46" height="46">
<rect id="Bounding box" x="7.5" y="7.5" width="45" height="45" fill="#D9D9D9"/>
</mask>
<g mask="url(#mask0_368_14260)">
<path id="favorite_2" d="M28.7723 44.2392C28.3673 44.0948 28.0109 43.8689 27.7031 43.5614L25.0097 41.1131C21.6853 38.0819 18.7172 35.1041 16.1053 32.1797C13.4934 29.2553 12.1875 26.1225 12.1875 22.7812C12.1875 20.1203 13.0847 17.8925 14.8791 16.0978C16.6737 14.3034 18.9016 13.4062 21.5625 13.4062C23.0744 13.4062 24.5678 13.7548 26.0428 14.452C27.5175 15.1492 28.8366 16.2814 30 17.8486C31.1634 16.2814 32.4825 15.1492 33.9572 14.452C35.4322 13.7548 36.9256 13.4062 38.4375 13.4062C41.0984 13.4062 43.3263 14.3034 45.1209 16.0978C46.9153 17.8925 47.8125 20.1203 47.8125 22.7812C47.8125 26.1587 46.4844 29.3264 43.8281 32.2842C41.1719 35.242 38.2103 38.1945 34.9434 41.1417L32.2786 43.5614C31.9711 43.8689 31.6119 44.0948 31.2009 44.2392C30.7897 44.3833 30.3834 44.4553 29.9822 44.4553C29.5806 44.4553 29.1773 44.3833 28.7723 44.2392Z" fill="#10B981"/>
</g>
</g>
</g>
</g>
<defs>
<clipPath id="clip0_368_14260">
<path d="M0 24C0 15.5992 0 11.3988 1.6349 8.19014C3.073 5.36771 5.36771 3.073 8.19014 1.6349C11.3988 0 15.5992 0 24 0H36C44.4008 0 48.6012 0 51.8099 1.6349C54.6323 3.073 56.927 5.36771 58.3651 8.19014C60 11.3988 60 15.5992 60 24V36C60 44.4008 60 48.6012 58.3651 51.8099C56.927 54.6323 54.6323 56.927 51.8099 58.3651C48.6012 60 44.4008 60 36 60H24C15.5992 60 11.3988 60 8.19014 58.3651C5.36771 56.927 3.073 54.6323 1.6349 51.8099C0 48.6012 0 44.4008 0 36V24Z" fill="white"/>
</clipPath>
</defs>
</svg>
