<svg width="60" height="60" viewBox="0 0 60 60" fill="none" xmlns="http://www.w3.org/2000/svg">
<g id="Other Insurance Icon">
<g clip-path="url(#clip0_368_14303)">
<path d="M0 24C0 15.5992 0 11.3988 1.6349 8.19014C3.073 5.36771 5.36771 3.073 8.19014 1.6349C11.3988 0 15.5992 0 24 0H36C44.4008 0 48.6012 0 51.8099 1.6349C54.6323 3.073 56.927 5.36771 58.3651 8.19014C60 11.3988 60 15.5992 60 24V36C60 44.4008 60 48.6012 58.3651 51.8099C56.927 54.6323 54.6323 56.927 51.8099 58.3651C48.6012 60 44.4008 60 36 60H24C15.5992 60 11.3988 60 8.19014 58.3651C5.36771 56.927 3.073 54.6323 1.6349 51.8099C0 48.6012 0 44.4008 0 36V24Z" fill="#FAFAFA"/>
<g id="Ellipse 6" style="mix-blend-mode:multiply">
<circle cx="48.75" cy="69.375" r="50.625" fill="#F5F5F5"/>
</g>
<g id="Ellipse 5" style="mix-blend-mode:multiply">
<circle cx="48.75" cy="88.125" r="50.625" fill="#F5F5F5"/>
</g>
<g id="apps">
<mask id="mask0_368_14303" style="mask-type:alpha" maskUnits="userSpaceOnUse" x="7" y="7" width="46" height="46">
<rect id="Bounding box" x="7.5" y="7.5" width="45" height="45" fill="#D9D9D9"/>
</mask>
<g mask="url(#mask0_368_14303)">
<path id="apps_2" d="M16.6067 43.3929C16.0167 42.8029 15.7217 42.0884 15.7217 41.2493C15.7217 40.4102 16.0167 39.6957 16.6067 39.1057C17.1967 38.5157 17.9112 38.2207 18.7503 38.2207C19.5893 38.2207 20.3039 38.5157 20.8939 39.1057C21.4839 39.6957 21.7789 40.4102 21.7789 41.2493C21.7789 42.0884 21.4839 42.8029 20.8939 43.3929C20.3039 43.9829 19.5893 44.2779 18.7503 44.2779C17.9112 44.2779 17.1967 43.9829 16.6067 43.3929ZM27.8567 43.3929C27.2667 42.8029 26.9717 42.0884 26.9717 41.2493C26.9717 40.4102 27.2667 39.6957 27.8567 39.1057C28.4467 38.5157 29.1612 38.2207 30.0003 38.2207C30.8393 38.2207 31.5539 38.5157 32.1439 39.1057C32.7339 39.6957 33.0289 40.4102 33.0289 41.2493C33.0289 42.0884 32.7339 42.8029 32.1439 43.3929C31.5539 43.9829 30.8393 44.2779 30.0003 44.2779C29.1612 44.2779 28.4467 43.9829 27.8567 43.3929ZM39.1067 43.3929C38.5167 42.8029 38.2217 42.0884 38.2217 41.2493C38.2217 40.4102 38.5167 39.6957 39.1067 39.1057C39.6967 38.5157 40.4112 38.2207 41.2503 38.2207C42.0893 38.2207 42.8039 38.5157 43.3939 39.1057C43.9839 39.6957 44.2789 40.4102 44.2789 41.2493C44.2789 42.0884 43.9839 42.8029 43.3939 43.3929C42.8039 43.9829 42.0893 44.2779 41.2503 44.2779C40.4112 44.2779 39.6967 43.9829 39.1067 43.3929ZM16.6067 32.1429C16.0167 31.5529 15.7217 30.8384 15.7217 29.9993C15.7217 29.1602 16.0167 28.4457 16.6067 27.8557C17.1967 27.2657 17.9112 26.9707 18.7503 26.9707C19.5893 26.9707 20.3039 27.2657 20.8939 27.8557C21.4839 28.4457 21.7789 29.1602 21.7789 29.9993C21.7789 30.8384 21.4839 31.5529 20.8939 32.1429C20.3039 32.7329 19.5893 33.0279 18.7503 33.0279C17.9112 33.0279 17.1967 32.7329 16.6067 32.1429ZM27.8567 32.1429C27.2667 31.5529 26.9717 30.8384 26.9717 29.9993C26.9717 29.1602 27.2667 28.4457 27.8567 27.8557C28.4467 27.2657 29.1612 26.9707 30.0003 26.9707C30.8393 26.9707 31.5539 27.2657 32.1439 27.8557C32.7339 28.4457 33.0289 29.1602 33.0289 29.9993C33.0289 30.8384 32.7339 31.5529 32.1439 32.1429C31.5539 32.7329 30.8393 33.0279 30.0003 33.0279C29.1612 33.0279 28.4467 32.7329 27.8567 32.1429ZM39.1067 32.1429C38.5167 31.5529 38.2217 30.8384 38.2217 29.9993C38.2217 29.1602 38.5167 28.4457 39.1067 27.8557C39.6967 27.2657 40.4112 26.9707 41.2503 26.9707C42.0893 26.9707 42.8039 27.2657 43.3939 27.8557C43.9839 28.4457 44.2789 29.1602 44.2789 29.9993C44.2789 30.8384 43.9839 31.5529 43.3939 32.1429C42.8039 32.7329 42.0893 33.0279 41.2503 33.0279C40.4112 33.0279 39.6967 32.7329 39.1067 32.1429ZM16.6067 20.8929C16.0167 20.3029 15.7217 19.5884 15.7217 18.7493C15.7217 17.9102 16.0167 17.1957 16.6067 16.6057C17.1967 16.0157 17.9112 15.7207 18.7503 15.7207C19.5893 15.7207 20.3039 16.0157 20.8939 16.6057C21.4839 17.1957 21.7789 17.9102 21.7789 18.7493C21.7789 19.5884 21.4839 20.3029 20.8939 20.8929C20.3039 21.4829 19.5893 21.7779 18.7503 21.7779C17.9112 21.7779 17.1967 21.4829 16.6067 20.8929ZM27.8567 20.8929C27.2667 20.3029 26.9717 19.5884 26.9717 18.7493C26.9717 17.9102 27.2667 17.1957 27.8567 16.6057C28.4467 16.0157 29.1612 15.7207 30.0003 15.7207C30.8393 15.7207 31.5539 16.0157 32.1439 16.6057C32.7339 17.1957 33.0289 17.9102 33.0289 18.7493C33.0289 19.5884 32.7339 20.3029 32.1439 20.8929C31.5539 21.4829 30.8393 21.7779 30.0003 21.7779C29.1612 21.7779 28.4467 21.4829 27.8567 20.8929ZM39.1067 20.8929C38.5167 20.3029 38.2217 19.5884 38.2217 18.7493C38.2217 17.9102 38.5167 17.1957 39.1067 16.6057C39.6967 16.0157 40.4112 15.7207 41.2503 15.7207C42.0893 15.7207 42.8039 16.0157 43.3939 16.6057C43.9839 17.1957 44.2789 17.9102 44.2789 18.7493C44.2789 19.5884 43.9839 20.3029 43.3939 20.8929C42.8039 21.4829 42.0893 21.7779 41.2503 21.7779C40.4112 21.7779 39.6967 21.4829 39.1067 20.8929Z" fill="#737373"/>
</g>
</g>
</g>
</g>
<defs>
<clipPath id="clip0_368_14303">
<path d="M0 24C0 15.5992 0 11.3988 1.6349 8.19014C3.073 5.36771 5.36771 3.073 8.19014 1.6349C11.3988 0 15.5992 0 24 0H36C44.4008 0 48.6012 0 51.8099 1.6349C54.6323 3.073 56.927 5.36771 58.3651 8.19014C60 11.3988 60 15.5992 60 24V36C60 44.4008 60 48.6012 58.3651 51.8099C56.927 54.6323 54.6323 56.927 51.8099 58.3651C48.6012 60 44.4008 60 36 60H24C15.5992 60 11.3988 60 8.19014 58.3651C5.36771 56.927 3.073 54.6323 1.6349 51.8099C0 48.6012 0 44.4008 0 36V24Z" fill="white"/>
</clipPath>
</defs>
</svg>
