<svg width="60" height="60" viewBox="0 0 60 60" fill="none" xmlns="http://www.w3.org/2000/svg">
<g id="Term Insurance Icon">
<g clip-path="url(#clip0_368_14272)">
<path d="M0 24C0 15.5992 0 11.3988 1.6349 8.19014C3.073 5.36771 5.36771 3.073 8.19014 1.6349C11.3988 0 15.5992 0 24 0H36C44.4008 0 48.6012 0 51.8099 1.6349C54.6323 3.073 56.927 5.36771 58.3651 8.19014C60 11.3988 60 15.5992 60 24V36C60 44.4008 60 48.6012 58.3651 51.8099C56.927 54.6323 54.6323 56.927 51.8099 58.3651C48.6012 60 44.4008 60 36 60H24C15.5992 60 11.3988 60 8.19014 58.3651C5.36771 56.927 3.073 54.6323 1.6349 51.8099C0 48.6012 0 44.4008 0 36V24Z" fill="#F3E8FF"/>
<g id="Ellipse 6" style="mix-blend-mode:multiply">
<circle cx="48.75" cy="69.375" r="50.625" fill="#F3E8FF"/>
</g>
<g id="Ellipse 5" style="mix-blend-mode:multiply">
<circle cx="48.75" cy="88.125" r="50.625" fill="#F3E8FF"/>
</g>
<g id="verified_user">
<mask id="mask0_368_14272" style="mask-type:alpha" maskUnits="userSpaceOnUse" x="7" y="7" width="46" height="46">
<rect id="Bounding box" x="7.5" y="7.5" width="45" height="45" fill="#D9D9D9"/>
</mask>
<g mask="url(#mask0_368_14272)">
<path id="verified_user_2" d="M28.0313 31.9969L25.0458 29.0109C24.7667 28.7322 24.4403 28.5898 24.0666 28.5839C23.6928 28.578 23.3605 28.7203 23.0695 29.0109C22.7789 29.3019 22.6336 29.6361 22.6336 30.0136C22.6336 30.3908 22.7789 30.7248 23.0695 31.0158L26.8448 34.8202C27.1839 35.1589 27.5794 35.3283 28.0313 35.3283C28.4831 35.3283 28.8786 35.1589 29.2177 34.8202L36.9881 27.0497C37.2669 26.7706 37.4092 26.4394 37.4152 26.0559C37.4211 25.6728 37.2788 25.3358 36.9881 25.0448C36.6972 24.7539 36.363 24.6084 35.9855 24.6084C35.6083 24.6084 35.2742 24.7539 34.9833 25.0448L28.0313 31.9969ZM29.4267 47.5228C29.2392 47.4916 29.0577 47.4447 28.882 47.3822C24.928 45.9759 21.782 43.4827 19.4442 39.9023C17.1064 36.3217 15.9375 32.4581 15.9375 28.3116V19.867C15.9375 19.1577 16.1431 18.5177 16.5544 17.947C16.9653 17.3761 17.4941 16.962 18.1406 16.7048L28.8136 12.7205C29.2152 12.5761 29.6106 12.5039 30 12.5039C30.3894 12.5039 30.7848 12.5761 31.1864 12.7205L41.8594 16.7048C42.5059 16.962 43.0347 17.3761 43.4456 17.947C43.8569 18.5177 44.0625 19.1577 44.0625 19.867V28.3116C44.0625 32.4581 42.8936 36.3217 40.5558 39.9023C38.218 43.4827 35.072 45.9759 31.118 47.3822C30.9423 47.4447 30.7608 47.4916 30.5733 47.5228C30.3858 47.5541 30.1947 47.5697 30 47.5697C29.8053 47.5697 29.6142 47.5541 29.4267 47.5228Z" fill="#A855F7"/>
</g>
</g>
</g>
</g>
<defs>
<clipPath id="clip0_368_14272">
<path d="M0 24C0 15.5992 0 11.3988 1.6349 8.19014C3.073 5.36771 5.36771 3.073 8.19014 1.6349C11.3988 0 15.5992 0 24 0H36C44.4008 0 48.6012 0 51.8099 1.6349C54.6323 3.073 56.927 5.36771 58.3651 8.19014C60 11.3988 60 15.5992 60 24V36C60 44.4008 60 48.6012 58.3651 51.8099C56.927 54.6323 54.6323 56.927 51.8099 58.3651C48.6012 60 44.4008 60 36 60H24C15.5992 60 11.3988 60 8.19014 58.3651C5.36771 56.927 3.073 54.6323 1.6349 51.8099C0 48.6012 0 44.4008 0 36V24Z" fill="white"/>
</clipPath>
</defs>
</svg>
