<svg width="60" height="60" viewBox="0 0 60 60" fill="none" xmlns="http://www.w3.org/2000/svg">
<g id="Travel Insurance Icon">
<g clip-path="url(#clip0_368_14284)">
<path d="M0 24C0 15.5992 0 11.3988 1.6349 8.19014C3.073 5.36771 5.36771 3.073 8.19014 1.6349C11.3988 0 15.5992 0 24 0H36C44.4008 0 48.6012 0 51.8099 1.6349C54.6323 3.073 56.927 5.36771 58.3651 8.19014C60 11.3988 60 15.5992 60 24V36C60 44.4008 60 48.6012 58.3651 51.8099C56.927 54.6323 54.6323 56.927 51.8099 58.3651C48.6012 60 44.4008 60 36 60H24C15.5992 60 11.3988 60 8.19014 58.3651C5.36771 56.927 3.073 54.6323 1.6349 51.8099C0 48.6012 0 44.4008 0 36V24Z" fill="#DDF7FF"/>
<g id="Ellipse 6" style="mix-blend-mode:multiply">
<circle cx="48.75" cy="69.375" r="50.625" fill="#A0D5FF"/>
</g>
<g id="Ellipse 5" style="mix-blend-mode:multiply">
<circle cx="48.75" cy="88.125" r="50.625" fill="#A0D5FF"/>
</g>
<g id="travel">
<mask id="mask0_368_14284" style="mask-type:alpha" maskUnits="userSpaceOnUse" x="7" y="7" width="46" height="46">
<rect id="Bounding box" x="7.5" y="7.5" width="45" height="45" fill="#D9D9D9"/>
</mask>
<g mask="url(#mask0_368_14284)">
<path id="travel_2" d="M28.4425 26.9814L16.5793 21.9006C15.9497 21.6291 15.57 21.1706 15.4403 20.5253C15.3103 19.8797 15.4881 19.3141 15.9737 18.8284L16.5793 18.205C16.7934 17.9909 17.047 17.8364 17.3401 17.7414C17.6336 17.6464 17.9378 17.6242 18.2528 17.6748L34.8573 20.5848L40.7054 14.7072C41.3283 14.0847 42.0879 13.7734 42.9845 13.7734C43.8811 13.7734 44.6406 14.0847 45.2631 14.7072C45.8859 15.3297 46.1973 16.0894 46.1973 16.9863C46.1973 17.8828 45.8859 18.6423 45.2631 19.2648L39.4145 25.142L42.2959 41.718C42.3462 42.033 42.3287 42.3419 42.2434 42.6447C42.1581 42.9475 42.0084 43.2059 41.7943 43.42L41.1709 43.9966C40.6853 44.4822 40.115 44.665 39.46 44.545C38.805 44.4247 38.3415 44.0497 38.0697 43.42L33.0179 31.5386L27.7501 36.7778L28.7631 42.6086C28.8137 42.8611 28.8042 43.1056 28.7345 43.3422C28.6648 43.5791 28.5386 43.7889 28.3558 43.9717L27.7033 44.6059C27.3379 44.9716 26.9011 45.1134 26.3926 45.0316C25.8842 44.95 25.5037 44.682 25.2512 44.2277L21.9376 38.0617L15.7717 34.7481C15.3173 34.4956 15.0493 34.1152 14.9678 33.6067C14.8859 33.0983 15.0278 32.6614 15.3934 32.2961L16.0276 31.6436C16.2104 31.4608 16.4203 31.3316 16.6572 31.2559C16.8937 31.1803 17.1383 31.1677 17.3908 31.218L23.1925 32.2206L28.4425 26.9814Z" fill="#0083D7"/>
</g>
</g>
</g>
</g>
<defs>
<clipPath id="clip0_368_14284">
<path d="M0 24C0 15.5992 0 11.3988 1.6349 8.19014C3.073 5.36771 5.36771 3.073 8.19014 1.6349C11.3988 0 15.5992 0 24 0H36C44.4008 0 48.6012 0 51.8099 1.6349C54.6323 3.073 56.927 5.36771 58.3651 8.19014C60 11.3988 60 15.5992 60 24V36C60 44.4008 60 48.6012 58.3651 51.8099C56.927 54.6323 54.6323 56.927 51.8099 58.3651C48.6012 60 44.4008 60 36 60H24C15.5992 60 11.3988 60 8.19014 58.3651C5.36771 56.927 3.073 54.6323 1.6349 51.8099C0 48.6012 0 44.4008 0 36V24Z" fill="white"/>
</clipPath>
</defs>
</svg>
