<svg width="60" height="60" viewBox="0 0 60 60" fill="none" xmlns="http://www.w3.org/2000/svg">
<g id="Vehicle Insurance Icon">
<g clip-path="url(#clip0_368_14278)">
<path d="M0 24C0 15.5992 0 11.3988 1.6349 8.19014C3.073 5.36771 5.36771 3.073 8.19014 1.6349C11.3988 0 15.5992 0 24 0H36C44.4008 0 48.6012 0 51.8099 1.6349C54.6323 3.073 56.927 5.36771 58.3651 8.19014C60 11.3988 60 15.5992 60 24V36C60 44.4008 60 48.6012 58.3651 51.8099C56.927 54.6323 54.6323 56.927 51.8099 58.3651C48.6012 60 44.4008 60 36 60H24C15.5992 60 11.3988 60 8.19014 58.3651C5.36771 56.927 3.073 54.6323 1.6349 51.8099C0 48.6012 0 44.4008 0 36V24Z" fill="#FFFBEB"/>
<g id="Ellipse 6" style="mix-blend-mode:multiply">
<circle cx="48.75" cy="69.375" r="50.625" fill="#FEF3C7"/>
</g>
<g id="Ellipse 5" style="mix-blend-mode:multiply">
<circle cx="48.75" cy="88.125" r="50.625" fill="#FEF3C7"/>
</g>
<g id="no_crash">
<mask id="mask0_368_14278" style="mask-type:alpha" maskUnits="userSpaceOnUse" x="7" y="7" width="46" height="46">
<rect id="Bounding box" x="7.5" y="7.5" width="45" height="45" fill="#D9D9D9"/>
</mask>
<g mask="url(#mask0_368_14278)">
<path id="no_crash_2" d="M30 14.8235L35.6864 9.13711C35.942 8.87773 36.2673 8.74805 36.6623 8.74805C37.0573 8.74805 37.3847 8.87773 37.6444 9.13711C37.9038 9.3968 38.0334 9.72414 38.0334 10.1191C38.0334 10.5141 37.9038 10.8395 37.6444 11.0951L31.1864 17.553C30.8473 17.8921 30.4519 18.0616 30 18.0616C29.5481 18.0616 29.1527 17.8921 28.8136 17.553L26.3583 15.1263C26.0795 14.8666 25.9419 14.5452 25.9453 14.1621C25.9491 13.7787 26.0806 13.4474 26.34 13.1684C26.6191 12.8777 26.9533 12.7354 27.3427 12.7413C27.732 12.7473 28.0661 12.8896 28.3448 13.1684L30 14.8235ZM14.0625 49.5795V36.3537C14.0625 36.159 14.0752 35.9643 14.1005 35.7696C14.1258 35.5749 14.1683 35.3884 14.228 35.2099L17.5856 25.7168C17.8103 25.0415 18.2175 24.4929 18.8072 24.071C19.3969 23.6488 20.0569 23.4377 20.7872 23.4377H39.2128C39.9431 23.4377 40.6031 23.6488 41.1928 24.071C41.7825 24.4929 42.1897 25.0415 42.4144 25.7168L45.772 35.2099C45.8317 35.3884 45.8742 35.5749 45.8995 35.7696C45.9248 35.9643 45.9375 36.159 45.9375 36.3537V49.5795C45.9375 50.1304 45.7445 50.5987 45.3586 50.9843C44.9723 51.3699 44.5036 51.5627 43.9523 51.5627C43.4008 51.5627 42.9327 51.3699 42.548 50.9843C42.1636 50.5987 41.9714 50.1304 41.9714 49.5795V47.8127H18.0286V49.5795C18.0286 50.1304 17.8356 50.5987 17.4497 50.9843C17.0637 51.3699 16.595 51.5627 16.0434 51.5627C15.4922 51.5627 15.0242 51.3699 14.6395 50.9843C14.2548 50.5987 14.0625 50.1304 14.0625 49.5795ZM18.0145 32.9571H41.9855L39.7645 26.629C39.7164 26.5087 39.6442 26.4155 39.548 26.3496C39.4517 26.2834 39.3375 26.2502 39.2053 26.2502H20.7947C20.6625 26.2502 20.5483 26.2834 20.452 26.3496C20.3558 26.4155 20.2836 26.5087 20.2355 26.629L18.0145 32.9571ZM21.4945 42.837C22.1767 42.837 22.7553 42.598 23.2303 42.1202C23.705 41.6427 23.9423 41.0629 23.9423 40.3807C23.9423 39.6985 23.7036 39.1199 23.2261 38.6449C22.7483 38.1702 22.1683 37.9329 21.4861 37.9329C20.8039 37.9329 20.2255 38.1716 19.7508 38.6491C19.2758 39.127 19.0383 39.707 19.0383 40.3891C19.0383 41.0713 19.2772 41.6498 19.755 42.1245C20.2325 42.5995 20.8123 42.837 21.4945 42.837ZM38.5139 42.837C39.1961 42.837 39.7745 42.598 40.2492 42.1202C40.7242 41.6427 40.9617 41.0629 40.9617 40.3807C40.9617 39.6985 40.7228 39.1199 40.245 38.6449C39.7675 38.1702 39.1877 37.9329 38.5055 37.9329C37.8233 37.9329 37.2447 38.1716 36.7697 38.6491C36.295 39.127 36.0577 39.707 36.0577 40.3891C36.0577 41.0713 36.2964 41.6498 36.7739 42.1245C37.2517 42.5995 37.8317 42.837 38.5139 42.837Z" fill="#F59E0B"/>
</g>
</g>
</g>
</g>
<defs>
<clipPath id="clip0_368_14278">
<path d="M0 24C0 15.5992 0 11.3988 1.6349 8.19014C3.073 5.36771 5.36771 3.073 8.19014 1.6349C11.3988 0 15.5992 0 24 0H36C44.4008 0 48.6012 0 51.8099 1.6349C54.6323 3.073 56.927 5.36771 58.3651 8.19014C60 11.3988 60 15.5992 60 24V36C60 44.4008 60 48.6012 58.3651 51.8099C56.927 54.6323 54.6323 56.927 51.8099 58.3651C48.6012 60 44.4008 60 36 60H24C15.5992 60 11.3988 60 8.19014 58.3651C5.36771 56.927 3.073 54.6323 1.6349 51.8099C0 48.6012 0 44.4008 0 36V24Z" fill="white"/>
</clipPath>
</defs>
</svg>
