<svg width="32" height="32" viewBox="0 0 32 32" fill="none" xmlns="http://www.w3.org/2000/svg">
<g clip-path="url(#clip0_432_4792)">
<path d="M0 12.8C0 8.31958 0 6.07937 0.871948 4.36808C1.63893 2.86278 2.86278 1.63893 4.36808 0.871948C6.07937 0 8.31958 0 12.8 0H19.2C23.6804 0 25.9206 0 27.6319 0.871948C29.1372 1.63893 30.3611 2.86278 31.1281 4.36808C32 6.07937 32 8.31958 32 12.8V19.2C32 23.6804 32 25.9206 31.1281 27.6319C30.3611 29.1372 29.1372 30.3611 27.6319 31.1281C25.9206 32 23.6804 32 19.2 32H12.8C8.31958 32 6.07937 32 4.36808 31.1281C2.86278 30.3611 1.63893 29.1372 0.871948 27.6319C0 25.9206 0 23.6804 0 19.2V12.8Z" fill="#A855F7"/>
<g opacity="0.25" style="mix-blend-mode:multiply">
<circle cx="26" cy="37.5" r="27" fill="#A855F7"/>
</g>
<g opacity="0.25" style="mix-blend-mode:multiply">
<circle cx="26" cy="47.5" r="27" fill="#A855F7"/>
</g>
<mask id="mask0_432_4792" style="mask-type:alpha" maskUnits="userSpaceOnUse" x="4" y="4" width="24" height="24">
<rect x="4" y="4" width="24" height="24" fill="#D9D9D9"/>
</mask>
<g mask="url(#mask0_432_4792)">
<path d="M20.171 19.0922L22.9943 16.2537C23.4763 15.7717 23.8477 15.2181 24.1085 14.5928C24.3695 13.9673 24.5 13.3113 24.5 12.625C24.5 11.1977 24.0023 9.98667 23.007 8.992C22.0118 7.99733 20.8001 7.5 19.3717 7.5C18.6881 7.5 18.0334 7.6305 17.4078 7.8915C16.7821 8.15233 16.2283 8.52375 15.7463 9.00575L12.9078 11.829L20.171 19.0922ZM12.6283 24.5C13.3119 24.5 13.9666 24.3695 14.5923 24.1085C15.2179 23.8477 15.7717 23.4763 16.2537 22.9943L19.0922 20.171L11.829 12.9078L9.00575 15.7463C8.52375 16.2283 8.15233 16.7819 7.8915 17.4073C7.6305 18.0328 7.5 18.6887 7.5 19.375C7.5 20.8023 7.99767 22.0133 8.993 23.008C9.98817 24.0027 11.1999 24.5 12.6283 24.5Z" fill="white"/>
</g>
</g>
<defs>
<clipPath id="clip0_432_4792">
<path d="M0 12.8C0 8.31958 0 6.07937 0.871948 4.36808C1.63893 2.86278 2.86278 1.63893 4.36808 0.871948C6.07937 0 8.31958 0 12.8 0H19.2C23.6804 0 25.9206 0 27.6319 0.871948C29.1372 1.63893 30.3611 2.86278 31.1281 4.36808C32 6.07937 32 8.31958 32 12.8V19.2C32 23.6804 32 25.9206 31.1281 27.6319C30.3611 29.1372 29.1372 30.3611 27.6319 31.1281C25.9206 32 23.6804 32 19.2 32H12.8C8.31958 32 6.07937 32 4.36808 31.1281C2.86278 30.3611 1.63893 29.1372 0.871948 27.6319C0 25.9206 0 23.6804 0 19.2V12.8Z" fill="white"/>
</clipPath>
</defs>
</svg>
